<?xml version="1.0" encoding="utf-8"?>
<!-- Generator: Adobe Illustrator 24.0.2, SVG Export Plug-In . SVG Version: 6.00 Build 0)  -->
<svg version="1.1" id="Слой_1" xmlns="http://www.w3.org/2000/svg" xmlns:xlink="http://www.w3.org/1999/xlink" x="0px" y="0px"
	 viewBox="0 0 130 150" style="enable-background:new 0 0 130 150;" xml:space="preserve">
<style type="text/css">
	.st0{fill:#00FFF8;}
	.st1{fill:none;stroke:#000000;stroke-width:0.75;stroke-miterlimit:10;}
	.st2{fill:#00FFF8;stroke:#000000;stroke-width:0.5;stroke-miterlimit:10;}
</style>
<rect class="st0" width="130" height="150"/>
<polygon class="st1" points="23.5,21.1 27,23.8 31.2,22.6 29.6,26.7 32.1,30.3 27.8,30.1 25.1,33.6 23.9,29.4 19.8,27.9 23.5,25.5 
	"/>
<polygon class="st2" points="92,30.5 94.7,29.5 95.4,26.7 97.2,29 100.1,28.8 98.5,31.2 99.5,33.9 96.7,33.1 94.5,34.9 94.4,32 "/>
<polygon class="st2" points="27.1,115.7 26.3,118.6 28.1,121 25.1,121 23.5,123.5 22.5,120.7 19.6,119.9 22,118.1 21.8,115.1 
	24.3,116.8 "/>
<polygon class="st2" points="116.1,111.9 115.3,106.1 110.1,103.5 115.3,101 116.2,95.2 120.3,99.4 126,98.5 123.3,103.6 
	125.9,108.8 120.2,107.8 "/>
<polygon class="st2" points="25.8,54.8 25.2,51.3 22,49.8 25.1,48.2 25.5,44.7 28.1,47.2 31.6,46.5 30,49.6 31.7,52.7 28.2,52.2 "/>
<polygon class="st2" points="110.1,135.9 106.6,140.4 108.4,145.8 103.1,144 98.5,147.3 98.6,141.7 94,138.3 99.4,136.7 
	101.2,131.3 104.4,135.9 "/>
<polygon class="st2" points="14.6,116.5 12.3,116.5 11,118.3 10.3,116.2 8.1,115.5 10,114.2 9.9,111.9 11.8,113.3 13.9,112.5 
	13.2,114.7 "/>
<polygon class="st2" points="89.9,118.7 91,117.8 90.9,116.4 92.1,117.1 93.4,116.6 93,117.9 94,119 92.6,119.1 91.9,120.3 
	91.3,119 "/>
<polygon class="st2" points="121.6,121.4 122.5,119.4 121.4,117.5 123.6,117.8 125,116.2 125.4,118.3 127.4,119.2 125.5,120.2 
	125.3,122.4 123.7,120.9 "/>
<polygon class="st2" points="119,12.6 116.4,11.1 113.6,12.4 114.3,9.4 112.2,7.2 115.2,6.9 116.7,4.2 117.9,7 120.9,7.5 118.6,9.6 
	"/>
<polygon class="st2" points="61.3,40.9 60.6,41.8 61,42.9 59.9,42.5 59,43.2 59,42.1 58.1,41.4 59.2,41.1 59.5,40 60.2,40.9 "/>
<polygon class="st2" points="58.1,24.1 53.8,22.4 50,25.1 50.2,20.5 46.5,17.6 51,16.4 52.5,12.1 55,15.9 59.7,16 56.8,19.6 "/>
<polygon class="st2" points="7.7,9.5 7.1,10.2 7.3,11.1 6.5,10.7 5.7,11.2 5.8,10.3 5.1,9.7 6,9.5 6.3,8.7 6.8,9.5 "/>
<polygon class="st2" points="9.5,62.4 8.7,60.8 6.9,60.5 8.2,59.2 7.9,57.4 9.5,58.3 11.1,57.4 10.8,59.2 12.1,60.5 10.3,60.8 "/>
<polygon class="st2" points="6.9,131.3 8.2,132.7 10.2,132.5 9.2,134.2 10,136 8.1,135.6 6.7,136.9 6.5,135 4.7,134 6.5,133.2 "/>
<polygon class="st2" points="74.8,136.8 75.9,135.5 75.4,133.8 77,134.5 78.4,133.5 78.3,135.2 79.6,136.3 78,136.7 77.4,138.3 
	76.5,136.8 "/>
<polygon class="st2" points="56.6,131.3 55.5,133.9 57,136.3 54.2,136.1 52.4,138.3 51.7,135.5 49.1,134.5 51.5,133 51.7,130.2 
	53.8,132 "/>
<polygon class="st2" points="28.1,135.9 26.8,136.6 26.6,138 25.6,137 24.2,137.2 24.9,135.9 24.2,134.6 25.6,134.9 26.6,133.8 
	26.8,135.3 "/>
<polygon class="st2" points="38.1,142.8 39,143.1 39.8,142.5 39.8,143.5 40.6,144 39.6,144.3 39.4,145.3 38.8,144.5 37.8,144.5 
	38.4,143.7 "/>
<polygon class="st2" points="9.5,93.5 8.2,93.6 7.5,94.7 7.1,93.5 5.8,93.2 6.8,92.4 6.7,91.1 7.8,91.8 9,91.3 8.7,92.6 "/>
<polygon class="st2" points="114.2,50.9 115.5,50 115.6,48.5 116.8,49.5 118.3,49 117.7,50.5 118.6,51.8 117,51.7 116,53 
	115.6,51.4 "/>
<polygon class="st2" points="126.9,72.2 125.9,73.6 126.5,75.3 124.8,74.7 123.4,75.8 123.4,74.1 121.9,73.1 123.6,72.5 124.1,70.8 
	125.1,72.3 "/>
<polygon class="st2" points="70.7,32.2 71.8,29.8 70.4,27.5 73,27.8 74.7,25.8 75.3,28.4 77.7,29.4 75.4,30.7 75.2,33.3 73.3,31.6 
	"/>
<polygon class="st2" points="38.1,38.4 39.1,36.9 38.5,35.2 40.2,35.8 41.6,34.7 41.6,36.5 43.1,37.5 41.4,38 40.9,39.8 39.8,38.3 
	"/>
<polygon class="st2" points="32.1,11.2 32.4,10.1 31.7,9.3 32.8,9.2 33.4,8.3 33.8,9.3 34.9,9.6 34,10.3 34.1,11.4 33.2,10.8 "/>
<polygon class="st2" points="5.1,36.1 6.2,36.4 7.1,35.6 7.1,36.8 8.1,37.4 7,37.8 6.8,38.9 6.1,38 4.9,38.1 5.5,37.1 "/>
<polygon class="st2" points="56.6,110.3 57.6,109.8 57.7,108.7 58.5,109.5 59.6,109.3 59.1,110.3 59.6,111.3 58.5,111.1 57.7,111.9 
	57.6,110.8 "/>
<polygon class="st2" points="79.4,11.4 79,12.1 79.4,12.8 78.6,12.6 78,13.2 77.9,12.4 77.2,12 77.9,11.7 78.1,10.9 78.6,11.5 "/>
<polygon class="st2" points="116,25.1 117.4,24.4 117.7,22.7 118.8,23.9 120.4,23.6 119.7,25.1 120.4,26.5 118.8,26.3 117.7,27.4 
	117.4,25.8 "/>
<polygon class="st2" points="79.4,46.8 78.9,47.3 78.9,48.1 78.3,47.6 77.6,47.9 77.8,47.2 77.3,46.6 78,46.6 78.4,45.9 78.7,46.6 
	"/>
</svg>
