<?xml version="1.0" encoding="utf-8"?>
<!-- Generator: Adobe Illustrator 24.0.2, SVG Export Plug-In . SVG Version: 6.00 Build 0)  -->
<svg version="1.1" xmlns="http://www.w3.org/2000/svg" xmlns:xlink="http://www.w3.org/1999/xlink" x="0px" y="0px"
	 viewBox="0 0 130 150" style="enable-background:new 0 0 130 150;" xml:space="preserve">
<style type="text/css">
	.st0{fill:#00FFF8;}
	.st1{fill:#00FFF8;stroke:#000000;stroke-width:0.5;stroke-miterlimit:10;}
	.st2{fill:#9654FF;}
	.st3{fill:none;stroke:#FFFFFF;stroke-width:0.5;stroke-miterlimit:10;}
	.st4{fill:#9654FF;stroke:#FFFFFF;stroke-width:0.75;stroke-miterlimit:10;}
	.st5{fill:none;stroke:#FFFFFF;stroke-width:0.75;stroke-miterlimit:10;}
	.st6{fill:#9654FF;stroke:#FFFFFF;stroke-width:0.5;stroke-miterlimit:10;}
</style>
<g id="Слой_1">
	<line class="st0" x1="130" y1="150" x2="0" y2="150"/>
	<path class="st1" d="M98.5,147.3"/>
	<rect x="-0.9" y="-1.1" class="st2" width="132.3" height="152.7"/>
	<line class="st3" x1="12.8" y1="27.1" x2="16.4" y2="10.3"/>
	
		<ellipse transform="matrix(0.9644 -0.2646 0.2646 0.9644 -19.7206 34.8923)" class="st4" cx="119.7" cy="90.6" rx="5.7" ry="15.6"/>
	<polygon class="st4" points="14.6,118.6 19.1,121.2 23.9,119 22.8,124.2 26.3,128 21.1,128.5 18.5,133.1 16.5,128.3 11.3,127.3 
		15.2,123.8 	"/>
	<polygon class="st4" points="100.9,11.1 101.9,7.7 99.7,5 103.2,4.9 105.1,2 106.3,5.3 109.6,6.2 106.8,8.3 107,11.8 104.1,9.8 	
		"/>
	<polygon class="st4" points="102.7,133.1 104.7,134.2 106.7,133.2 106.3,135.4 107.9,137 105.7,137.3 104.6,139.3 103.6,137.3 
		101.4,136.9 103,135.4 	"/>
	<polygon class="st4" points="15,99.4 10.9,92.6 14.8,85.7 22.6,85.6 26.7,92.4 22.9,99.3 	"/>
	<line class="st5" x1="113.3" y1="39.4" x2="117.7" y2="52.4"/>
	<path class="st4" d="M60.8,136.2c0,0-16.1-27.1-4.6-20c11.5,7.1,16.6-1.2,16.6-1.2S76.6,124.5,60.8,136.2z"/>
	<path class="st4" d="M28.4,22.3l-4.3,13.3c0,0,26,12.8,14.3-1.8s12.3-10.2,12.3-10.2S35.3,12.3,28.4,22.3z"/>
	<path class="st4" d="M11.3,68c0,0-6.6-23.2,1.5-23.7c8.2-0.5-18.9,7.9,0,14.8C31.7,66,11.3,68,11.3,68z"/>
	<path class="st4" d="M117.2,123.1c0,0,4.6,3.1,5.1-3.1"/>
	<path class="st4" d="M35.3,141.8c0,0-10.7,9.7-8.9,2.8C28.1,137.7,33.2,158.4,35.3,141.8z"/>
	<path class="st4" d="M110.7,20.5c-3.3,5.6,6,4.1,9.2-1.3c3.3-5.6-25.3-1-11.4-3.3"/>
	<path class="st4" d="M83.8,146.1c0,0-31.7-4.3-14.3-4.3s18.1-14,18.4-13c0.3,1-1.8,24.3,10.6,17.4"/>
	<circle class="st6" cx="65.2" cy="4.1" r="2.8"/>
</g>
<g id="Слой_2">
	<circle class="st6" cx="65.2" cy="4.1" r="1.3"/>
</g>
</svg>
