<?xml version="1.0" encoding="utf-8"?>
<!-- Generator: Adobe Illustrator 24.0.2, SVG Export Plug-In . SVG Version: 6.00 Build 0)  -->
<svg version="1.1" xmlns="http://www.w3.org/2000/svg" xmlns:xlink="http://www.w3.org/1999/xlink" x="0px" y="0px"
	 viewBox="0 0 1920 3080" style="enable-background:new 0 0 1920 3080;" xml:space="preserve">
<style type="text/css">
	.st0{stroke:#000000;stroke-width:5;stroke-miterlimit:10;}
	.st1{fill:#A67C52;stroke:#000000;stroke-width:5;stroke-miterlimit:10;}
	.st2{fill:#603813;}
	.st3{fill:#C69C6D;stroke:#000000;stroke-width:5;stroke-miterlimit:10;}
	.st4{fill:#FFFFFF;stroke:#000000;stroke-width:5;stroke-miterlimit:10;}
</style>
<g id="Слой_2">
	<rect x="-0.5" y="-0.5" class="st0" width="1920" height="3080"/>
</g>
<g id="Слой_3">
	<path class="st1" d="M166.5,142.5h295l24,75l25-75h90l36,37l45-37h180l29,151l24-151h237l16,75l78-75h294l21,75l57-75h122l9,2648
		l-165,9l-57-76l-21,76h-294l-78-76l-16,76h-237l-21-167l-32,167h-180l-45-44l-36,43h-90l-25-93l-21,93l-271,1
		C159.5,2799.5,206.5,161.5,166.5,142.5z"/>
</g>
<g id="Слой_4">
	<polygon class="st2" points="440,142 461,143.6 485.4,237.1 	"/>
	<polygon class="st2" points="558.2,144.6 636.8,190.4 600.2,145 	"/>
	<polygon class="st2" points="805,145 891,307 859,145 	"/>
	<polyline class="st2" points="1105,145 1166,222 1149,145 	"/>
	<polyline class="st2" points="1482,145 1559,223 1537,145 	"/>
	<polyline class="st2" points="359,2796 451,2695 429,2796 	"/>
	<polyline class="st2" points="550,2796 603,2752 566,2796 	"/>
	<polyline class="st2" points="789,2796 860,2616 825,2796 	"/>
	<polyline class="st2" points="1075,2796 1132,2719 1116,2796 	"/>
	<polyline class="st2" points="1467,2796 1526,2718 1504,2796 	"/>
</g>
<g id="Слой_1">
	<g>
		<path class="st3" d="M36.5,142.5c0,0,73-119,122-45s1,2680,1,2680s6,127-68,82S36.5,142.5,36.5,142.5z"/>
		<path class="st4" d="M156.5,2818.5c-53,0-78.3,0.3-78.3,0.3"/>
		<path class="st4" d="M36.5,145.5c1.2-8.5,0,9,130.3-3h294.7l24,86l25-86h90l36,43l45-43h180l29,151l24-151h237l16,75l78-75h294
			l21,75l57-75h122.3c93.7,24,132.3,0,132.3,0"/>
		<path class="st0" d="M159,2799.5l271.5-1l21-86l25,86h90l36-43l45,43h180l29-151l24,151h237l16-75l78,75h294l21-75l57,75h122.3
			c93.7-24,126.7-2,126.7-2"/>
		<path class="st4" d="M135.5,2798.5"/>
		<path class="st3" d="M1870.1,142.5c0,0-73-119-122-45s0,2737,0,2737s-7,70,67,25S1870.1,142.5,1870.1,142.5z"/>
		<path class="st4" d="M1828.4,2818.8c0,0-37.9-0.3-80.3-0.3"/>
	</g>
	<polyline class="st0" points="1739.8,142.5 1617.5,142.5 1560.5,217.5 1539.5,142.5 1245.5,142.5 1167.5,217.5 1151.5,142.5 
		914.5,142.5 890.5,293.5 861.5,142.5 681.5,142.5 636.5,185.5 600.5,142.5 510.5,142.5 485.5,228.5 461.5,142.5 166.5,142.5 	"/>
	<path class="st4" d="M474.5,386.5"/>
</g>
<g id="Слой_5">
	<path class="st2" d="M167,142c0,0-61,2602-10,2676"/>
	<path class="st2" d="M135.5,144.5"/>
	<path class="st2" d="M70,145c0,0,47,2683,8,2674"/>
	<path class="st2" d="M93.5,2338.3c0,0,62.5-2024.3,13.5-2193.3"/>
	<path class="st2" d="M1748,2818c45,0,19-2745,19-2745"/>
	<path class="st2" d="M1799,73c2,2746,51,2731,0,2746"/>
	<path class="st2" d="M1774,2819"/>
	<path class="st2" d="M1774,2819c0,0,142-2722,58-2722"/>
</g>
</svg>
