<?xml version="1.0" encoding="utf-8"?>
<!-- Generator: Adobe Illustrator 24.0.2, SVG Export Plug-In . SVG Version: 6.00 Build 0)  -->
<svg version="1.1" xmlns="http://www.w3.org/2000/svg" xmlns:xlink="http://www.w3.org/1999/xlink" x="0px" y="0px"
	 viewBox="0 0 130 150" style="enable-background:new 0 0 130 150;" xml:space="preserve">
<style type="text/css">
	.st0{fill:#FF86F7;stroke:#000000;stroke-width:0.5;stroke-miterlimit:10;}
	.st1{fill:none;stroke:#000000;stroke-width:0.5;stroke-miterlimit:10;}
</style>
<g id="Слой_2">
	<rect x="0" class="st0" width="130" height="150"/>
	<path class="st1" d="M10.8,19c-0.2-1-0.3-2.2,0.4-3.1c0.7-0.9,2-1.1,3.1-0.8c1.1,0.3,1.9,1.1,2.7,2c0.7-0.7,1.5-1.4,2.4-1.9
		c0.4-0.3,0.9-0.5,1.5-0.5c1.2,0,2.1,1.3,2.1,2.5s-0.6,2.3-1.2,3.4c-1.1,1.8-2.1,3.6-3.7,5.1c-0.2,0.1-0.3,0.3-0.5,0.3
		c-0.2,0-0.3,0-0.5,0c-0.5-0.1-1.6-0.4-3.5-1.8C12.2,23.2,11,20.6,10.8,19z"/>
	<path class="st1" d="M21.3,126c0,2.2,3.3,2.9,3.3,5.1c3.3-2.9,4.2-8.3,6.9-11.7c-2.4,1.9-4.4,7.3-6.8,9.1c-0.5-2-2.9-2.5-3.6-4.3
		c-2.3,3.2-4,6.7-6.1,9.9c0.9-1.2,1.9-2.3,2.9-3.4C18.4,130,21.3,126.7,21.3,126z"/>
	<path class="st1" d="M109.1,139.8c1.2,1.3,2.4,2.7,3.6,4c-1.1-1-2-2.3-2.5-3.8c-0.2-0.6-0.2-1.4,0.4-1.5c0.2,0,0.4,0.1,0.6,0.2
		c1.2,0.6,2.4,1.5,3.4,2.5c0.1,0.1,0.2,0.2,0.3,0.2c0.1,0,0.2,0,0.4-0.1c1-0.4,1.5-1.7,1.2-2.7s-1-1.9-1.8-2.6
		c-0.4,0-0.7,0.5-0.6,0.9c0.1,0.4,0.4,0.7,0.8,1c0.6,0.6,1.4,1.2,2.2,1.1c0.6,0,1.1-0.4,1.5-0.9c0.7-0.8,1.1-1.8,1.1-2.8
		c0-1-0.6-2-1.5-2.5c-0.5,0.1-0.8,0.5-0.9,0.9s0.1,0.9,0.4,1.3c0.1,0.2,0.3,0.3,0.5,0.4c1,0.4,2-0.6,3.1-0.4
		c0.9,0.2,1.4,1.3,1.2,2.2c-0.2,0.9-1,1.6-1.8,2.2"/>
	<path class="st1" d="M12.5,65.3c-0.7,0-1.5-0.5-2,0c-0.4,0.3-0.3,1,0,1.4c0.3,0.4,0.9,0.6,1.4,0.7c0.2,0.1,0.3,0.1,0.5,0.1
		c0.2-0.1,0.3-0.3,0.4-0.5c0.2-0.7,0-1.6-0.6-2.1s-1.7-0.2-1.9,0.5c-0.2,0.5,0.1,1.1,0.6,1.5c0.5,0.3,1,0.5,1.6,0.6
		c1,0.2,1.9,0.4,2.9,0.5c0.7,0.1,1.4,0.1,2-0.2c0.6-0.3,1.1-1,0.8-1.6c-0.5-0.2-1.1-0.3-1.6-0.2s-1,0.5-1.1,1.1
		c-0.1,0.7,0.5,1.4,1.2,1.5c0.7,0.1,1.4-0.3,1.8-0.9c0.4-0.6,0.5-1.3,0.5-2c0-0.9-0.2-1.8-0.8-2.4c-0.6-0.6-1.6-0.8-2.5-1
		c-0.9-0.1-1.7-0.3-2.6-0.4c-0.6-0.1-1.2-0.2-1.7-0.1c-1.5,0.3-2.4,1.7-3.2,3c-0.4,0.7-0.8,1.3-0.9,2.1c-0.2,1.2,0.3,2.3,0.8,3.4
		c1,1.8,2.3,3.6,4.2,4.4s4.4,0.5,5.7-1.1c0.5-0.7,0.8-1.5,1-2.3c0.4-1.6,0.5-3.3,0.5-4.9c-0.1-1-0.2-2.1-1-2.8
		c-0.4-0.3-0.9-0.5-1.4-0.7c-1.1-0.4-2.2-0.7-3.4-1c-1.2-0.3-2.7-0.5-3.4,0.5c-0.2,0.3-0.3,0.6-0.4,0.8c-0.3,0.4-0.7,0.6-1,1
		c-0.8,0.8-1.1,2-1.3,3.1c-0.1,0.4-0.2,0.9-0.1,1.3c0.1,0.5,0.3,0.9,0.5,1.3c0.9,1.4,2.3,2.3,3.7,3.1c0.9,0.5,1.8,1,2.8,0.9
		s2-0.9,2-1.9c-0.4,1-1.6,1.3-2.7,1.2s-2-0.6-3.1-0.6"/>
	<path class="st1" d="M112.5,17.7c-0.6-0.6-1-1.3-1.2-2c0.4-0.5,1-0.9,1.6-1.1c0.7,0.9,1.2,1.9,1.3,3c0.6-0.6,1.3-1,2.1-1.3
		c0.2,0.5,0.6,0.9,1.1,1c-0.4,0.9-1.1,1.7-2.1,2c0.6-0.4,1.5,0,1.7,0.6c0.2,0.7-0.2,1.5-0.9,1.7c-0.7,0.2-1.5-0.2-1.7-0.8
		c0.4,0.3,0.6,0.9,0.4,1.4c-0.3,0.6-1.3,0.8-1.8,0.3c-0.5-0.5-0.3-1.5,0.4-1.7c-0.7,0.2-1.4,0.4-2.1,0.7c-0.3,0.1-0.7,0.2-1,0
		c-0.6-0.4-0.1-1.3,0.5-1.5c0.7-0.3,1.6-0.1,2.2,0.3c-0.8-0.1-1.6-0.7-2-1.4c0.8-0.3,1.6-0.6,2.5-0.9c0.3-0.1,0.6-0.2,1-0.2
		c0.4,0,0.8,0.3,1,0.7c0.2,0.4,0.3,0.8,0.1,1.2c-0.2,0.7-0.9,1.2-1.7,1.1c-0.7-0.1-1.4-0.7-1.4-1.4c-0.1-1,0.9-1.9,1.9-1.6
		c0.3,0.5,0.7,1,1,1.4c0.2,0.2,0.3,0.5,0.3,0.8c0,0.3-0.2,0.5-0.3,0.8c-0.1,0.4,0,0.9,0.2,1.3c1.3,3.7,2.6,7.4,3.8,11.1
		c-1.1-2.5-1.5-5.2-1.2-7.9c0.1-0.6,0.3-1.4,0.9-1.5c0.8,2.4,0.7,5.1-0.3,7.5c-1.1-1.4-2.2-2.8-3.3-4.2c-0.3-0.4-0.6-0.8-1-1
		c-0.4-0.2-1-0.2-1.3,0.2c0.2,1.3,1.1,2.5,2.2,3.3c1.1,0.8,2.3,1.4,3.6,1.9"/>
	<path class="st1" d="M33,19.2c-1.3-0.6-2.3-2.2-1.7-3.6c0.4-0.9,1.3-1.4,2.2-1.6s1.9-0.1,2.9-0.1c0.7,0,1.5-0.1,1.8-0.7
		c0.2-0.3,0.2-0.6,0.3-0.9c0.2-1.1,0.5-2.3,1.1-3.2c0.6-0.9,1.8-1.7,2.9-1.5c1.9,0.2,2.8,2.5,2.6,4.4c0.2,0.1,0.4,0.1,0.7,0.2
		c-0.2,0.6,0.4,1.1,1,1.2c0.6,0.1,1.1-0.2,1.7-0.3c1.2-0.4,2.6-0.5,3.9-0.4c0.2,0,0.5,0.1,0.6,0.3c0.1,0.2,0.1,0.5,0,0.7
		c-0.5,1.4-1.7,2.5-3.1,3.2c-1.4,0.7-2.9,1.1-4.3,1.4C42,19.1,36.5,20.9,33,19.2z"/>
	<path class="st1" d="M111.3,87.4c1.7,1.8-0.3,4.6-2.5,3.6c1.4-4,8.1,5.7,0.7,3.2c1.8-2.9,4.4,1.3,3,3c-0.7,0.8-2.9,0.6-2.1-0.4
		c0.9-1.1,2.9,1.9,0.5,3.3c1.2-0.1,6.2-0.9,6,0.9c-2.9,3.2-7.8,2.3-11,0.4c2.9,4.2,6,8.2,9.3,12.1c1.1-4.4,0.4-9.2,2.3-13.5
		c-4,0.2-7.9,0.5-11.9,0.7c2.9,4.5,6,8.9,9.5,12.9"/>
	<path class="st1" d="M103.6,89.7c1,0.4,2.2,1.5,1.8,2.7c-0.1,0.5-1.7,1.9-1.7,0.9c0-0.7,1.3-1.7,1.9-1.6c0.7,0.1,1.9,1.9,2.1,2.4
		c0.5,1,0.7,2,0.3,3.1c-0.2,0.5-1.7,2.3-1.8,1.1c-0.1-2.2,4.8,0.2,2.6,2.1c3-0.2,8.2,0.1,6.4-4.8c-1.6-4.5-4,0.8-0.7-0.1
		c3.2-0.8,0.3-6.5-1-5.1c2,1.5,4-4,1.6-4"/>
	<path class="st1" d="M107.7,103.5c0.4,0.2,0.7,0.4,1.1,0.5c0.4,0.1,0.7,0.1,1.1,0.1c1.7,0.1,3.3,0.2,5,0.3c0.4,0,0.9,0,1.1-0.4"/>
	<path class="st1" d="M108.9,105.4c0.8,0.2,1.6,0.4,2.3,0.6c0.6,0.2,1.3,0.3,1.9,0.4c0.9,0.1,1.8-0.1,2.7-0.4"/>
	<path class="st1" d="M110.4,107.7c1.8,0.2,3.7,0.1,5.4-0.4"/>
	<path class="st1" d="M111.9,109.1c0.2,0,0.3,0,0.5,0.1c0.2,0,0.5,0.1,0.7,0.1c0.3,0,0.6,0.1,1,0.1c0.5,0,1.1-0.1,1.6-0.3"/>
	<path class="st1" d="M113,110.7c0.3,0.2,0.8,0.3,1.1,0.1c0.4-0.2,0.8-0.5,1.2-0.5"/>
	<path class="st1" d="M113.9,111.8c0.4,0.2,0.9,0.3,1.4,0.2"/>
	<path class="st1" d="M112.9,18c-0.6-0.5-1.4-0.9-2.2-0.9c-0.2,0-0.4,0-0.6,0.2c-0.1,0.1-0.2,0.3-0.1,0.5c0.1,0.3,0.3,0.6,0.5,0.8
		c0.1,0.1,0.2,0.2,0.3,0.4c0.2,0.2,0.4,0.4,0.6,0.5c0.2,0.1,0.5,0.1,0.7,0.1"/>
	<path class="st1" d="M48.8,134.6c1.1-1.2,1.9-2.6,2.4-4.1c0.1-0.4,0.2-0.8,0.2-1.2c0-1.1-0.7-2.1-1.4-3c-1.4-1.8-2.5-0.4-3,1.4
		c-0.8,2.6,0,5.6,2.1,7.3c2.1,1.6,5.5,1.5,7.2-0.6c0.3-0.4,0.5-0.8,0.6-1.2c0.1-0.4,0.1-0.9,0.1-1.3c-0.1-3,0.5-6.4-3.2-7.3
		c-1.8-0.4-3.6-0.2-5,0.7"/>
	<path class="st1" d="M54.5,124.4c-0.6,0.2-1.1,0.6-1.6,0.9c-0.5,0.4-1,0.8-1.2,1.4c-0.2,0.5-0.2,1-0.1,1.6c0.2,2.6,0.8,5.5,2.7,7.2
		"/>
	<path class="st1" d="M46.8,128.9c1.2,1.3,3,1.6,4.8,1.7c0.6,0,1.2,0,1.8-0.2c0.6-0.2,1-0.6,1.5-1c0.6-0.5,1.1-1.1,1.7-1.7"/>
	<path class="st1" d="M57,132.5c-1.6-0.8-3.2-1.6-5-1.9c-1.8-0.3-3.7,0.1-5,1.3"/>
</g>
<g id="Слой_1">
	<path class="st1" d="M65,1.4c1.6,0,2.8,1.3,2.8,2.8S66.6,7,65,7c-1.6,0-2.8-1.3-2.8-2.8S63.4,1.4,65,1.4"/>
	<circle class="st1" cx="65" cy="4.2" r="1.3"/>
</g>
</svg>
