<?xml version="1.0" encoding="utf-8"?>
<!-- Generator: Adobe Illustrator 24.0.2, SVG Export Plug-In . SVG Version: 6.00 Build 0)  -->
<svg version="1.1" id="Слой_1" xmlns="http://www.w3.org/2000/svg" xmlns:xlink="http://www.w3.org/1999/xlink" x="0px" y="0px"
	 viewBox="0 0 800 600" style="enable-background:new 0 0 800 600;" xml:space="preserve">
<style type="text/css">
	.st0{fill:url(#SVGID_1_);}
	.st1{display:none;}
	.st2{display:inline;fill:#FFFFFF;stroke:#000000;stroke-width:3;stroke-linejoin:round;stroke-miterlimit:10;}
	.st3{display:inline;}
	.st4{fill:#FFFFFF;}
	.st5{display:inline;fill:url(#SVGID_2_);stroke:#000000;stroke-miterlimit:10;}
	.st6{display:inline;fill:url(#SVGID_3_);stroke:#000000;stroke-width:0.5;stroke-miterlimit:10;}
	.st7{display:inline;fill:url(#SVGID_4_);stroke:#000000;stroke-width:0.5;stroke-miterlimit:10;}
	.st8{display:inline;fill:url(#SVGID_5_);stroke:#000000;stroke-width:0.5;stroke-miterlimit:10;}
	.st9{display:inline;fill:url(#SVGID_6_);stroke:#000000;stroke-width:0.5;stroke-miterlimit:10;}
	.st10{fill:url(#SVGID_7_);}
	.st11{display:inline;fill:url(#SVGID_8_);stroke:#000000;stroke-width:0.5;stroke-miterlimit:10;}
	.st12{display:inline;fill:url(#SVGID_9_);stroke:#000000;stroke-width:0.5;stroke-miterlimit:10;}
	.st13{display:inline;fill:url(#SVGID_10_);stroke:#000000;stroke-width:0.5;stroke-miterlimit:10;}
	.st14{display:inline;fill:url(#SVGID_11_);stroke:#000000;stroke-width:0.5;stroke-miterlimit:10;}
	.st15{display:inline;fill:url(#SVGID_12_);}
	.st16{display:inline;fill:url(#SVGID_13_);}
	.st17{display:inline;fill:url(#SVGID_14_);}
	.st18{display:inline;fill:url(#SVGID_15_);}
	.st19{display:inline;fill:url(#SVGID_16_);}
	.st20{display:inline;fill:url(#SVGID_17_);}
	.st21{display:inline;fill:url(#SVGID_18_);}
	.st22{display:inline;fill:url(#SVGID_19_);}
	.st23{display:inline;fill:url(#SVGID_20_);}
	.st24{display:inline;fill:url(#SVGID_21_);}
	.st25{display:inline;fill:url(#SVGID_22_);}
	.st26{display:inline;fill:url(#SVGID_23_);}
	.st27{display:inline;fill:url(#SVGID_24_);}
	.st28{display:inline;fill:url(#SVGID_25_);}
	.st29{display:inline;fill:url(#SVGID_26_);}
	.st30{display:inline;fill:url(#SVGID_27_);}
	.st31{display:inline;fill:url(#SVGID_28_);}
	.st32{display:inline;fill:url(#SVGID_29_);}
	.st33{display:inline;fill:url(#SVGID_30_);}
	.st34{display:inline;fill:url(#SVGID_31_);}
	.st35{display:inline;fill:url(#SVGID_32_);}
	.st36{display:inline;fill:url(#SVGID_33_);}
	.st37{display:inline;fill:url(#SVGID_34_);}
	.st38{display:inline;fill:url(#SVGID_35_);}
	.st39{display:inline;fill:url(#SVGID_36_);}
	.st40{display:inline;fill:url(#SVGID_37_);}
	.st41{display:inline;fill:url(#SVGID_38_);}
	.st42{display:inline;fill:#F7931E;stroke:#000000;stroke-miterlimit:10;}
	.st43{display:inline;fill:none;stroke:#FFFF00;stroke-miterlimit:10;}
	.st44{fill:#DDFF00;stroke:#000000;stroke-width:5.000000e-02;stroke-miterlimit:10;}
	.st45{fill:url(#SVGID_39_);stroke:#000000;stroke-width:5.000000e-02;stroke-miterlimit:10;}
	.st46{fill:url(#SVGID_40_);stroke:#000000;stroke-width:5.000000e-02;stroke-miterlimit:10;}
	.st47{fill:url(#SVGID_41_);stroke:#000000;stroke-width:5.000000e-02;stroke-miterlimit:10;}
	.st48{fill:url(#SVGID_42_);stroke:#000000;stroke-width:5.000000e-02;stroke-miterlimit:10;}
	.st49{fill:url(#SVGID_43_);stroke:#000000;stroke-width:5.000000e-02;stroke-miterlimit:10;}
	.st50{fill:url(#SVGID_44_);stroke:#000000;stroke-width:5.000000e-02;stroke-miterlimit:10;}
	.st51{fill:url(#SVGID_45_);stroke:#000000;stroke-width:5.000000e-02;stroke-miterlimit:10;}
	.st52{fill:#FFFF00;}
	.st53{fill:#FCEE21;}
	.st54{fill:url(#SVGID_46_);stroke:#000000;stroke-width:5.000000e-02;stroke-miterlimit:10;}
	.st55{fill:none;stroke:#00FFFF;stroke-width:0.25;stroke-miterlimit:10;}
</style>
<g id="Слой_4">
	<g>
		
			<linearGradient id="SVGID_1_" gradientUnits="userSpaceOnUse" x1="721.5907" y1="298.1414" x2="62.8162" y2="301.6456" gradientTransform="matrix(1 0 0 -1 0 600)">
			<stop  offset="0" style="stop-color:#0E6A00"/>
			<stop  offset="6.880000e-02" style="stop-color:#127A02"/>
			<stop  offset="0.2891" style="stop-color:#1FA909"/>
			<stop  offset="0.4992" style="stop-color:#29CF0E"/>
			<stop  offset="0.6935" style="stop-color:#30E912"/>
			<stop  offset="0.8663" style="stop-color:#34F914"/>
			<stop  offset="1" style="stop-color:#36FF15"/>
		</linearGradient>
		<polygon class="st0" points="47.9,302.4 210.5,16 540,13.6 706.7,297.6 544.1,584.1 214.8,586.5 		"/>
		<path d="M538.4,16.3l165.2,281.3L542.5,581.3l-326.2,2.4L51.1,302.4L212.2,18.7L538.4,16.3 M541.5,10.7l-332.6,2.4L44.7,302.5
			l168.4,286.8l332.6-2.4l164.2-289.3L541.5,10.7L541.5,10.7z"/>
	</g>
</g>
<g id="Слой_3" class="st1">
	<rect x="31.5" y="45" class="st2" width="81" height="41.5"/>
</g>
<g id="Слой_1_1_" class="st1">
	<g class="st3">
		<path class="st4" d="M31.5,86.5V44.1c0,0,0,0,0,0c0.2-0.2,0.4-0.3,0.6-0.6h79.9c0.1,0.2,0.2,0.3,0.3,0.4c0,0,0.1,0.1,0.1,0.1v42.4
			H31.5z"/>
		<path d="M111.8,44c0.1,0.1,0.1,0.1,0.2,0.2c0,0,0,0,0,0V86H32V44.3c0.1-0.1,0.2-0.2,0.4-0.3H111.8 M112.3,43H31.8c0,0,0,0.1,0,0.1
			c-0.1,0.2-0.4,0.4-0.6,0.6c-0.1,0.1-0.1,0.2-0.2,0.2V87h82V43.8c0,0-0.1,0-0.1,0c-0.1,0-0.1-0.1-0.1-0.1
			C112.6,43.4,112.5,43.2,112.3,43L112.3,43z"/>
	</g>
	
		<linearGradient id="SVGID_2_" gradientUnits="userSpaceOnUse" x1="72" y1="565.5691" x2="72" y2="548.7001" gradientTransform="matrix(1 0 0 -1 0 600)">
		<stop  offset="0" style="stop-color:#F7931E"/>
		<stop  offset="0.1022" style="stop-color:#DB821B"/>
		<stop  offset="0.3235" style="stop-color:#935812"/>
		<stop  offset="0.6446" style="stop-color:#221404"/>
		<stop  offset="0.7363" style="stop-color:#000000"/>
	</linearGradient>
	<path class="st5" d="M113,44.5c-44.5-30.4-82,0-82,0H113z"/>
	
		<linearGradient id="SVGID_3_" gradientUnits="userSpaceOnUse" x1="31.5" y1="550" x2="112.5" y2="550" gradientTransform="matrix(1 0 0 -1 0 600)">
		<stop  offset="0.2426" style="stop-color:#F15A24"/>
		<stop  offset="0.4315" style="stop-color:#EF5924"/>
		<stop  offset="0.537" style="stop-color:#E75622"/>
		<stop  offset="0.6221" style="stop-color:#D95120"/>
		<stop  offset="0.6962" style="stop-color:#C54A1D"/>
		<stop  offset="0.7632" style="stop-color:#AC401A"/>
		<stop  offset="0.825" style="stop-color:#8C3415"/>
		<stop  offset="0.883" style="stop-color:#67260F"/>
		<stop  offset="0.9378" style="stop-color:#3C1609"/>
		<stop  offset="0.9883" style="stop-color:#0C0502"/>
		<stop  offset="1" style="stop-color:#000000"/>
	</linearGradient>
	<rect x="31.5" y="48.5" class="st6" width="81" height="3"/>
	
		<linearGradient id="SVGID_4_" gradientUnits="userSpaceOnUse" x1="31.5" y1="538.5" x2="112.5" y2="538.5" gradientTransform="matrix(1 0 0 -1 0 600)">
		<stop  offset="0.2426" style="stop-color:#F15A24"/>
		<stop  offset="0.3261" style="stop-color:#EC5823"/>
		<stop  offset="0.4229" style="stop-color:#DE5321"/>
		<stop  offset="0.5261" style="stop-color:#C74A1E"/>
		<stop  offset="0.634" style="stop-color:#A63E19"/>
		<stop  offset="0.7455" style="stop-color:#7D2F13"/>
		<stop  offset="0.86" style="stop-color:#491B0B"/>
		<stop  offset="0.9749" style="stop-color:#0E0502"/>
		<stop  offset="1" style="stop-color:#000000"/>
	</linearGradient>
	<rect x="31.5" y="59.5" class="st7" width="81" height="4"/>
	
		<linearGradient id="SVGID_5_" gradientUnits="userSpaceOnUse" x1="31.5" y1="527.5" x2="112.5" y2="527.5" gradientTransform="matrix(1 0 0 -1 0 600)">
		<stop  offset="0.2426" style="stop-color:#F15A24"/>
		<stop  offset="0.4582" style="stop-color:#9D3B17"/>
		<stop  offset="0.6505" style="stop-color:#5A220D"/>
		<stop  offset="0.8103" style="stop-color:#290F06"/>
		<stop  offset="0.9315" style="stop-color:#0B0402"/>
		<stop  offset="1" style="stop-color:#000000"/>
	</linearGradient>
	<rect x="31.5" y="70.5" class="st8" width="81" height="4"/>
	
		<linearGradient id="SVGID_6_" gradientUnits="userSpaceOnUse" x1="31.5" y1="517" x2="112.5" y2="517" gradientTransform="matrix(1 0 0 -1 0 600)">
		<stop  offset="0.2426" style="stop-color:#F15A24"/>
		<stop  offset="0.3068" style="stop-color:#CB4C1E"/>
		<stop  offset="0.407" style="stop-color:#963816"/>
		<stop  offset="0.5086" style="stop-color:#682710"/>
		<stop  offset="0.6095" style="stop-color:#42190A"/>
		<stop  offset="0.7095" style="stop-color:#250E06"/>
		<stop  offset="0.8085" style="stop-color:#110602"/>
		<stop  offset="0.9059" style="stop-color:#040201"/>
		<stop  offset="1" style="stop-color:#000000"/>
	</linearGradient>
	<rect x="31.5" y="81.5" class="st9" width="81" height="3"/>
	<g class="st3">
		
			<linearGradient id="SVGID_7_" gradientUnits="userSpaceOnUse" x1="31.25" y1="553.5" x2="112.75" y2="553.5" gradientTransform="matrix(1 0 0 -1 0 600)">
			<stop  offset="0.6157" style="stop-color:#F7931E"/>
			<stop  offset="0.6527" style="stop-color:#CB7919"/>
			<stop  offset="0.7029" style="stop-color:#965912"/>
			<stop  offset="0.7538" style="stop-color:#683E0D"/>
			<stop  offset="0.8044" style="stop-color:#422808"/>
			<stop  offset="0.8545" style="stop-color:#251605"/>
			<stop  offset="0.904" style="stop-color:#110A02"/>
			<stop  offset="0.9529" style="stop-color:#040201"/>
			<stop  offset="1" style="stop-color:#000000"/>
		</linearGradient>
		<rect x="31.3" y="44.3" class="st10" width="81.5" height="4.5"/>
		<path d="M112.5,44.5v4h-81v-4H112.5 M113,44H31v5h82V44L113,44z"/>
	</g>
	
		<linearGradient id="SVGID_8_" gradientUnits="userSpaceOnUse" x1="31.5" y1="544.5" x2="112.5" y2="544.5" gradientTransform="matrix(1 0 0 -1 0 600)">
		<stop  offset="0.3792" style="stop-color:#F7931E"/>
		<stop  offset="0.4457" style="stop-color:#F2901D"/>
		<stop  offset="0.5238" style="stop-color:#E4881C"/>
		<stop  offset="0.6079" style="stop-color:#CC7919"/>
		<stop  offset="0.6962" style="stop-color:#AB6615"/>
		<stop  offset="0.7877" style="stop-color:#804C10"/>
		<stop  offset="0.882" style="stop-color:#4C2D09"/>
		<stop  offset="0.9768" style="stop-color:#100A02"/>
		<stop  offset="1" style="stop-color:#000000"/>
	</linearGradient>
	<rect x="31.5" y="51.5" class="st11" width="81" height="8"/>
	
		<linearGradient id="SVGID_9_" gradientUnits="userSpaceOnUse" x1="31.5" y1="533" x2="112.5" y2="533" gradientTransform="matrix(1 0 0 -1 0 600)">
		<stop  offset="0.3792" style="stop-color:#F7931E"/>
		<stop  offset="0.4457" style="stop-color:#F2901D"/>
		<stop  offset="0.5238" style="stop-color:#E4881C"/>
		<stop  offset="0.6079" style="stop-color:#CC7919"/>
		<stop  offset="0.6962" style="stop-color:#AB6615"/>
		<stop  offset="0.7877" style="stop-color:#804C10"/>
		<stop  offset="0.882" style="stop-color:#4C2D09"/>
		<stop  offset="0.9768" style="stop-color:#100A02"/>
		<stop  offset="1" style="stop-color:#000000"/>
	</linearGradient>
	<rect x="31.5" y="63.5" class="st12" width="81" height="7"/>
	
		<linearGradient id="SVGID_10_" gradientUnits="userSpaceOnUse" x1="31.5" y1="522" x2="112.5" y2="522" gradientTransform="matrix(1 0 0 -1 0 600)">
		<stop  offset="0.3792" style="stop-color:#F7931E"/>
		<stop  offset="0.4457" style="stop-color:#F2901D"/>
		<stop  offset="0.5238" style="stop-color:#E4881C"/>
		<stop  offset="0.6079" style="stop-color:#CC7919"/>
		<stop  offset="0.6962" style="stop-color:#AB6615"/>
		<stop  offset="0.7877" style="stop-color:#804C10"/>
		<stop  offset="0.882" style="stop-color:#4C2D09"/>
		<stop  offset="0.9768" style="stop-color:#100A02"/>
		<stop  offset="1" style="stop-color:#000000"/>
	</linearGradient>
	<rect x="31.5" y="74.5" class="st13" width="81" height="7"/>
	
		<linearGradient id="SVGID_11_" gradientUnits="userSpaceOnUse" x1="31.5" y1="514.5" x2="112.5" y2="514.5" gradientTransform="matrix(1 0 0 -1 0 600)">
		<stop  offset="0.3792" style="stop-color:#F7931E"/>
		<stop  offset="0.4457" style="stop-color:#F2901D"/>
		<stop  offset="0.5238" style="stop-color:#E4881C"/>
		<stop  offset="0.6079" style="stop-color:#CC7919"/>
		<stop  offset="0.6962" style="stop-color:#AB6615"/>
		<stop  offset="0.7877" style="stop-color:#804C10"/>
		<stop  offset="0.882" style="stop-color:#4C2D09"/>
		<stop  offset="0.9768" style="stop-color:#100A02"/>
		<stop  offset="1" style="stop-color:#000000"/>
	</linearGradient>
	<rect x="31.5" y="84.5" class="st14" width="81" height="2"/>
	
		<linearGradient id="SVGID_12_" gradientUnits="userSpaceOnUse" x1="34.3333" y1="554.6555" x2="34.3854" y2="551.9261" gradientTransform="matrix(1 0 0 -1 0 600)">
		<stop  offset="0" style="stop-color:#F2F2F2"/>
		<stop  offset="6.781822e-03" style="stop-color:#F1F1F1"/>
		<stop  offset="0.2196" style="stop-color:#DDDDDD"/>
		<stop  offset="0.4298" style="stop-color:#D0D0D0"/>
		<stop  offset="0.6328" style="stop-color:#CCCCCC"/>
	</linearGradient>
	<circle class="st15" cx="34.3" cy="46.2" r="1.2"/>
	
		<linearGradient id="SVGID_13_" gradientUnits="userSpaceOnUse" x1="34.3629" y1="547.7059" x2="34.4163" y2="544.9109" gradientTransform="matrix(1 0 0 -1 0 600)">
		<stop  offset="0" style="stop-color:#F2F2F2"/>
		<stop  offset="6.781822e-03" style="stop-color:#F1F1F1"/>
		<stop  offset="0.2196" style="stop-color:#DDDDDD"/>
		<stop  offset="0.4298" style="stop-color:#D0D0D0"/>
		<stop  offset="0.6328" style="stop-color:#CCCCCC"/>
	</linearGradient>
	<circle class="st16" cx="34.4" cy="53.2" r="1.3"/>
	
		<linearGradient id="SVGID_14_" gradientUnits="userSpaceOnUse" x1="34.3629" y1="543.7059" x2="34.4163" y2="540.9109" gradientTransform="matrix(1 0 0 -1 0 600)">
		<stop  offset="0" style="stop-color:#F2F2F2"/>
		<stop  offset="6.781822e-03" style="stop-color:#F1F1F1"/>
		<stop  offset="0.2196" style="stop-color:#DDDDDD"/>
		<stop  offset="0.4298" style="stop-color:#D0D0D0"/>
		<stop  offset="0.6328" style="stop-color:#CCCCCC"/>
	</linearGradient>
	<circle class="st17" cx="34.4" cy="57.2" r="1.3"/>
	
		<linearGradient id="SVGID_15_" gradientUnits="userSpaceOnUse" x1="34.3629" y1="535.7059" x2="34.4163" y2="532.9109" gradientTransform="matrix(1 0 0 -1 0 600)">
		<stop  offset="0" style="stop-color:#F2F2F2"/>
		<stop  offset="6.781822e-03" style="stop-color:#F1F1F1"/>
		<stop  offset="0.2196" style="stop-color:#DDDDDD"/>
		<stop  offset="0.4298" style="stop-color:#D0D0D0"/>
		<stop  offset="0.6328" style="stop-color:#CCCCCC"/>
	</linearGradient>
	<circle class="st18" cx="34.4" cy="65.2" r="1.3"/>
	
		<linearGradient id="SVGID_16_" gradientUnits="userSpaceOnUse" x1="34.3629" y1="531.7059" x2="34.4163" y2="528.9109" gradientTransform="matrix(1 0 0 -1 0 600)">
		<stop  offset="0" style="stop-color:#F2F2F2"/>
		<stop  offset="6.781822e-03" style="stop-color:#F1F1F1"/>
		<stop  offset="0.2196" style="stop-color:#DDDDDD"/>
		<stop  offset="0.4298" style="stop-color:#D0D0D0"/>
		<stop  offset="0.6328" style="stop-color:#CCCCCC"/>
	</linearGradient>
	<circle class="st19" cx="34.4" cy="69.2" r="1.3"/>
	
		<linearGradient id="SVGID_17_" gradientUnits="userSpaceOnUse" x1="34.3629" y1="524.7059" x2="34.4163" y2="521.9109" gradientTransform="matrix(1 0 0 -1 0 600)">
		<stop  offset="0" style="stop-color:#F2F2F2"/>
		<stop  offset="6.781822e-03" style="stop-color:#F1F1F1"/>
		<stop  offset="0.2196" style="stop-color:#DDDDDD"/>
		<stop  offset="0.4298" style="stop-color:#D0D0D0"/>
		<stop  offset="0.6328" style="stop-color:#CCCCCC"/>
	</linearGradient>
	<circle class="st20" cx="34.4" cy="76.2" r="1.3"/>
	
		<linearGradient id="SVGID_18_" gradientUnits="userSpaceOnUse" x1="34.3629" y1="520.7059" x2="34.4163" y2="517.9109" gradientTransform="matrix(1 0 0 -1 0 600)">
		<stop  offset="0" style="stop-color:#F2F2F2"/>
		<stop  offset="6.781822e-03" style="stop-color:#F1F1F1"/>
		<stop  offset="0.2196" style="stop-color:#DDDDDD"/>
		<stop  offset="0.4298" style="stop-color:#D0D0D0"/>
		<stop  offset="0.6328" style="stop-color:#CCCCCC"/>
	</linearGradient>
	<circle class="st21" cx="34.4" cy="80.2" r="1.3"/>
	
		<linearGradient id="SVGID_19_" gradientUnits="userSpaceOnUse" x1="108.2001" y1="553.7905" x2="110.7217" y2="553.7711" gradientTransform="matrix(1 0 0 -1 0 600)">
		<stop  offset="0" style="stop-color:#F2F2F2"/>
		<stop  offset="6.740000e-02" style="stop-color:#D9D9D9"/>
		<stop  offset="0.2575" style="stop-color:#989898"/>
		<stop  offset="0.4385" style="stop-color:#626262"/>
		<stop  offset="0.6056" style="stop-color:#373737"/>
		<stop  offset="0.7557" style="stop-color:#191919"/>
		<stop  offset="0.8836" style="stop-color:#070707"/>
		<stop  offset="0.9741" style="stop-color:#000000"/>
	</linearGradient>
	<circle class="st22" cx="109.6" cy="46.2" r="1.2"/>
	
		<linearGradient id="SVGID_20_" gradientUnits="userSpaceOnUse" x1="108.0166" y1="546.8205" x2="110.5382" y2="546.8011" gradientTransform="matrix(1 0 0 -1 0 600)">
		<stop  offset="0" style="stop-color:#F2F2F2"/>
		<stop  offset="6.740000e-02" style="stop-color:#D9D9D9"/>
		<stop  offset="0.2575" style="stop-color:#989898"/>
		<stop  offset="0.4385" style="stop-color:#626262"/>
		<stop  offset="0.6056" style="stop-color:#373737"/>
		<stop  offset="0.7557" style="stop-color:#191919"/>
		<stop  offset="0.8836" style="stop-color:#070707"/>
		<stop  offset="0.9741" style="stop-color:#000000"/>
	</linearGradient>
	<circle class="st23" cx="109.4" cy="53.2" r="1.2"/>
	
		<linearGradient id="SVGID_21_" gradientUnits="userSpaceOnUse" x1="108.0166" y1="542.8205" x2="110.5382" y2="542.8011" gradientTransform="matrix(1 0 0 -1 0 600)">
		<stop  offset="0" style="stop-color:#F2F2F2"/>
		<stop  offset="6.740000e-02" style="stop-color:#D9D9D9"/>
		<stop  offset="0.2575" style="stop-color:#989898"/>
		<stop  offset="0.4385" style="stop-color:#626262"/>
		<stop  offset="0.6056" style="stop-color:#373737"/>
		<stop  offset="0.7557" style="stop-color:#191919"/>
		<stop  offset="0.8836" style="stop-color:#070707"/>
		<stop  offset="0.9741" style="stop-color:#000000"/>
	</linearGradient>
	<circle class="st24" cx="109.4" cy="57.2" r="1.2"/>
	
		<linearGradient id="SVGID_22_" gradientUnits="userSpaceOnUse" x1="108.0166" y1="534.8205" x2="110.5382" y2="534.8011" gradientTransform="matrix(1 0 0 -1 0 600)">
		<stop  offset="0" style="stop-color:#F2F2F2"/>
		<stop  offset="6.740000e-02" style="stop-color:#D9D9D9"/>
		<stop  offset="0.2575" style="stop-color:#989898"/>
		<stop  offset="0.4385" style="stop-color:#626262"/>
		<stop  offset="0.6056" style="stop-color:#373737"/>
		<stop  offset="0.7557" style="stop-color:#191919"/>
		<stop  offset="0.8836" style="stop-color:#070707"/>
		<stop  offset="0.9741" style="stop-color:#000000"/>
	</linearGradient>
	<circle class="st25" cx="109.4" cy="65.2" r="1.2"/>
	
		<linearGradient id="SVGID_23_" gradientUnits="userSpaceOnUse" x1="108.0166" y1="530.8205" x2="110.5382" y2="530.8011" gradientTransform="matrix(1 0 0 -1 0 600)">
		<stop  offset="0" style="stop-color:#F2F2F2"/>
		<stop  offset="6.740000e-02" style="stop-color:#D9D9D9"/>
		<stop  offset="0.2575" style="stop-color:#989898"/>
		<stop  offset="0.4385" style="stop-color:#626262"/>
		<stop  offset="0.6056" style="stop-color:#373737"/>
		<stop  offset="0.7557" style="stop-color:#191919"/>
		<stop  offset="0.8836" style="stop-color:#070707"/>
		<stop  offset="0.9741" style="stop-color:#000000"/>
	</linearGradient>
	<circle class="st26" cx="109.4" cy="69.2" r="1.2"/>
	
		<linearGradient id="SVGID_24_" gradientUnits="userSpaceOnUse" x1="108.0166" y1="523.8205" x2="110.5382" y2="523.8011" gradientTransform="matrix(1 0 0 -1 0 600)">
		<stop  offset="0" style="stop-color:#F2F2F2"/>
		<stop  offset="6.740000e-02" style="stop-color:#D9D9D9"/>
		<stop  offset="0.2575" style="stop-color:#989898"/>
		<stop  offset="0.4385" style="stop-color:#626262"/>
		<stop  offset="0.6056" style="stop-color:#373737"/>
		<stop  offset="0.7557" style="stop-color:#191919"/>
		<stop  offset="0.8836" style="stop-color:#070707"/>
		<stop  offset="0.9741" style="stop-color:#000000"/>
	</linearGradient>
	<circle class="st27" cx="109.4" cy="76.2" r="1.2"/>
	
		<linearGradient id="SVGID_25_" gradientUnits="userSpaceOnUse" x1="108.0166" y1="519.8205" x2="110.5382" y2="519.8011" gradientTransform="matrix(1 0 0 -1 0 600)">
		<stop  offset="0" style="stop-color:#F2F2F2"/>
		<stop  offset="6.740000e-02" style="stop-color:#D9D9D9"/>
		<stop  offset="0.2575" style="stop-color:#989898"/>
		<stop  offset="0.4385" style="stop-color:#626262"/>
		<stop  offset="0.6056" style="stop-color:#373737"/>
		<stop  offset="0.7557" style="stop-color:#191919"/>
		<stop  offset="0.8836" style="stop-color:#070707"/>
		<stop  offset="0.9741" style="stop-color:#000000"/>
	</linearGradient>
	<circle class="st28" cx="109.4" cy="80.2" r="1.2"/>
	
		<linearGradient id="SVGID_26_" gradientUnits="userSpaceOnUse" x1="38.6433" y1="558.8052" x2="38.6954" y2="556.0762" gradientTransform="matrix(1 0 0 -1 0 600)">
		<stop  offset="0" style="stop-color:#F2F2F2"/>
		<stop  offset="4.370000e-02" style="stop-color:#E8EDED"/>
		<stop  offset="0.194" style="stop-color:#CBDFDF"/>
		<stop  offset="0.3435" style="stop-color:#B7D4D4"/>
		<stop  offset="0.4907" style="stop-color:#AACECE"/>
		<stop  offset="0.6328" style="stop-color:#A6CCCC"/>
	</linearGradient>
	<circle class="st29" cx="38.7" cy="42.1" r="1.2"/>
	
		<linearGradient id="SVGID_27_" gradientUnits="userSpaceOnUse" x1="45.5532" y1="561.7271" x2="45.6054" y2="558.9983" gradientTransform="matrix(1 0 0 -1 0 600)">
		<stop  offset="0" style="stop-color:#F2F2F2"/>
		<stop  offset="4.370000e-02" style="stop-color:#E8EDED"/>
		<stop  offset="0.194" style="stop-color:#CBDFDF"/>
		<stop  offset="0.3435" style="stop-color:#B7D4D4"/>
		<stop  offset="0.4907" style="stop-color:#AACECE"/>
		<stop  offset="0.6328" style="stop-color:#A6CCCC"/>
	</linearGradient>
	<circle class="st30" cx="45.6" cy="39.2" r="1.2"/>
	
		<linearGradient id="SVGID_28_" gradientUnits="userSpaceOnUse" x1="51.5532" y1="563.7271" x2="51.6054" y2="560.9983" gradientTransform="matrix(1 0 0 -1 0 600)">
		<stop  offset="0" style="stop-color:#F2F2F2"/>
		<stop  offset="4.370000e-02" style="stop-color:#E8EDED"/>
		<stop  offset="0.194" style="stop-color:#CBDFDF"/>
		<stop  offset="0.3435" style="stop-color:#B7D4D4"/>
		<stop  offset="0.4907" style="stop-color:#AACECE"/>
		<stop  offset="0.6328" style="stop-color:#A6CCCC"/>
	</linearGradient>
	<circle class="st31" cx="51.6" cy="37.2" r="1.2"/>
	
		<linearGradient id="SVGID_29_" gradientUnits="userSpaceOnUse" x1="57.5532" y1="565.7271" x2="57.6054" y2="562.9983" gradientTransform="matrix(1 0 0 -1 0 600)">
		<stop  offset="0" style="stop-color:#F2F2F2"/>
		<stop  offset="4.370000e-02" style="stop-color:#E8EDED"/>
		<stop  offset="0.194" style="stop-color:#CBDFDF"/>
		<stop  offset="0.3435" style="stop-color:#B7D4D4"/>
		<stop  offset="0.4907" style="stop-color:#AACECE"/>
		<stop  offset="0.6328" style="stop-color:#A6CCCC"/>
	</linearGradient>
	<circle class="st32" cx="57.6" cy="35.2" r="1.2"/>
	
		<linearGradient id="SVGID_30_" gradientUnits="userSpaceOnUse" x1="63.5532" y1="566.7271" x2="63.6054" y2="563.9983" gradientTransform="matrix(1 0 0 -1 0 600)">
		<stop  offset="0" style="stop-color:#F2F2F2"/>
		<stop  offset="4.370000e-02" style="stop-color:#E8EDED"/>
		<stop  offset="0.194" style="stop-color:#CBDFDF"/>
		<stop  offset="0.3435" style="stop-color:#B7D4D4"/>
		<stop  offset="0.4907" style="stop-color:#AACECE"/>
		<stop  offset="0.6328" style="stop-color:#A6CCCC"/>
	</linearGradient>
	<circle class="st33" cx="63.6" cy="34.2" r="1.2"/>
	
		<linearGradient id="SVGID_31_" gradientUnits="userSpaceOnUse" x1="69.5532" y1="567.7271" x2="69.6054" y2="564.9983" gradientTransform="matrix(1 0 0 -1 0 600)">
		<stop  offset="0" style="stop-color:#F2F2F2"/>
		<stop  offset="4.370000e-02" style="stop-color:#E8EDED"/>
		<stop  offset="0.194" style="stop-color:#CBDFDF"/>
		<stop  offset="0.3435" style="stop-color:#B7D4D4"/>
		<stop  offset="0.4907" style="stop-color:#AACECE"/>
		<stop  offset="0.6328" style="stop-color:#A6CCCC"/>
	</linearGradient>
	<circle class="st34" cx="69.6" cy="33.2" r="1.2"/>
	
		<linearGradient id="SVGID_32_" gradientUnits="userSpaceOnUse" x1="74.9966" y1="566.8687" x2="77.7245" y2="566.7798" gradientTransform="matrix(1 0 0 -1 0 600)">
		<stop  offset="0" style="stop-color:#F2F2F2"/>
		<stop  offset="0.1193" style="stop-color:#EEEEEE"/>
		<stop  offset="0.2472" style="stop-color:#E1E1E1"/>
		<stop  offset="0.3792" style="stop-color:#CBCBCB"/>
		<stop  offset="0.5139" style="stop-color:#ADADAD"/>
		<stop  offset="0.6508" style="stop-color:#878787"/>
		<stop  offset="0.7895" style="stop-color:#575757"/>
		<stop  offset="0.9271" style="stop-color:#202020"/>
		<stop  offset="1" style="stop-color:#000000"/>
	</linearGradient>
	<circle class="st35" cx="75.6" cy="33.2" r="1.2"/>
	
		<linearGradient id="SVGID_33_" gradientUnits="userSpaceOnUse" x1="79.5599" y1="565.8731" x2="82.2886" y2="565.8106" gradientTransform="matrix(1 0 0 -1 0 600)">
		<stop  offset="0" style="stop-color:#F2F2F2"/>
		<stop  offset="8.820000e-02" style="stop-color:#E9E9E9"/>
		<stop  offset="0.2339" style="stop-color:#D0D0D0"/>
		<stop  offset="0.419" style="stop-color:#A7A7A7"/>
		<stop  offset="0.6363" style="stop-color:#6E6E6E"/>
		<stop  offset="0.878" style="stop-color:#272727"/>
		<stop  offset="1" style="stop-color:#000000"/>
	</linearGradient>
	<circle class="st36" cx="80.6" cy="34.2" r="1.2"/>
	
		<linearGradient id="SVGID_34_" gradientUnits="userSpaceOnUse" x1="84.1413" y1="564.8354" x2="86.8705" y2="564.8632" gradientTransform="matrix(1 0 0 -1 0 600)">
		<stop  offset="0" style="stop-color:#F2F2F2"/>
		<stop  offset="0.2284" style="stop-color:#EFEFEF"/>
		<stop  offset="0.3669" style="stop-color:#E7E7E7"/>
		<stop  offset="0.4813" style="stop-color:#D9D9D9"/>
		<stop  offset="0.5827" style="stop-color:#C4C4C4"/>
		<stop  offset="0.6755" style="stop-color:#AAAAAA"/>
		<stop  offset="0.762" style="stop-color:#898989"/>
		<stop  offset="0.8436" style="stop-color:#636363"/>
		<stop  offset="0.9214" style="stop-color:#363636"/>
		<stop  offset="0.9935" style="stop-color:#050505"/>
		<stop  offset="1" style="stop-color:#000000"/>
	</linearGradient>
	<circle class="st37" cx="85.6" cy="35.2" r="1.2"/>
	
		<linearGradient id="SVGID_35_" gradientUnits="userSpaceOnUse" x1="88.8406" y1="563.8778" x2="91.5696" y2="563.8339" gradientTransform="matrix(1 0 0 -1 0 600)">
		<stop  offset="0" style="stop-color:#F2F2F2"/>
		<stop  offset="0.2055" style="stop-color:#EFEFEF"/>
		<stop  offset="0.3425" style="stop-color:#E6E6E6"/>
		<stop  offset="0.4596" style="stop-color:#D7D7D7"/>
		<stop  offset="0.5654" style="stop-color:#C2C2C2"/>
		<stop  offset="0.6637" style="stop-color:#A6A6A6"/>
		<stop  offset="0.7565" style="stop-color:#848484"/>
		<stop  offset="0.8449" style="stop-color:#5C5C5C"/>
		<stop  offset="0.9276" style="stop-color:#2E2E2E"/>
		<stop  offset="1" style="stop-color:#000000"/>
	</linearGradient>
	<circle class="st38" cx="90.6" cy="36.2" r="1.2"/>
	
		<linearGradient id="SVGID_36_" gradientUnits="userSpaceOnUse" x1="93.9042" y1="561.8372" x2="96.6335" y2="561.8582" gradientTransform="matrix(1 0 0 -1 0 600)">
		<stop  offset="0" style="stop-color:#F2F2F2"/>
		<stop  offset="0.1528" style="stop-color:#EFEFEF"/>
		<stop  offset="0.2846" style="stop-color:#E4E4E4"/>
		<stop  offset="0.4086" style="stop-color:#D2D2D2"/>
		<stop  offset="0.5279" style="stop-color:#B9B9B9"/>
		<stop  offset="0.6438" style="stop-color:#999999"/>
		<stop  offset="0.7571" style="stop-color:#717171"/>
		<stop  offset="0.8684" style="stop-color:#424242"/>
		<stop  offset="0.9755" style="stop-color:#0D0D0D"/>
		<stop  offset="1" style="stop-color:#000000"/>
	</linearGradient>
	<circle class="st39" cx="95.6" cy="38.2" r="1.2"/>
	
		<linearGradient id="SVGID_37_" gradientUnits="userSpaceOnUse" x1="97.9673" y1="559.9091" x2="100.6948" y2="559.8085" gradientTransform="matrix(1 0 0 -1 0 600)">
		<stop  offset="0" style="stop-color:#F2F2F2"/>
		<stop  offset="9.010001e-02" style="stop-color:#E7E7E7"/>
		<stop  offset="0.2497" style="stop-color:#C9C9C9"/>
		<stop  offset="0.4601" style="stop-color:#989898"/>
		<stop  offset="0.7133" style="stop-color:#555555"/>
		<stop  offset="1" style="stop-color:#000000"/>
	</linearGradient>
	<circle class="st40" cx="99.6" cy="40.2" r="1.2"/>
	
		<linearGradient id="SVGID_38_" gradientUnits="userSpaceOnUse" x1="102.9762" y1="557.8823" x2="105.705" y2="557.827" gradientTransform="matrix(1 0 0 -1 0 600)">
		<stop  offset="0" style="stop-color:#F2F2F2"/>
		<stop  offset="4.349649e-03" style="stop-color:#F1F1F1"/>
		<stop  offset="0.2895" style="stop-color:#9C9C9C"/>
		<stop  offset="0.5415" style="stop-color:#595959"/>
		<stop  offset="0.7509" style="stop-color:#292929"/>
		<stop  offset="0.91" style="stop-color:#0B0B0B"/>
		<stop  offset="1" style="stop-color:#000000"/>
	</linearGradient>
	<circle class="st41" cx="104.6" cy="42.2" r="1.2"/>
</g>
<g id="Слой_2_1_" class="st1">
	<path class="st42" d="M71,75.7"/>
	<path class="st42" d="M71,75.7c-6.1,0-11-4.9-11-11s4.9-11,11-11s11,4.9,11,11S77.1,75.7,71,75.7"/>
	<path class="st43" d="M66,70.4c1.8,2.1,4.3,2.8,6.1,1.9c1.2-0.6,2.5-1.9,2.4-3.4c-0.1-2.1-3-3.3-3.3-3.4c-1.9-0.8-3,0-3.8-1
		c-0.8-0.9-0.4-2.6,0-3.4c0.1-0.3,0.7-1.4,1.9-2c1.3-0.6,2.5-0.1,2.8,0c1.1,0.4,1.7,1.1,1.9,1.5"/>
	<line class="st43" x1="72.6" y1="56.2" x2="71.2" y2="74.2"/>
	<line class="st43" x1="70.3" y1="56.2" x2="68.4" y2="74.2"/>
</g>
<g id="Слой_5">
	<polygon class="st44" points="422.4,54.1 397.1,80.1 404,115.8 371.5,99.6 339.7,117.4 345,81.4 318.3,56.7 354.2,50.5 369.4,17.5 
		386.3,49.7 	"/>
</g>
<g id="Слой_7">
	
		<linearGradient id="SVGID_39_" gradientUnits="userSpaceOnUse" x1="706.3894" y1="331.1149" x2="713.3145" y2="331.1149" gradientTransform="matrix(0.671 -0.7414 -0.7414 -0.671 293.6832 999.2367)">
		<stop  offset="1" style="stop-color:#FFFF00"/>
		<stop  offset="1" style="stop-color:#FDFF00"/>
		<stop  offset="1" style="stop-color:#F6FF01"/>
		<stop  offset="1" style="stop-color:#EBFF02"/>
		<stop  offset="1" style="stop-color:#DAFF04"/>
		<stop  offset="1" style="stop-color:#C4FF06"/>
		<stop  offset="1" style="stop-color:#A8FF09"/>
		<stop  offset="1" style="stop-color:#88FF0C"/>
		<stop  offset="1" style="stop-color:#63FF10"/>
		<stop  offset="1" style="stop-color:#3AFF15"/>
		<stop  offset="1" style="stop-color:#36FF15"/>
	</linearGradient>
	<polygon class="st45" points="537.6,267.2 542.3,262.1 511.4,234.2 506.8,239.3 	"/>
	
		<linearGradient id="SVGID_40_" gradientUnits="userSpaceOnUse" x1="699.0538" y1="336.565" x2="705.9788" y2="336.565" gradientTransform="matrix(0.671 -0.7414 -0.7414 -0.671 293.6832 999.2367)">
		<stop  offset="1" style="stop-color:#FFFF00"/>
		<stop  offset="1" style="stop-color:#FDFF00"/>
		<stop  offset="1" style="stop-color:#F6FF01"/>
		<stop  offset="1" style="stop-color:#EBFF02"/>
		<stop  offset="1" style="stop-color:#DAFF04"/>
		<stop  offset="1" style="stop-color:#C4FF06"/>
		<stop  offset="1" style="stop-color:#A8FF09"/>
		<stop  offset="1" style="stop-color:#88FF0C"/>
		<stop  offset="1" style="stop-color:#63FF10"/>
		<stop  offset="1" style="stop-color:#3AFF15"/>
		<stop  offset="1" style="stop-color:#36FF15"/>
	</linearGradient>
	<polygon class="st46" points="528.7,269 533.3,263.9 502.5,236 497.8,241.2 	"/>
	
		<linearGradient id="SVGID_41_" gradientUnits="userSpaceOnUse" x1="691.684" y1="331.8847" x2="698.609" y2="331.8847" gradientTransform="matrix(0.671 -0.7414 -0.7414 -0.671 293.6832 999.2367)">
		<stop  offset="1" style="stop-color:#FFFF00"/>
		<stop  offset="1" style="stop-color:#FDFF00"/>
		<stop  offset="1" style="stop-color:#F6FF01"/>
		<stop  offset="1" style="stop-color:#EBFF02"/>
		<stop  offset="1" style="stop-color:#DAFF04"/>
		<stop  offset="1" style="stop-color:#C4FF06"/>
		<stop  offset="1" style="stop-color:#A8FF09"/>
		<stop  offset="1" style="stop-color:#88FF0C"/>
		<stop  offset="1" style="stop-color:#63FF10"/>
		<stop  offset="1" style="stop-color:#3AFF15"/>
		<stop  offset="1" style="stop-color:#36FF15"/>
	</linearGradient>
	<polygon class="st47" points="527.2,277.7 531.8,272.5 501,244.6 496.4,249.7 	"/>
	
		<linearGradient id="SVGID_42_" gradientUnits="userSpaceOnUse" x1="684.3483" y1="337.3383" x2="691.2733" y2="337.3383" gradientTransform="matrix(0.671 -0.7414 -0.7414 -0.671 293.6832 999.2367)">
		<stop  offset="1" style="stop-color:#FFFF00"/>
		<stop  offset="1" style="stop-color:#FDFF00"/>
		<stop  offset="1" style="stop-color:#F6FF01"/>
		<stop  offset="1" style="stop-color:#EBFF02"/>
		<stop  offset="1" style="stop-color:#DAFF04"/>
		<stop  offset="1" style="stop-color:#C4FF06"/>
		<stop  offset="1" style="stop-color:#A8FF09"/>
		<stop  offset="1" style="stop-color:#88FF0C"/>
		<stop  offset="1" style="stop-color:#63FF10"/>
		<stop  offset="1" style="stop-color:#3AFF15"/>
		<stop  offset="1" style="stop-color:#36FF15"/>
	</linearGradient>
	<polygon class="st48" points="518.2,279.4 522.9,274.3 492.1,246.4 487.4,251.5 	"/>
	
		<linearGradient id="SVGID_43_" gradientUnits="userSpaceOnUse" x1="677.7089" y1="333.0149" x2="684.634" y2="333.0149" gradientTransform="matrix(0.671 -0.7414 -0.7414 -0.671 293.6832 999.2367)">
		<stop  offset="1" style="stop-color:#FFFF00"/>
		<stop  offset="1" style="stop-color:#FDFF00"/>
		<stop  offset="1" style="stop-color:#F6FF01"/>
		<stop  offset="1" style="stop-color:#EBFF02"/>
		<stop  offset="1" style="stop-color:#DAFF04"/>
		<stop  offset="1" style="stop-color:#C4FF06"/>
		<stop  offset="1" style="stop-color:#A8FF09"/>
		<stop  offset="1" style="stop-color:#88FF0C"/>
		<stop  offset="1" style="stop-color:#63FF10"/>
		<stop  offset="1" style="stop-color:#3AFF15"/>
		<stop  offset="1" style="stop-color:#36FF15"/>
	</linearGradient>
	<polygon class="st49" points="516.9,287.2 521.6,282.1 490.8,254.2 486.2,259.4 	"/>
	
		<linearGradient id="SVGID_44_" gradientUnits="userSpaceOnUse" x1="670.3732" y1="338.4635" x2="677.2983" y2="338.4635" gradientTransform="matrix(0.671 -0.7414 -0.7414 -0.671 293.6832 999.2367)">
		<stop  offset="1" style="stop-color:#FFFF00"/>
		<stop  offset="1" style="stop-color:#FDFF00"/>
		<stop  offset="1" style="stop-color:#F6FF01"/>
		<stop  offset="1" style="stop-color:#EBFF02"/>
		<stop  offset="1" style="stop-color:#DAFF04"/>
		<stop  offset="1" style="stop-color:#C4FF06"/>
		<stop  offset="1" style="stop-color:#A8FF09"/>
		<stop  offset="1" style="stop-color:#88FF0C"/>
		<stop  offset="1" style="stop-color:#63FF10"/>
		<stop  offset="1" style="stop-color:#3AFF15"/>
		<stop  offset="1" style="stop-color:#36FF15"/>
	</linearGradient>
	<polygon class="st50" points="508,289 512.7,283.9 481.8,256 477.2,261.1 	"/>
</g>
<g id="Слой_8">
	
		<linearGradient id="SVGID_45_" gradientUnits="userSpaceOnUse" x1="421.6993" y1="295.9194" x2="858.0074" y2="295.9194" gradientTransform="matrix(0.4089 -0.4003 -1.1493 -1.174 505.0538 884.7177)">
		<stop  offset="1" style="stop-color:#FFFF00"/>
		<stop  offset="1" style="stop-color:#FDFF00"/>
		<stop  offset="1" style="stop-color:#F6FF01"/>
		<stop  offset="1" style="stop-color:#EBFF02"/>
		<stop  offset="1" style="stop-color:#DAFF04"/>
		<stop  offset="1" style="stop-color:#C4FF06"/>
		<stop  offset="1" style="stop-color:#A8FF09"/>
		<stop  offset="1" style="stop-color:#88FF0C"/>
		<stop  offset="1" style="stop-color:#63FF10"/>
		<stop  offset="1" style="stop-color:#3AFF15"/>
		<stop  offset="1" style="stop-color:#36FF15"/>
	</linearGradient>
	<path class="st51" d="M519.5,230L373.4,373c-8.9,8.8-23.2,8.6-32-0.3l-8.1-8.3c-8.8-8.9-8.6-23.2,0.3-32l146.1-143
		c8.9-8.8,23.2-8.6,32,0.3l8.1,8.3C528.6,206.9,528.4,221.2,519.5,230z"/>
	<g>
		<g>
			<path class="st52" d="M481.1,206.4c3.5,0,3.5-5.5,0-5.5S477.6,206.4,481.1,206.4L481.1,206.4z"/>
		</g>
	</g>
	<g>
		<g>
			<path class="st53" d="M346.3,340c36.7-34.6,73.3-69.1,110-103.6c10.5-9.9,20.9-19.7,31.3-29.6c2.6-2.4-1.3-6.3-3.9-3.9
				c-36.7,34.6-73.3,69.1-110,103.6c-10.5,9.9-20.9,19.7-31.3,29.6C339.8,338.5,343.7,342.4,346.3,340L346.3,340z"/>
		</g>
	</g>
</g>
<g id="Слой_6">
	
		<linearGradient id="SVGID_46_" gradientUnits="userSpaceOnUse" x1="245.2747" y1="188.9976" x2="397.6211" y2="188.9976" gradientTransform="matrix(0.9925 0.1222 0.1222 -0.9925 -27.0065 541.9286)">
		<stop  offset="1" style="stop-color:#FFFF00"/>
		<stop  offset="1" style="stop-color:#FDFF00"/>
		<stop  offset="1" style="stop-color:#F6FF01"/>
		<stop  offset="1" style="stop-color:#EBFF02"/>
		<stop  offset="1" style="stop-color:#DAFF04"/>
		<stop  offset="1" style="stop-color:#C4FF06"/>
		<stop  offset="1" style="stop-color:#A8FF09"/>
		<stop  offset="1" style="stop-color:#88FF0C"/>
		<stop  offset="1" style="stop-color:#63FF10"/>
		<stop  offset="1" style="stop-color:#3AFF15"/>
		<stop  offset="1" style="stop-color:#36FF15"/>
	</linearGradient>
	<path class="st54" d="M381.4,362.3c-3.7,7.6-11.3,13.2-22.3,11.8c-0.2,0-0.3-0.1-0.5-0.1c-0.5,0.1-1,0.2-1.5,0.2
		c11.2,29.7-7.3,71.4-48.4,66.3c-60.7-7.5-49-101.7,11.6-94.2c4.9,0.6,9.2,1.9,13.3,3.5c0.1-1,0.4-1.9,0.6-2.9
		c-0.4-6.1,1.2-12.3,4.8-17.1c-5-1.7-10.1-2.9-15.6-3.6c-41.7-5.1-79.3,20.9-83.9,58.2s25.5,71.7,67.3,76.8
		c41.8,5.1,79.3-20.9,83.9-58.2C392.5,388.4,388.9,374.4,381.4,362.3z"/>
</g>
<g id="Слой_9">
	<polygon class="st55" points="306.3,342.7 302.4,340.5 298.4,342.5 299.2,338.1 296,334.8 300.5,334.3 302.6,330.3 304.5,334.3 
		309,335.1 305.7,338.2 	"/>
	<polygon class="st55" points="284.1,353.9 280.1,351.7 276,353.7 276.9,349.3 273.7,346.1 278.2,345.5 280.3,341.5 282.2,345.6 
		286.6,346.3 283.4,349.4 	"/>
	<polygon class="st55" points="267.8,372.8 263.8,370.6 259.8,372.7 260.6,368.2 257.4,365 261.9,364.4 264,360.4 265.9,364.5 
		270.4,365.2 267.1,368.3 	"/>
	<polygon class="st55" points="258.3,392.6 254.4,390.4 250.4,392.4 251.2,388 248,384.8 252.5,384.2 254.6,380.2 256.5,384.3 
		261,385 257.7,388.1 	"/>
	<polygon class="st55" points="262.7,414.1 258.7,411.8 254.7,413.9 255.5,409.4 252.3,406.2 256.9,405.7 258.9,401.7 260.8,405.7 
		265.3,406.5 262,409.6 	"/>
	<polygon class="st55" points="273.9,436.3 269.9,434.2 265.9,436.2 266.7,431.8 263.6,428.5 268,428 270.1,424 272.1,428 
		276.5,428.8 273.2,431.9 	"/>
	<polygon class="st55" points="292.8,452.6 288.8,450.4 284.8,452.5 285.7,448 282.5,444.8 287,444.3 289.1,440.3 291,444.3 
		295.4,445 292.1,448.2 	"/>
	<polygon class="st55" points="320.3,456 316.4,453.8 312.3,455.9 313.2,451.4 310,448.2 314.5,447.6 316.5,443.6 318.5,447.7 
		322.9,448.5 319.6,451.5 	"/>
	<polygon class="st55" points="364.1,440.5 360.1,438.3 356.1,440.3 356.9,435.9 353.7,432.7 358.3,432.1 360.3,428.1 362.3,432.2 
		366.7,432.9 363.4,436 	"/>
	<polygon class="st55" points="373.5,420.7 369.5,418.5 365.5,420.5 366.3,416.1 363.2,412.9 367.7,412.3 369.8,408.3 371.7,412.4 
		376.1,413.1 372.8,416.3 	"/>
	<polygon class="st55" points="376,400.1 372.1,397.9 368.1,399.9 368.9,395.5 365.7,392.3 370.2,391.7 372.3,387.7 374.2,391.8 
		378.7,392.5 375.4,395.6 	"/>
	<polygon class="st55" points="396.2,345.2 391.9,346.7 390.7,351 388,347.4 383.5,347.6 386.1,343.9 384.6,339.6 388.9,341 
		392.4,338.2 392.5,342.7 	"/>
	<polygon class="st55" points="410,332.4 405.7,333.6 404.2,337.9 401.7,334.1 397.2,334 400,330.4 398.8,326.1 402.9,327.7 
		406.7,325.2 406.5,329.7 	"/>
	<polygon class="st55" points="341.8,451.7 337.8,449.5 333.8,451.5 334.6,447.1 331.4,443.9 336,443.3 338,439.3 339.9,443.4 
		344.4,444.1 341.1,447.2 	"/>
	<polygon class="st55" points="423.5,318.3 419.2,319.7 418,324.1 415.3,320.4 410.8,320.5 413.4,316.9 411.8,312.6 416.2,314 
		419.7,311.2 419.7,315.7 	"/>
	<polygon class="st55" points="437.3,305.4 432.9,306.6 431.5,310.9 429,307.1 424.5,307 427.3,303.5 426,299.1 430.3,300.7 
		433.9,298.2 433.7,302.7 	"/>
</g>
</svg>
