<?xml version="1.0" encoding="utf-8"?>
<!-- Generator: Adobe Illustrator 24.0.2, SVG Export Plug-In . SVG Version: 6.00 Build 0)  -->
<svg version="1.1" id="Слой_1"
	xmlns="http://www.w3.org/2000/svg"
	xmlns:xlink="http://www.w3.org/1999/xlink" x="0px" y="0px" viewBox="0 0 1920 1330" style="enable-background:new 0 0 1920 1330;" xml:space="preserve">
	<style type="text/css">
	.st0{stroke:#000000;stroke-width:5;stroke-miterlimit:10;}
	.st1{fill:#A67C52;stroke:#000000;stroke-width:5;stroke-miterlimit:10;}
	.st2{fill:#603813;}
	.st3{fill:#C69C6D;stroke:#000000;stroke-width:5;stroke-miterlimit:10;}
	.st4{fill:#FFFFFF;stroke:#000000;stroke-width:5;stroke-miterlimit:10;}
	</style>
	<rect x="-0.3" y="0" class="st0" width="1920.8" height="1330"/>
	<path class="st1" d="M166.8,61.8h295.1l24,32.4l25-32.4h90l36,16l45-16H862l29,65.2l24-65.2h237.1l16,32.4l78-32.4h294.1l21,32.4
	l57-32.4h122l9,1143.5l-165.1,3.9l-57-32.8l-21,32.8h-294.1l-78-32.8l-16,32.8H881l-21-72.1l-32,72.1H648l-45-19l-36,18.6h-90
	l-25-40.2l-21,40.2l-271.1,0.4C159.8,1209.1,206.8,70,166.8,61.8z"/>
	<polygon class="st2" points="440.4,61.5 461.4,62.2 485.8,102.6 "/>
	<polygon class="st2" points="558.7,62.6 637.2,82.4 600.7,62.8 "/>
	<polygon class="st2" points="805.5,62.8 891.5,132.8 859.5,62.8 "/>
	<polyline class="st2" points="1105.6,62.8 1166.7,96.1 1149.7,62.8 "/>
	<polyline class="st2" points="1482.8,62.8 1559.8,96.5 1537.8,62.8 "/>
	<polyline class="st2" points="359.3,1207.6 451.4,1164 429.4,1207.6 "/>
	<polyline class="st2" points="550.4,1207.6 603.4,1188.6 566.4,1207.6 "/>
	<polyline class="st2" points="789.5,1207.6 860.5,1129.9 825.5,1207.6 "/>
	<polyline class="st2" points="1075.6,1207.6 1132.6,1174.3 1116.6,1207.6 "/>
	<polyline class="st2" points="1467.8,1207.6 1526.8,1173.9 1504.8,1207.6 "/>
	<g>
		<path class="st3" d="M36.7,61.8c0,0,73-51.4,122-19.4s1,1157.3,1,1157.3s6,54.8-68,35.4S36.7,61.8,36.7,61.8z"/>
		<path class="st4" d="M156.8,1217.3c-53,0-78.3,0.1-78.3,0.1"/>
		<path class="st4" d="M36.7,63c1.2-3.7,0,3.9,130.3-1.3h294.8l24,37.1l25-37.1h90l36,18.6l45-18.6H862l29,65.2l24-65.2h237.1
		l16,32.4l78-32.4h294.1l21,32.4l57-32.4h122.4c93.8,10.4,132.3,0,132.3,0"/>
		<path class="st0" d="M159.3,1209.1l271.6-0.4l21-37.1l25,37.1h90l36-18.6l45,18.6H828l29-65.2l24,65.2h237.1l16-32.4l78,32.4h294.1
		l21-32.4l57,32.4h122.4c93.8-10.4,126.7-0.9,126.7-0.9"/>
		<path class="st4" d="M135.8,1208.7"/>
		<path class="st3" d="M1871,61.8c0,0-73-51.4-122-19.4c-49,32,0,1181.9,0,1181.9s-7,30.2,67,10.8S1871,61.8,1871,61.8z"/>
		<path class="st4" d="M1829.3,1217.4c0,0-37.9-0.1-80.3-0.1"/>
	</g>
	<polyline class="st0" points="1740.7,61.8 1618.3,61.8 1561.3,94.1 1540.3,61.8 1246.2,61.8 1168.2,94.1 1152.2,61.8 915.1,61.8 
	891,127 862,61.8 682,61.8 636.9,80.3 600.9,61.8 510.9,61.8 485.9,98.9 461.9,61.8 166.8,61.8 "/>
	<path class="st4" d="M474.9,167.1"/>
	<path class="st2" d="M167.3,61.5c0,0-61,1123.6-10,1155.5"/>
	<path class="st2" d="M135.8,62.6"/>
	<path class="st2" d="M70.2,62.8c0,0,47,1158.6,8,1154.7"/>
	<path class="st2" d="M93.7,1009.9c0,0,62.5-874.1,13.5-947.1"/>
	<path class="st2" d="M1748.9,1217.1c45,0,19-1185.3,19-1185.3"/>
	<path class="st2" d="M1799.9,31.7c2,1185.8,51,1179.3,0,1185.8"/>
	<path class="st2" d="M1774.9,1217.5"/>
	<path class="st2" d="M1774.9,1217.5c0,0,142.1-1175.4,58-1175.4"/>
</svg>
