<?xml version="1.0" encoding="utf-8"?>
<!-- Generator: Adobe Illustrator 24.0.2, SVG Export Plug-In . SVG Version: 6.00 Build 0)  -->
<svg version="1.1" id="Слой_1" xmlns="http://www.w3.org/2000/svg" xmlns:xlink="http://www.w3.org/1999/xlink" x="0px" y="0px"
	 viewBox="0 0 800 600" style="enable-background:new 0 0 800 600;" xml:space="preserve">
<style type="text/css">
	.st0{fill:url(#SVGID_1_);}
	.st1{display:none;}
	.st2{display:inline;fill:#FFFFFF;stroke:#000000;stroke-width:3;stroke-linejoin:round;stroke-miterlimit:10;}
	.st3{display:inline;}
	.st4{fill:#FFFFFF;}
	.st5{display:inline;fill:url(#SVGID_2_);stroke:#000000;stroke-miterlimit:10;}
	.st6{display:inline;fill:url(#SVGID_3_);stroke:#000000;stroke-width:0.5;stroke-miterlimit:10;}
	.st7{display:inline;fill:url(#SVGID_4_);stroke:#000000;stroke-width:0.5;stroke-miterlimit:10;}
	.st8{display:inline;fill:url(#SVGID_5_);stroke:#000000;stroke-width:0.5;stroke-miterlimit:10;}
	.st9{display:inline;fill:url(#SVGID_6_);stroke:#000000;stroke-width:0.5;stroke-miterlimit:10;}
	.st10{fill:url(#SVGID_7_);}
	.st11{display:inline;fill:url(#SVGID_8_);stroke:#000000;stroke-width:0.5;stroke-miterlimit:10;}
	.st12{display:inline;fill:url(#SVGID_9_);stroke:#000000;stroke-width:0.5;stroke-miterlimit:10;}
	.st13{display:inline;fill:url(#SVGID_10_);stroke:#000000;stroke-width:0.5;stroke-miterlimit:10;}
	.st14{display:inline;fill:url(#SVGID_11_);stroke:#000000;stroke-width:0.5;stroke-miterlimit:10;}
	.st15{display:inline;fill:url(#SVGID_12_);}
	.st16{display:inline;fill:url(#SVGID_13_);}
	.st17{display:inline;fill:url(#SVGID_14_);}
	.st18{display:inline;fill:url(#SVGID_15_);}
	.st19{display:inline;fill:url(#SVGID_16_);}
	.st20{display:inline;fill:url(#SVGID_17_);}
	.st21{display:inline;fill:url(#SVGID_18_);}
	.st22{display:inline;fill:url(#SVGID_19_);}
	.st23{display:inline;fill:url(#SVGID_20_);}
	.st24{display:inline;fill:url(#SVGID_21_);}
	.st25{display:inline;fill:url(#SVGID_22_);}
	.st26{display:inline;fill:url(#SVGID_23_);}
	.st27{display:inline;fill:url(#SVGID_24_);}
	.st28{display:inline;fill:url(#SVGID_25_);}
	.st29{display:inline;fill:url(#SVGID_26_);}
	.st30{display:inline;fill:url(#SVGID_27_);}
	.st31{display:inline;fill:url(#SVGID_28_);}
	.st32{display:inline;fill:url(#SVGID_29_);}
	.st33{display:inline;fill:url(#SVGID_30_);}
	.st34{display:inline;fill:url(#SVGID_31_);}
	.st35{display:inline;fill:url(#SVGID_32_);}
	.st36{display:inline;fill:url(#SVGID_33_);}
	.st37{display:inline;fill:url(#SVGID_34_);}
	.st38{display:inline;fill:url(#SVGID_35_);}
	.st39{display:inline;fill:url(#SVGID_36_);}
	.st40{display:inline;fill:url(#SVGID_37_);}
	.st41{display:inline;fill:url(#SVGID_38_);}
	.st42{display:inline;fill:#F7931E;stroke:#000000;stroke-miterlimit:10;}
	.st43{display:inline;fill:none;stroke:#FFFF00;stroke-miterlimit:10;}
	.st44{display:inline;fill:url(#SVGID_39_);stroke:#000000;stroke-width:5.000000e-02;stroke-miterlimit:10;}
	.st45{display:inline;fill:#FF1824;stroke:#000000;stroke-width:0.75;stroke-miterlimit:10;}
	.st46{display:inline;fill:#FF1824;stroke:#000000;stroke-width:0.75;stroke-miterlimit:10.0006;}
	.st47{display:inline;fill:url(#SVGID_40_);stroke:#000000;stroke-width:5.000000e-02;stroke-miterlimit:10;}
	.st48{display:inline;fill:url(#SVGID_41_);stroke:#000000;stroke-width:5.000000e-02;stroke-miterlimit:10;}
	.st49{display:inline;fill:url(#SVGID_42_);stroke:#000000;stroke-width:5.000000e-02;stroke-miterlimit:10;}
	.st50{display:inline;fill:url(#SVGID_43_);stroke:#000000;stroke-width:5.000000e-02;stroke-miterlimit:10;}
	.st51{display:inline;fill:url(#SVGID_44_);stroke:#000000;stroke-width:5.000000e-02;stroke-miterlimit:10;}
	.st52{display:inline;fill:url(#SVGID_45_);stroke:#000000;stroke-width:5.000000e-02;stroke-miterlimit:10;}
	.st53{display:inline;fill:url(#SVGID_46_);stroke:#000000;stroke-width:5.000000e-02;stroke-miterlimit:10;}
	.st54{fill:#FFFF00;}
	.st55{fill:#FCEE21;}
	.st56{display:inline;fill:url(#SVGID_47_);stroke:#000000;stroke-width:5.000000e-02;stroke-miterlimit:10;}
	.st57{display:inline;fill:none;stroke:#00FFFF;stroke-width:0.25;stroke-miterlimit:10;}
	.st58{fill:#ECFF3F;stroke:#000000;stroke-width:0.75;stroke-miterlimit:10;}
	.st59{fill:url(#SVGID_48_);stroke:#000000;stroke-width:0.75;stroke-miterlimit:10;}
	.st60{fill:url(#SVGID_49_);stroke:#000000;stroke-width:0.75;stroke-miterlimit:10;}
</style>
<g id="Слой_4">
	<g>
		
			<linearGradient id="SVGID_1_" gradientUnits="userSpaceOnUse" x1="723.1872" y1="-274.1817" x2="69.0312" y2="-277.6613" gradientTransform="matrix(1 0 0 1 0 576)">
			<stop  offset="0" style="stop-color:#0E6A00"/>
			<stop  offset="6.880000e-02" style="stop-color:#127A02"/>
			<stop  offset="0.2891" style="stop-color:#1FA909"/>
			<stop  offset="0.4992" style="stop-color:#29CF0E"/>
			<stop  offset="0.6935" style="stop-color:#30E912"/>
			<stop  offset="0.8663" style="stop-color:#34F914"/>
			<stop  offset="1" style="stop-color:#36FF15"/>
		</linearGradient>
		<polygon class="st0" points="54.2,302.4 215.6,17.9 542.8,15.5 708.4,297.6 547,582.1 219.9,584.5 		"/>
		<path d="M541.2,18.3l164,279.4L545.3,579.4l-324,2.4l-164-279.4l160-281.7L541.2,18.3 M544.3,12.7L214,15.1L51,302.5l167.3,284.8
			l330.3-2.4l163.1-287.3L544.3,12.7L544.3,12.7z"/>
	</g>
</g>
<g id="Слой_3" class="st1">
	<rect x="31.5" y="45" class="st2" width="81" height="41.5"/>
</g>
<g id="Слой_1_1_" class="st1">
	<g class="st3">
		<path class="st4" d="M31.5,86.5V44.1l0,0c0.2-0.2,0.4-0.3,0.6-0.6H112c0.1,0.2,0.2,0.3,0.3,0.4l0.1,0.1v42.4L31.5,86.5L31.5,86.5z
			"/>
		<path d="M111.8,44c0.1,0.1,0.1,0.1,0.2,0.2l0,0V86H32V44.3c0.1-0.1,0.2-0.2,0.4-0.3H111.8 M112.3,43H31.8v0.1
			c-0.1,0.2-0.4,0.4-0.6,0.6c-0.1,0.1-0.1,0.2-0.2,0.2V87h82V43.8h-0.1c-0.1,0-0.1-0.1-0.1-0.1C112.6,43.4,112.5,43.2,112.3,43
			L112.3,43z"/>
	</g>
	
		<linearGradient id="SVGID_2_" gradientUnits="userSpaceOnUse" x1="72" y1="-541.5691" x2="72" y2="-524.7001" gradientTransform="matrix(1 0 0 1 0 576)">
		<stop  offset="0" style="stop-color:#F7931E"/>
		<stop  offset="0.1022" style="stop-color:#DB821B"/>
		<stop  offset="0.3235" style="stop-color:#935812"/>
		<stop  offset="0.6446" style="stop-color:#221404"/>
		<stop  offset="0.7363" style="stop-color:#000000"/>
	</linearGradient>
	<path class="st5" d="M113,44.5c-44.5-30.4-82,0-82,0H113z"/>
	
		<linearGradient id="SVGID_3_" gradientUnits="userSpaceOnUse" x1="31.5" y1="-526" x2="112.5" y2="-526" gradientTransform="matrix(1 0 0 1 0 576)">
		<stop  offset="0.2426" style="stop-color:#F15A24"/>
		<stop  offset="0.4315" style="stop-color:#EF5924"/>
		<stop  offset="0.537" style="stop-color:#E75622"/>
		<stop  offset="0.6221" style="stop-color:#D95120"/>
		<stop  offset="0.6962" style="stop-color:#C54A1D"/>
		<stop  offset="0.7632" style="stop-color:#AC401A"/>
		<stop  offset="0.825" style="stop-color:#8C3415"/>
		<stop  offset="0.883" style="stop-color:#67260F"/>
		<stop  offset="0.9378" style="stop-color:#3C1609"/>
		<stop  offset="0.9883" style="stop-color:#0C0502"/>
		<stop  offset="1" style="stop-color:#000000"/>
	</linearGradient>
	<rect x="31.5" y="48.5" class="st6" width="81" height="3"/>
	
		<linearGradient id="SVGID_4_" gradientUnits="userSpaceOnUse" x1="31.5" y1="-514.5" x2="112.5" y2="-514.5" gradientTransform="matrix(1 0 0 1 0 576)">
		<stop  offset="0.2426" style="stop-color:#F15A24"/>
		<stop  offset="0.3261" style="stop-color:#EC5823"/>
		<stop  offset="0.4229" style="stop-color:#DE5321"/>
		<stop  offset="0.5261" style="stop-color:#C74A1E"/>
		<stop  offset="0.634" style="stop-color:#A63E19"/>
		<stop  offset="0.7455" style="stop-color:#7D2F13"/>
		<stop  offset="0.86" style="stop-color:#491B0B"/>
		<stop  offset="0.9749" style="stop-color:#0E0502"/>
		<stop  offset="1" style="stop-color:#000000"/>
	</linearGradient>
	<rect x="31.5" y="59.5" class="st7" width="81" height="4"/>
	
		<linearGradient id="SVGID_5_" gradientUnits="userSpaceOnUse" x1="31.5" y1="-503.5" x2="112.5" y2="-503.5" gradientTransform="matrix(1 0 0 1 0 576)">
		<stop  offset="0.2426" style="stop-color:#F15A24"/>
		<stop  offset="0.4582" style="stop-color:#9D3B17"/>
		<stop  offset="0.6505" style="stop-color:#5A220D"/>
		<stop  offset="0.8103" style="stop-color:#290F06"/>
		<stop  offset="0.9315" style="stop-color:#0B0402"/>
		<stop  offset="1" style="stop-color:#000000"/>
	</linearGradient>
	<rect x="31.5" y="70.5" class="st8" width="81" height="4"/>
	
		<linearGradient id="SVGID_6_" gradientUnits="userSpaceOnUse" x1="31.5" y1="-493" x2="112.5" y2="-493" gradientTransform="matrix(1 0 0 1 0 576)">
		<stop  offset="0.2426" style="stop-color:#F15A24"/>
		<stop  offset="0.3068" style="stop-color:#CB4C1E"/>
		<stop  offset="0.407" style="stop-color:#963816"/>
		<stop  offset="0.5086" style="stop-color:#682710"/>
		<stop  offset="0.6095" style="stop-color:#42190A"/>
		<stop  offset="0.7095" style="stop-color:#250E06"/>
		<stop  offset="0.8085" style="stop-color:#110602"/>
		<stop  offset="0.9059" style="stop-color:#040201"/>
		<stop  offset="1" style="stop-color:#000000"/>
	</linearGradient>
	<rect x="31.5" y="81.5" class="st9" width="81" height="3"/>
	<g class="st3">
		
			<linearGradient id="SVGID_7_" gradientUnits="userSpaceOnUse" x1="31.3" y1="-529.45" x2="112.8" y2="-529.45" gradientTransform="matrix(1 0 0 1 0 576)">
			<stop  offset="0.6157" style="stop-color:#F7931E"/>
			<stop  offset="0.6527" style="stop-color:#CB7919"/>
			<stop  offset="0.7029" style="stop-color:#965912"/>
			<stop  offset="0.7538" style="stop-color:#683E0D"/>
			<stop  offset="0.8044" style="stop-color:#422808"/>
			<stop  offset="0.8545" style="stop-color:#251605"/>
			<stop  offset="0.904" style="stop-color:#110A02"/>
			<stop  offset="0.9529" style="stop-color:#040201"/>
			<stop  offset="1" style="stop-color:#000000"/>
		</linearGradient>
		<rect x="31.3" y="44.3" class="st10" width="81.5" height="4.5"/>
		<path d="M112.5,44.5v4h-81v-4H112.5 M113,44H31v5h82V44L113,44z"/>
	</g>
	
		<linearGradient id="SVGID_8_" gradientUnits="userSpaceOnUse" x1="31.5" y1="-520.5" x2="112.5" y2="-520.5" gradientTransform="matrix(1 0 0 1 0 576)">
		<stop  offset="0.3792" style="stop-color:#F7931E"/>
		<stop  offset="0.4457" style="stop-color:#F2901D"/>
		<stop  offset="0.5238" style="stop-color:#E4881C"/>
		<stop  offset="0.6079" style="stop-color:#CC7919"/>
		<stop  offset="0.6962" style="stop-color:#AB6615"/>
		<stop  offset="0.7877" style="stop-color:#804C10"/>
		<stop  offset="0.882" style="stop-color:#4C2D09"/>
		<stop  offset="0.9768" style="stop-color:#100A02"/>
		<stop  offset="1" style="stop-color:#000000"/>
	</linearGradient>
	<rect x="31.5" y="51.5" class="st11" width="81" height="8"/>
	
		<linearGradient id="SVGID_9_" gradientUnits="userSpaceOnUse" x1="31.5" y1="-509" x2="112.5" y2="-509" gradientTransform="matrix(1 0 0 1 0 576)">
		<stop  offset="0.3792" style="stop-color:#F7931E"/>
		<stop  offset="0.4457" style="stop-color:#F2901D"/>
		<stop  offset="0.5238" style="stop-color:#E4881C"/>
		<stop  offset="0.6079" style="stop-color:#CC7919"/>
		<stop  offset="0.6962" style="stop-color:#AB6615"/>
		<stop  offset="0.7877" style="stop-color:#804C10"/>
		<stop  offset="0.882" style="stop-color:#4C2D09"/>
		<stop  offset="0.9768" style="stop-color:#100A02"/>
		<stop  offset="1" style="stop-color:#000000"/>
	</linearGradient>
	<rect x="31.5" y="63.5" class="st12" width="81" height="7"/>
	
		<linearGradient id="SVGID_10_" gradientUnits="userSpaceOnUse" x1="31.5" y1="-498" x2="112.5" y2="-498" gradientTransform="matrix(1 0 0 1 0 576)">
		<stop  offset="0.3792" style="stop-color:#F7931E"/>
		<stop  offset="0.4457" style="stop-color:#F2901D"/>
		<stop  offset="0.5238" style="stop-color:#E4881C"/>
		<stop  offset="0.6079" style="stop-color:#CC7919"/>
		<stop  offset="0.6962" style="stop-color:#AB6615"/>
		<stop  offset="0.7877" style="stop-color:#804C10"/>
		<stop  offset="0.882" style="stop-color:#4C2D09"/>
		<stop  offset="0.9768" style="stop-color:#100A02"/>
		<stop  offset="1" style="stop-color:#000000"/>
	</linearGradient>
	<rect x="31.5" y="74.5" class="st13" width="81" height="7"/>
	
		<linearGradient id="SVGID_11_" gradientUnits="userSpaceOnUse" x1="31.5" y1="-490.5" x2="112.5" y2="-490.5" gradientTransform="matrix(1 0 0 1 0 576)">
		<stop  offset="0.3792" style="stop-color:#F7931E"/>
		<stop  offset="0.4457" style="stop-color:#F2901D"/>
		<stop  offset="0.5238" style="stop-color:#E4881C"/>
		<stop  offset="0.6079" style="stop-color:#CC7919"/>
		<stop  offset="0.6962" style="stop-color:#AB6615"/>
		<stop  offset="0.7877" style="stop-color:#804C10"/>
		<stop  offset="0.882" style="stop-color:#4C2D09"/>
		<stop  offset="0.9768" style="stop-color:#100A02"/>
		<stop  offset="1" style="stop-color:#000000"/>
	</linearGradient>
	<rect x="31.5" y="84.5" class="st14" width="81" height="2"/>
	
		<linearGradient id="SVGID_12_" gradientUnits="userSpaceOnUse" x1="34.2837" y1="-530.6545" x2="34.3358" y2="-527.9251" gradientTransform="matrix(1 0 0 1 0 576)">
		<stop  offset="0" style="stop-color:#F2F2F2"/>
		<stop  offset="6.781822e-03" style="stop-color:#F1F1F1"/>
		<stop  offset="0.2196" style="stop-color:#DDDDDD"/>
		<stop  offset="0.4298" style="stop-color:#D0D0D0"/>
		<stop  offset="0.6328" style="stop-color:#CCCCCC"/>
	</linearGradient>
	<circle class="st15" cx="34.3" cy="46.2" r="1.2"/>
	
		<linearGradient id="SVGID_13_" gradientUnits="userSpaceOnUse" x1="34.3827" y1="-523.7062" x2="34.4361" y2="-520.9113" gradientTransform="matrix(1 0 0 1 0 576)">
		<stop  offset="0" style="stop-color:#F2F2F2"/>
		<stop  offset="6.781822e-03" style="stop-color:#F1F1F1"/>
		<stop  offset="0.2196" style="stop-color:#DDDDDD"/>
		<stop  offset="0.4298" style="stop-color:#D0D0D0"/>
		<stop  offset="0.6328" style="stop-color:#CCCCCC"/>
	</linearGradient>
	<circle class="st16" cx="34.4" cy="53.2" r="1.3"/>
	
		<linearGradient id="SVGID_14_" gradientUnits="userSpaceOnUse" x1="34.3827" y1="-519.7062" x2="34.4361" y2="-516.9113" gradientTransform="matrix(1 0 0 1 0 576)">
		<stop  offset="0" style="stop-color:#F2F2F2"/>
		<stop  offset="6.781822e-03" style="stop-color:#F1F1F1"/>
		<stop  offset="0.2196" style="stop-color:#DDDDDD"/>
		<stop  offset="0.4298" style="stop-color:#D0D0D0"/>
		<stop  offset="0.6328" style="stop-color:#CCCCCC"/>
	</linearGradient>
	<circle class="st17" cx="34.4" cy="57.2" r="1.3"/>
	
		<linearGradient id="SVGID_15_" gradientUnits="userSpaceOnUse" x1="34.3827" y1="-511.7062" x2="34.4361" y2="-508.9113" gradientTransform="matrix(1 0 0 1 0 576)">
		<stop  offset="0" style="stop-color:#F2F2F2"/>
		<stop  offset="6.781822e-03" style="stop-color:#F1F1F1"/>
		<stop  offset="0.2196" style="stop-color:#DDDDDD"/>
		<stop  offset="0.4298" style="stop-color:#D0D0D0"/>
		<stop  offset="0.6328" style="stop-color:#CCCCCC"/>
	</linearGradient>
	<circle class="st18" cx="34.4" cy="65.2" r="1.3"/>
	
		<linearGradient id="SVGID_16_" gradientUnits="userSpaceOnUse" x1="34.3827" y1="-507.7062" x2="34.4361" y2="-504.9113" gradientTransform="matrix(1 0 0 1 0 576)">
		<stop  offset="0" style="stop-color:#F2F2F2"/>
		<stop  offset="6.781822e-03" style="stop-color:#F1F1F1"/>
		<stop  offset="0.2196" style="stop-color:#DDDDDD"/>
		<stop  offset="0.4298" style="stop-color:#D0D0D0"/>
		<stop  offset="0.6328" style="stop-color:#CCCCCC"/>
	</linearGradient>
	<circle class="st19" cx="34.4" cy="69.2" r="1.3"/>
	
		<linearGradient id="SVGID_17_" gradientUnits="userSpaceOnUse" x1="34.3827" y1="-500.7062" x2="34.4361" y2="-497.9113" gradientTransform="matrix(1 0 0 1 0 576)">
		<stop  offset="0" style="stop-color:#F2F2F2"/>
		<stop  offset="6.781822e-03" style="stop-color:#F1F1F1"/>
		<stop  offset="0.2196" style="stop-color:#DDDDDD"/>
		<stop  offset="0.4298" style="stop-color:#D0D0D0"/>
		<stop  offset="0.6328" style="stop-color:#CCCCCC"/>
	</linearGradient>
	<circle class="st20" cx="34.4" cy="76.2" r="1.3"/>
	
		<linearGradient id="SVGID_18_" gradientUnits="userSpaceOnUse" x1="34.3827" y1="-496.7062" x2="34.4361" y2="-493.9113" gradientTransform="matrix(1 0 0 1 0 576)">
		<stop  offset="0" style="stop-color:#F2F2F2"/>
		<stop  offset="6.781822e-03" style="stop-color:#F1F1F1"/>
		<stop  offset="0.2196" style="stop-color:#DDDDDD"/>
		<stop  offset="0.4298" style="stop-color:#D0D0D0"/>
		<stop  offset="0.6328" style="stop-color:#CCCCCC"/>
	</linearGradient>
	<circle class="st21" cx="34.4" cy="80.2" r="1.3"/>
	
		<linearGradient id="SVGID_19_" gradientUnits="userSpaceOnUse" x1="108.2003" y1="-529.8108" x2="110.7219" y2="-529.7914" gradientTransform="matrix(1 0 0 1 0 576)">
		<stop  offset="0" style="stop-color:#F2F2F2"/>
		<stop  offset="6.740000e-02" style="stop-color:#D9D9D9"/>
		<stop  offset="0.2575" style="stop-color:#989898"/>
		<stop  offset="0.4385" style="stop-color:#626262"/>
		<stop  offset="0.6056" style="stop-color:#373737"/>
		<stop  offset="0.7557" style="stop-color:#191919"/>
		<stop  offset="0.8836" style="stop-color:#070707"/>
		<stop  offset="0.9741" style="stop-color:#000000"/>
	</linearGradient>
	<circle class="st22" cx="109.6" cy="46.2" r="1.2"/>
	
		<linearGradient id="SVGID_20_" gradientUnits="userSpaceOnUse" x1="108.0165" y1="-522.8107" x2="110.5381" y2="-522.7913" gradientTransform="matrix(1 0 0 1 0 576)">
		<stop  offset="0" style="stop-color:#F2F2F2"/>
		<stop  offset="6.740000e-02" style="stop-color:#D9D9D9"/>
		<stop  offset="0.2575" style="stop-color:#989898"/>
		<stop  offset="0.4385" style="stop-color:#626262"/>
		<stop  offset="0.6056" style="stop-color:#373737"/>
		<stop  offset="0.7557" style="stop-color:#191919"/>
		<stop  offset="0.8836" style="stop-color:#070707"/>
		<stop  offset="0.9741" style="stop-color:#000000"/>
	</linearGradient>
	<circle class="st23" cx="109.4" cy="53.2" r="1.2"/>
	
		<linearGradient id="SVGID_21_" gradientUnits="userSpaceOnUse" x1="108.0165" y1="-518.8107" x2="110.5381" y2="-518.7913" gradientTransform="matrix(1 0 0 1 0 576)">
		<stop  offset="0" style="stop-color:#F2F2F2"/>
		<stop  offset="6.740000e-02" style="stop-color:#D9D9D9"/>
		<stop  offset="0.2575" style="stop-color:#989898"/>
		<stop  offset="0.4385" style="stop-color:#626262"/>
		<stop  offset="0.6056" style="stop-color:#373737"/>
		<stop  offset="0.7557" style="stop-color:#191919"/>
		<stop  offset="0.8836" style="stop-color:#070707"/>
		<stop  offset="0.9741" style="stop-color:#000000"/>
	</linearGradient>
	<circle class="st24" cx="109.4" cy="57.2" r="1.2"/>
	
		<linearGradient id="SVGID_22_" gradientUnits="userSpaceOnUse" x1="108.0165" y1="-510.8107" x2="110.5381" y2="-510.7913" gradientTransform="matrix(1 0 0 1 0 576)">
		<stop  offset="0" style="stop-color:#F2F2F2"/>
		<stop  offset="6.740000e-02" style="stop-color:#D9D9D9"/>
		<stop  offset="0.2575" style="stop-color:#989898"/>
		<stop  offset="0.4385" style="stop-color:#626262"/>
		<stop  offset="0.6056" style="stop-color:#373737"/>
		<stop  offset="0.7557" style="stop-color:#191919"/>
		<stop  offset="0.8836" style="stop-color:#070707"/>
		<stop  offset="0.9741" style="stop-color:#000000"/>
	</linearGradient>
	<circle class="st25" cx="109.4" cy="65.2" r="1.2"/>
	
		<linearGradient id="SVGID_23_" gradientUnits="userSpaceOnUse" x1="108.0165" y1="-506.8106" x2="110.5381" y2="-506.7912" gradientTransform="matrix(1 0 0 1 0 576)">
		<stop  offset="0" style="stop-color:#F2F2F2"/>
		<stop  offset="6.740000e-02" style="stop-color:#D9D9D9"/>
		<stop  offset="0.2575" style="stop-color:#989898"/>
		<stop  offset="0.4385" style="stop-color:#626262"/>
		<stop  offset="0.6056" style="stop-color:#373737"/>
		<stop  offset="0.7557" style="stop-color:#191919"/>
		<stop  offset="0.8836" style="stop-color:#070707"/>
		<stop  offset="0.9741" style="stop-color:#000000"/>
	</linearGradient>
	<circle class="st26" cx="109.4" cy="69.2" r="1.2"/>
	
		<linearGradient id="SVGID_24_" gradientUnits="userSpaceOnUse" x1="108.0165" y1="-499.8106" x2="110.5381" y2="-499.7912" gradientTransform="matrix(1 0 0 1 0 576)">
		<stop  offset="0" style="stop-color:#F2F2F2"/>
		<stop  offset="6.740000e-02" style="stop-color:#D9D9D9"/>
		<stop  offset="0.2575" style="stop-color:#989898"/>
		<stop  offset="0.4385" style="stop-color:#626262"/>
		<stop  offset="0.6056" style="stop-color:#373737"/>
		<stop  offset="0.7557" style="stop-color:#191919"/>
		<stop  offset="0.8836" style="stop-color:#070707"/>
		<stop  offset="0.9741" style="stop-color:#000000"/>
	</linearGradient>
	<circle class="st27" cx="109.4" cy="76.2" r="1.2"/>
	
		<linearGradient id="SVGID_25_" gradientUnits="userSpaceOnUse" x1="108.0165" y1="-495.8106" x2="110.5381" y2="-495.7912" gradientTransform="matrix(1 0 0 1 0 576)">
		<stop  offset="0" style="stop-color:#F2F2F2"/>
		<stop  offset="6.740000e-02" style="stop-color:#D9D9D9"/>
		<stop  offset="0.2575" style="stop-color:#989898"/>
		<stop  offset="0.4385" style="stop-color:#626262"/>
		<stop  offset="0.6056" style="stop-color:#373737"/>
		<stop  offset="0.7557" style="stop-color:#191919"/>
		<stop  offset="0.8836" style="stop-color:#070707"/>
		<stop  offset="0.9741" style="stop-color:#000000"/>
	</linearGradient>
	<circle class="st28" cx="109.4" cy="80.2" r="1.2"/>
	
		<linearGradient id="SVGID_26_" gradientUnits="userSpaceOnUse" x1="38.6827" y1="-534.8059" x2="38.7348" y2="-532.0769" gradientTransform="matrix(1 0 0 1 0 576)">
		<stop  offset="0" style="stop-color:#F2F2F2"/>
		<stop  offset="4.370000e-02" style="stop-color:#E8EDED"/>
		<stop  offset="0.194" style="stop-color:#CBDFDF"/>
		<stop  offset="0.3435" style="stop-color:#B7D4D4"/>
		<stop  offset="0.4907" style="stop-color:#AACECE"/>
		<stop  offset="0.6328" style="stop-color:#A6CCCC"/>
	</linearGradient>
	<circle class="st29" cx="38.7" cy="42.1" r="1.2"/>
	
		<linearGradient id="SVGID_27_" gradientUnits="userSpaceOnUse" x1="45.5823" y1="-537.7277" x2="45.6345" y2="-534.9988" gradientTransform="matrix(1 0 0 1 0 576)">
		<stop  offset="0" style="stop-color:#F2F2F2"/>
		<stop  offset="4.370000e-02" style="stop-color:#E8EDED"/>
		<stop  offset="0.194" style="stop-color:#CBDFDF"/>
		<stop  offset="0.3435" style="stop-color:#B7D4D4"/>
		<stop  offset="0.4907" style="stop-color:#AACECE"/>
		<stop  offset="0.6328" style="stop-color:#A6CCCC"/>
	</linearGradient>
	<circle class="st30" cx="45.6" cy="39.2" r="1.2"/>
	
		<linearGradient id="SVGID_28_" gradientUnits="userSpaceOnUse" x1="51.5823" y1="-539.7277" x2="51.6345" y2="-536.9988" gradientTransform="matrix(1 0 0 1 0 576)">
		<stop  offset="0" style="stop-color:#F2F2F2"/>
		<stop  offset="4.370000e-02" style="stop-color:#E8EDED"/>
		<stop  offset="0.194" style="stop-color:#CBDFDF"/>
		<stop  offset="0.3435" style="stop-color:#B7D4D4"/>
		<stop  offset="0.4907" style="stop-color:#AACECE"/>
		<stop  offset="0.6328" style="stop-color:#A6CCCC"/>
	</linearGradient>
	<circle class="st31" cx="51.6" cy="37.2" r="1.2"/>
	
		<linearGradient id="SVGID_29_" gradientUnits="userSpaceOnUse" x1="57.5823" y1="-541.7277" x2="57.6345" y2="-538.9988" gradientTransform="matrix(1 0 0 1 0 576)">
		<stop  offset="0" style="stop-color:#F2F2F2"/>
		<stop  offset="4.370000e-02" style="stop-color:#E8EDED"/>
		<stop  offset="0.194" style="stop-color:#CBDFDF"/>
		<stop  offset="0.3435" style="stop-color:#B7D4D4"/>
		<stop  offset="0.4907" style="stop-color:#AACECE"/>
		<stop  offset="0.6328" style="stop-color:#A6CCCC"/>
	</linearGradient>
	<circle class="st32" cx="57.6" cy="35.2" r="1.2"/>
	
		<linearGradient id="SVGID_30_" gradientUnits="userSpaceOnUse" x1="63.5823" y1="-542.7277" x2="63.6345" y2="-539.9988" gradientTransform="matrix(1 0 0 1 0 576)">
		<stop  offset="0" style="stop-color:#F2F2F2"/>
		<stop  offset="4.370000e-02" style="stop-color:#E8EDED"/>
		<stop  offset="0.194" style="stop-color:#CBDFDF"/>
		<stop  offset="0.3435" style="stop-color:#B7D4D4"/>
		<stop  offset="0.4907" style="stop-color:#AACECE"/>
		<stop  offset="0.6328" style="stop-color:#A6CCCC"/>
	</linearGradient>
	<circle class="st33" cx="63.6" cy="34.2" r="1.2"/>
	
		<linearGradient id="SVGID_31_" gradientUnits="userSpaceOnUse" x1="69.5823" y1="-543.7277" x2="69.6345" y2="-540.9988" gradientTransform="matrix(1 0 0 1 0 576)">
		<stop  offset="0" style="stop-color:#F2F2F2"/>
		<stop  offset="4.370000e-02" style="stop-color:#E8EDED"/>
		<stop  offset="0.194" style="stop-color:#CBDFDF"/>
		<stop  offset="0.3435" style="stop-color:#B7D4D4"/>
		<stop  offset="0.4907" style="stop-color:#AACECE"/>
		<stop  offset="0.6328" style="stop-color:#A6CCCC"/>
	</linearGradient>
	<circle class="st34" cx="69.6" cy="33.2" r="1.2"/>
	
		<linearGradient id="SVGID_32_" gradientUnits="userSpaceOnUse" x1="74.995" y1="-542.8197" x2="77.7229" y2="-542.7308" gradientTransform="matrix(1 0 0 1 0 576)">
		<stop  offset="0" style="stop-color:#F2F2F2"/>
		<stop  offset="0.1193" style="stop-color:#EEEEEE"/>
		<stop  offset="0.2472" style="stop-color:#E1E1E1"/>
		<stop  offset="0.3792" style="stop-color:#CBCBCB"/>
		<stop  offset="0.5139" style="stop-color:#ADADAD"/>
		<stop  offset="0.6508" style="stop-color:#878787"/>
		<stop  offset="0.7895" style="stop-color:#575757"/>
		<stop  offset="0.9271" style="stop-color:#202020"/>
		<stop  offset="1" style="stop-color:#000000"/>
	</linearGradient>
	<circle class="st35" cx="75.6" cy="33.2" r="1.2"/>
	
		<linearGradient id="SVGID_33_" gradientUnits="userSpaceOnUse" x1="79.5588" y1="-541.8239" x2="82.2875" y2="-541.7614" gradientTransform="matrix(1 0 0 1 0 576)">
		<stop  offset="0" style="stop-color:#F2F2F2"/>
		<stop  offset="8.820000e-02" style="stop-color:#E9E9E9"/>
		<stop  offset="0.2339" style="stop-color:#D0D0D0"/>
		<stop  offset="0.419" style="stop-color:#A7A7A7"/>
		<stop  offset="0.6363" style="stop-color:#6E6E6E"/>
		<stop  offset="0.878" style="stop-color:#272727"/>
		<stop  offset="1" style="stop-color:#000000"/>
	</linearGradient>
	<circle class="st36" cx="80.6" cy="34.2" r="1.2"/>
	
		<linearGradient id="SVGID_34_" gradientUnits="userSpaceOnUse" x1="84.1418" y1="-540.7852" x2="86.871" y2="-540.813" gradientTransform="matrix(1 0 0 1 0 576)">
		<stop  offset="0" style="stop-color:#F2F2F2"/>
		<stop  offset="0.2284" style="stop-color:#EFEFEF"/>
		<stop  offset="0.3669" style="stop-color:#E7E7E7"/>
		<stop  offset="0.4813" style="stop-color:#D9D9D9"/>
		<stop  offset="0.5827" style="stop-color:#C4C4C4"/>
		<stop  offset="0.6755" style="stop-color:#AAAAAA"/>
		<stop  offset="0.762" style="stop-color:#898989"/>
		<stop  offset="0.8436" style="stop-color:#636363"/>
		<stop  offset="0.9214" style="stop-color:#363636"/>
		<stop  offset="0.9935" style="stop-color:#050505"/>
		<stop  offset="1" style="stop-color:#000000"/>
	</linearGradient>
	<circle class="st37" cx="85.6" cy="35.2" r="1.2"/>
	
		<linearGradient id="SVGID_35_" gradientUnits="userSpaceOnUse" x1="88.8398" y1="-539.8283" x2="91.5688" y2="-539.7844" gradientTransform="matrix(1 0 0 1 0 576)">
		<stop  offset="0" style="stop-color:#F2F2F2"/>
		<stop  offset="0.2055" style="stop-color:#EFEFEF"/>
		<stop  offset="0.3425" style="stop-color:#E6E6E6"/>
		<stop  offset="0.4596" style="stop-color:#D7D7D7"/>
		<stop  offset="0.5654" style="stop-color:#C2C2C2"/>
		<stop  offset="0.6637" style="stop-color:#A6A6A6"/>
		<stop  offset="0.7565" style="stop-color:#848484"/>
		<stop  offset="0.8449" style="stop-color:#5C5C5C"/>
		<stop  offset="0.9276" style="stop-color:#2E2E2E"/>
		<stop  offset="1" style="stop-color:#000000"/>
	</linearGradient>
	<circle class="st38" cx="90.6" cy="36.2" r="1.2"/>
	
		<linearGradient id="SVGID_36_" gradientUnits="userSpaceOnUse" x1="93.9046" y1="-537.7869" x2="96.6339" y2="-537.8079" gradientTransform="matrix(1 0 0 1 0 576)">
		<stop  offset="0" style="stop-color:#F2F2F2"/>
		<stop  offset="0.1528" style="stop-color:#EFEFEF"/>
		<stop  offset="0.2846" style="stop-color:#E4E4E4"/>
		<stop  offset="0.4086" style="stop-color:#D2D2D2"/>
		<stop  offset="0.5279" style="stop-color:#B9B9B9"/>
		<stop  offset="0.6438" style="stop-color:#999999"/>
		<stop  offset="0.7571" style="stop-color:#717171"/>
		<stop  offset="0.8684" style="stop-color:#424242"/>
		<stop  offset="0.9755" style="stop-color:#0D0D0D"/>
		<stop  offset="1" style="stop-color:#000000"/>
	</linearGradient>
	<circle class="st39" cx="95.6" cy="38.2" r="1.2"/>
	
		<linearGradient id="SVGID_37_" gradientUnits="userSpaceOnUse" x1="97.9655" y1="-535.8603" x2="100.693" y2="-535.7596" gradientTransform="matrix(1 0 0 1 0 576)">
		<stop  offset="0" style="stop-color:#F2F2F2"/>
		<stop  offset="9.010001e-02" style="stop-color:#E7E7E7"/>
		<stop  offset="0.2497" style="stop-color:#C9C9C9"/>
		<stop  offset="0.4601" style="stop-color:#989898"/>
		<stop  offset="0.7133" style="stop-color:#555555"/>
		<stop  offset="1" style="stop-color:#000000"/>
	</linearGradient>
	<circle class="st40" cx="99.6" cy="40.2" r="1.2"/>
	
		<linearGradient id="SVGID_38_" gradientUnits="userSpaceOnUse" x1="102.9752" y1="-533.8329" x2="105.704" y2="-533.7776" gradientTransform="matrix(1 0 0 1 0 576)">
		<stop  offset="0" style="stop-color:#F2F2F2"/>
		<stop  offset="4.349649e-03" style="stop-color:#F1F1F1"/>
		<stop  offset="0.2895" style="stop-color:#9C9C9C"/>
		<stop  offset="0.5415" style="stop-color:#595959"/>
		<stop  offset="0.7509" style="stop-color:#292929"/>
		<stop  offset="0.91" style="stop-color:#0B0B0B"/>
		<stop  offset="1" style="stop-color:#000000"/>
	</linearGradient>
	<circle class="st41" cx="104.6" cy="42.2" r="1.2"/>
</g>
<g id="Слой_2_1_" class="st1">
	<path class="st42" d="M71,75.7"/>
	<path class="st42" d="M71,75.7c-6.1,0-11-4.9-11-11s4.9-11,11-11s11,4.9,11,11S77.1,75.7,71,75.7"/>
	<path class="st43" d="M66,70.4c1.8,2.1,4.3,2.8,6.1,1.9c1.2-0.6,2.5-1.9,2.4-3.4c-0.1-2.1-3-3.3-3.3-3.4c-1.9-0.8-3,0-3.8-1
		c-0.8-0.9-0.4-2.6,0-3.4c0.1-0.3,0.7-1.4,1.9-2c1.3-0.6,2.5-0.1,2.8,0c1.1,0.4,1.7,1.1,1.9,1.5"/>
	<line class="st43" x1="72.6" y1="56.2" x2="71.2" y2="74.2"/>
	<line class="st43" x1="70.3" y1="56.2" x2="68.4" y2="74.2"/>
</g>
<g id="Слой_5" class="st1">
	
		<linearGradient id="SVGID_39_" gradientUnits="userSpaceOnUse" x1="71.447" y1="-541.2894" x2="72.1167" y2="-556.59" gradientTransform="matrix(1 0 0 1 0 576)">
		<stop  offset="1" style="stop-color:#FFFF00"/>
		<stop  offset="1" style="stop-color:#FDFF00"/>
		<stop  offset="1" style="stop-color:#F6FF01"/>
		<stop  offset="1" style="stop-color:#EBFF02"/>
		<stop  offset="1" style="stop-color:#DAFF04"/>
		<stop  offset="1" style="stop-color:#C4FF06"/>
		<stop  offset="1" style="stop-color:#A8FF09"/>
		<stop  offset="1" style="stop-color:#88FF0C"/>
		<stop  offset="1" style="stop-color:#63FF10"/>
		<stop  offset="1" style="stop-color:#3AFF15"/>
		<stop  offset="1" style="stop-color:#36FF15"/>
	</linearGradient>
	<polygon class="st44" points="81.6,18.4 77,23.1 78.3,29.6 72.4,26.7 66.6,29.9 67.6,23.4 62.7,18.9 69.2,17.8 72,11.8 75.1,17.6 	
		"/>
	<path class="st45" d="M69.9,87.5C70,79,66,78.2,72,69.5c4.1-6,8.9-8.8,7.8-13.3c-0.8-3.1-4.6-7-9.5-6.8c-4,0.1-5.4,4.5-8.8,6.5
		c-1.8,1.1-1.5-3-1.5-3c1.5-5.1,6.6-8.7,11.9-8.9c6.7-0.2,11.8,5,12.9,9.2c1.5,6.2-6,9.3-10.5,18.1c-6,11.8-2.7,13.1-2.9,24.3
		C71.4,95.6,69.9,93.5,69.9,87.5z"/>
	<ellipse class="st45" cx="71.3" cy="103.1" rx="0.9" ry="0.9"/>
	<path class="st45" d="M97.6,77.2c1.8-5.1-0.4-6.4,5.1-10.4c3.8-2.7,7.2-3.4,7.5-6.4c0.2-2-1.3-5.2-4.3-6.1
		c-2.4-0.8-4.2,1.6-6.7,2.1c-1.3,0.3-0.3-2.1-0.3-2.1c2-2.8,5.8-3.8,9.1-2.8c4.1,1.3,6.1,5.5,5.8,8.3c-0.4,4-5.6,4.3-10.1,8.7
		c-6.1,5.8-4.4,7.3-6.9,14C96.8,82.4,96.3,80.8,97.6,77.2z"/>
	<ellipse class="st46" cx="95.1" cy="86.9" rx="0.6" ry="0.6"/>
	<path class="st45" d="M45.6,76.8c-1.8-5.1,0.4-6.4-5.1-10.4C36.8,63.7,33.3,63,33,60c-0.2-2,1.3-5.2,4.3-6.1
		c2.4-0.8,4.2,1.6,6.7,2.1c1.3,0.3,0.3-2.1,0.3-2.1c-2-2.8-5.8-3.8-9-2.8c-4.1,1.3-6.1,5.5-5.8,8.3c0.4,4,5.6,4.3,10.1,8.7
		c6.1,5.8,4.4,7.3,6.9,14C46.4,82,46.9,80.4,45.6,76.8z"/>
	<ellipse class="st46" cx="48.1" cy="86.5" rx="0.6" ry="0.6"/>
</g>
<g id="Слой_7" class="st1">
	
		<linearGradient id="SVGID_40_" gradientUnits="userSpaceOnUse" x1="910.7946" y1="-947.4265" x2="912.0527" y2="-947.4265" gradientTransform="matrix(0.671 -0.7414 0.7414 0.671 190.0184 1365.5479)">
		<stop  offset="1" style="stop-color:#FFFF00"/>
		<stop  offset="1" style="stop-color:#FDFF00"/>
		<stop  offset="1" style="stop-color:#F6FF01"/>
		<stop  offset="1" style="stop-color:#EBFF02"/>
		<stop  offset="1" style="stop-color:#DAFF04"/>
		<stop  offset="1" style="stop-color:#C4FF06"/>
		<stop  offset="1" style="stop-color:#A8FF09"/>
		<stop  offset="1" style="stop-color:#88FF0C"/>
		<stop  offset="1" style="stop-color:#63FF10"/>
		<stop  offset="1" style="stop-color:#3AFF15"/>
		<stop  offset="1" style="stop-color:#36FF15"/>
	</linearGradient>
	<polygon class="st47" points="101.6,57.1 102.4,56.2 96.8,51.1 95.9,52 	"/>
	
		<linearGradient id="SVGID_41_" gradientUnits="userSpaceOnUse" x1="909.4619" y1="-948.4169" x2="910.72" y2="-948.4169" gradientTransform="matrix(0.671 -0.7414 0.7414 0.671 190.0184 1365.5479)">
		<stop  offset="1" style="stop-color:#FFFF00"/>
		<stop  offset="1" style="stop-color:#FDFF00"/>
		<stop  offset="1" style="stop-color:#F6FF01"/>
		<stop  offset="1" style="stop-color:#EBFF02"/>
		<stop  offset="1" style="stop-color:#DAFF04"/>
		<stop  offset="1" style="stop-color:#C4FF06"/>
		<stop  offset="1" style="stop-color:#A8FF09"/>
		<stop  offset="1" style="stop-color:#88FF0C"/>
		<stop  offset="1" style="stop-color:#63FF10"/>
		<stop  offset="1" style="stop-color:#3AFF15"/>
		<stop  offset="1" style="stop-color:#36FF15"/>
	</linearGradient>
	<polygon class="st48" points="99.9,57.4 100.8,56.5 95.2,51.4 94.3,52.3 	"/>
	
		<linearGradient id="SVGID_42_" gradientUnits="userSpaceOnUse" x1="908.123" y1="-947.5286" x2="909.3811" y2="-947.5286" gradientTransform="matrix(0.671 -0.7414 0.7414 0.671 190.0184 1365.5479)">
		<stop  offset="1" style="stop-color:#FFFF00"/>
		<stop  offset="1" style="stop-color:#FDFF00"/>
		<stop  offset="1" style="stop-color:#F6FF01"/>
		<stop  offset="1" style="stop-color:#EBFF02"/>
		<stop  offset="1" style="stop-color:#DAFF04"/>
		<stop  offset="1" style="stop-color:#C4FF06"/>
		<stop  offset="1" style="stop-color:#A8FF09"/>
		<stop  offset="1" style="stop-color:#88FF0C"/>
		<stop  offset="1" style="stop-color:#63FF10"/>
		<stop  offset="1" style="stop-color:#3AFF15"/>
		<stop  offset="1" style="stop-color:#36FF15"/>
	</linearGradient>
	<polygon class="st49" points="99.7,59 100.5,58 94.9,53 94.1,53.9 	"/>
	
		<linearGradient id="SVGID_43_" gradientUnits="userSpaceOnUse" x1="906.7903" y1="-948.5507" x2="908.0484" y2="-948.5507" gradientTransform="matrix(0.671 -0.7414 0.7414 0.671 190.0184 1365.5479)">
		<stop  offset="1" style="stop-color:#FFFF00"/>
		<stop  offset="1" style="stop-color:#FDFF00"/>
		<stop  offset="1" style="stop-color:#F6FF01"/>
		<stop  offset="1" style="stop-color:#EBFF02"/>
		<stop  offset="1" style="stop-color:#DAFF04"/>
		<stop  offset="1" style="stop-color:#C4FF06"/>
		<stop  offset="1" style="stop-color:#A8FF09"/>
		<stop  offset="1" style="stop-color:#88FF0C"/>
		<stop  offset="1" style="stop-color:#63FF10"/>
		<stop  offset="1" style="stop-color:#3AFF15"/>
		<stop  offset="1" style="stop-color:#36FF15"/>
	</linearGradient>
	<polygon class="st50" points="98,59.3 98.9,58.4 93.3,53.3 92.4,54.2 	"/>
	
		<linearGradient id="SVGID_44_" gradientUnits="userSpaceOnUse" x1="905.5841" y1="-947.7966" x2="906.8422" y2="-947.7966" gradientTransform="matrix(0.671 -0.7414 0.7414 0.671 190.0184 1365.5479)">
		<stop  offset="1" style="stop-color:#FFFF00"/>
		<stop  offset="1" style="stop-color:#FDFF00"/>
		<stop  offset="1" style="stop-color:#F6FF01"/>
		<stop  offset="1" style="stop-color:#EBFF02"/>
		<stop  offset="1" style="stop-color:#DAFF04"/>
		<stop  offset="1" style="stop-color:#C4FF06"/>
		<stop  offset="1" style="stop-color:#A8FF09"/>
		<stop  offset="1" style="stop-color:#88FF0C"/>
		<stop  offset="1" style="stop-color:#63FF10"/>
		<stop  offset="1" style="stop-color:#3AFF15"/>
		<stop  offset="1" style="stop-color:#36FF15"/>
	</linearGradient>
	<polygon class="st51" points="97.8,60.7 98.6,59.8 93,54.7 92.2,55.7 	"/>
	
		<linearGradient id="SVGID_45_" gradientUnits="userSpaceOnUse" x1="904.2514" y1="-948.7816" x2="905.5095" y2="-948.7816" gradientTransform="matrix(0.671 -0.7414 0.7414 0.671 190.0184 1365.5479)">
		<stop  offset="1" style="stop-color:#FFFF00"/>
		<stop  offset="1" style="stop-color:#FDFF00"/>
		<stop  offset="1" style="stop-color:#F6FF01"/>
		<stop  offset="1" style="stop-color:#EBFF02"/>
		<stop  offset="1" style="stop-color:#DAFF04"/>
		<stop  offset="1" style="stop-color:#C4FF06"/>
		<stop  offset="1" style="stop-color:#A8FF09"/>
		<stop  offset="1" style="stop-color:#88FF0C"/>
		<stop  offset="1" style="stop-color:#63FF10"/>
		<stop  offset="1" style="stop-color:#3AFF15"/>
		<stop  offset="1" style="stop-color:#36FF15"/>
	</linearGradient>
	<polygon class="st52" points="96.2,61 97,60.1 91.4,55 90.6,56 	"/>
</g>
<g id="Слой_8" class="st1">
	
		<linearGradient id="SVGID_46_" gradientUnits="userSpaceOnUse" x1="695.5298" y1="-517.7285" x2="774.7839" y2="-517.7285" gradientTransform="matrix(0.4089 -0.4003 1.1493 1.174 375.819 961.7461)">
		<stop  offset="1" style="stop-color:#FFFF00"/>
		<stop  offset="1" style="stop-color:#FDFF00"/>
		<stop  offset="1" style="stop-color:#F6FF01"/>
		<stop  offset="1" style="stop-color:#EBFF02"/>
		<stop  offset="1" style="stop-color:#DAFF04"/>
		<stop  offset="1" style="stop-color:#C4FF06"/>
		<stop  offset="1" style="stop-color:#A8FF09"/>
		<stop  offset="1" style="stop-color:#88FF0C"/>
		<stop  offset="1" style="stop-color:#63FF10"/>
		<stop  offset="1" style="stop-color:#3AFF15"/>
		<stop  offset="1" style="stop-color:#36FF15"/>
	</linearGradient>
	<path class="st53" d="M98.3,50.3l-26.5,26c-1.6,1.6-4.2,1.6-5.8-0.1l-1.5-1.5c-1.6-1.6-1.6-4.2,0.1-5.8l26.5-26
		c1.6-1.6,4.2-1.6,5.8,0.1l1.5,1.5C99.9,46.1,99.9,48.7,98.3,50.3z"/>
	<g class="st3">
		<g>
			<path class="st54" d="M91.3,46c0.6,0,0.6-1,0-1S90.6,46,91.3,46L91.3,46z"/>
		</g>
	</g>
	<g class="st3">
		<g>
			<path class="st55" d="M66.8,70.3c6.7-6.3,13.3-12.6,20-18.8c1.9-1.8,3.8-3.6,5.7-5.4c0.5-0.4-0.2-1.2-0.7-0.7
				c-6.7,6.3-13.3,12.6-20,18.8c-1.9,1.8-3.8,3.6-5.7,5.4C65.6,70,66.3,70.8,66.8,70.3L66.8,70.3z"/>
		</g>
	</g>
</g>
<g id="Слой_6" class="st1">
	
		<linearGradient id="SVGID_47_" gradientUnits="userSpaceOnUse" x1="-15.0829" y1="-395.6151" x2="12.6146" y2="-395.6151" gradientTransform="matrix(0.9925 0.1222 -0.1222 0.9925 14.0299 472.855)">
		<stop  offset="1" style="stop-color:#FFFF00"/>
		<stop  offset="1" style="stop-color:#FDFF00"/>
		<stop  offset="1" style="stop-color:#F6FF01"/>
		<stop  offset="1" style="stop-color:#EBFF02"/>
		<stop  offset="1" style="stop-color:#DAFF04"/>
		<stop  offset="1" style="stop-color:#C4FF06"/>
		<stop  offset="1" style="stop-color:#A8FF09"/>
		<stop  offset="1" style="stop-color:#88FF0C"/>
		<stop  offset="1" style="stop-color:#63FF10"/>
		<stop  offset="1" style="stop-color:#3AFF15"/>
		<stop  offset="1" style="stop-color:#36FF15"/>
	</linearGradient>
	<path class="st56" d="M73.2,74.4c-0.7,1.4-2.1,2.4-4.1,2.1H69c-0.1,0-0.2,0-0.3,0c2,5.4-1.3,13-8.8,12.1c-11-1.4-8.9-18.5,2.1-17.1
		c0.9,0.1,1.7,0.3,2.4,0.6c0-0.2,0.1-0.3,0.1-0.5c-0.1-1.1,0.2-2.2,0.9-3.1c-0.9-0.3-1.8-0.5-2.8-0.7c-7.6-0.9-14.4,3.8-15.2,10.6
		c-0.8,6.8,4.6,13,12.2,13.9S74,88.5,74.9,81.7C75.2,79.1,74.5,76.6,73.2,74.4z"/>
</g>
<g id="Слой_9" class="st1">
	<polygon class="st57" points="59.5,70.8 58.8,70.4 58.1,70.8 58.2,70 57.7,69.4 58.5,69.3 58.8,68.5 59.2,69.3 60,69.4 59.4,70 	
		"/>
	<polygon class="st57" points="55.5,72.8 54.8,72.4 54,72.8 54.2,72 53.6,71.4 54.4,71.3 54.8,70.6 55.1,71.3 56,71.4 55.4,72 	"/>
	<polygon class="st57" points="52.5,76.3 51.8,75.9 51.1,76.2 51.2,75.4 50.6,74.8 51.5,74.7 51.8,74 52.2,74.8 53,74.9 52.4,75.4 	
		"/>
	<polygon class="st57" points="50.8,79.9 50.1,79.5 49.4,79.8 49.5,79 48.9,78.4 49.8,78.3 50.1,77.6 50.5,78.3 51.3,78.5 
		50.7,79.1 	"/>
	<polygon class="st57" points="51.6,83.8 50.9,83.4 50.1,83.7 50.3,82.9 49.7,82.3 50.5,82.2 50.9,81.5 51.3,82.3 52.1,82.4 
		51.5,82.9 	"/>
	<polygon class="st57" points="53.6,87.8 52.9,87.4 52.2,87.8 52.3,87 51.8,86.4 52.6,86.3 53,85.6 53.3,86.3 54.1,86.4 53.5,87 	
		"/>
	<polygon class="st57" points="57.1,90.8 56.3,90.4 55.6,90.7 55.8,89.9 55.2,89.3 56,89.3 56.4,88.5 56.7,89.3 57.5,89.4 57,90 	
		"/>
	<polygon class="st57" points="62.1,91.4 61.3,91 60.6,91.4 60.8,90.6 60.2,90 61,89.9 61.4,89.1 61.7,89.9 62.5,90 61.9,90.6 	"/>
	<polygon class="st57" points="70,88.6 69.3,88.2 68.6,88.5 68.7,87.7 68.1,87.1 69,87 69.3,86.3 69.7,87.1 70.5,87.2 69.9,87.8 	
		"/>
	<polygon class="st57" points="71.7,85 71,84.6 70.3,84.9 70.4,84.1 69.8,83.6 70.7,83.4 71.1,82.7 71.4,83.5 72.2,83.6 71.6,84.2 	
		"/>
	<polygon class="st57" points="72.2,81.2 71.5,80.8 70.7,81.2 70.9,80.4 70.3,79.8 71.1,79.7 71.5,79 71.9,79.7 72.7,79.8 
		72.1,80.4 	"/>
	<polygon class="st57" points="75.9,71.3 75.1,71.5 74.8,72.3 74.4,71.7 73.5,71.7 74,71 73.7,70.2 74.5,70.5 75.2,70 75.2,70.8 	
		"/>
	<polygon class="st57" points="78.4,68.9 77.6,69.2 77.3,69.9 76.8,69.2 76,69.2 76.6,68.6 76.3,67.8 77.1,68.1 77.8,67.6 
		77.7,68.4 	"/>
	<polygon class="st57" points="66,90.6 65.3,90.2 64.5,90.6 64.7,89.8 64.1,89.2 64.9,89.1 65.3,88.3 65.6,89.1 66.4,89.2 
		65.8,89.8 	"/>
	<polygon class="st57" points="80.8,66.4 80,66.6 79.8,67.4 79.3,66.8 78.5,66.8 79,66.1 78.7,65.3 79.5,65.6 80.1,65.1 80.1,65.9 	
		"/>
	<polygon class="st57" points="83.3,64 82.5,64.2 82.3,65 81.8,64.3 81,64.3 81.5,63.7 81.3,62.9 82,63.2 82.7,62.7 82.7,63.5 	"/>
</g>
<g id="Слой_10">
	<path class="st58" d="M229.6,291.4l65.7,7.6c0,0,63.2,88.4-85.9,58.1s-22.7-139,0-149.1s68.2,10.1,68.2,10.1s39.2,11.4,24-21.5
		c0,0-36.4-37-75.8-20.2s-266.2,169.3-6.6,214.8C377.4,419,368.3,295,368.3,295l-114-12.6C254.3,282.5,210.7,272.4,229.6,291.4z"/>
	
		<linearGradient id="SVGID_48_" gradientUnits="userSpaceOnUse" x1="442.1996" y1="-293.1612" x2="625.591" y2="-293.1612" gradientTransform="matrix(1 0 0 1 0 576)">
		<stop  offset="1" style="stop-color:#FFFF00"/>
		<stop  offset="1" style="stop-color:#FDFF00"/>
		<stop  offset="1" style="stop-color:#F6FF01"/>
		<stop  offset="1" style="stop-color:#EBFF02"/>
		<stop  offset="1" style="stop-color:#DAFF04"/>
		<stop  offset="1" style="stop-color:#C4FF06"/>
		<stop  offset="1" style="stop-color:#A8FF09"/>
		<stop  offset="1" style="stop-color:#88FF0C"/>
		<stop  offset="1" style="stop-color:#63FF10"/>
		<stop  offset="1" style="stop-color:#3AFF15"/>
		<stop  offset="1" style="stop-color:#36FF15"/>
	</linearGradient>
	<path class="st59" d="M536.6,168.9c0,0-88.4,5-93.5,65.7c-5,60.6,7.6,207.2,121.3,149.1c0,0,68.2-22.7,60.6-123.8
		C617.5,158.8,536.6,168.9,536.6,168.9z"/>
	<g>
		
			<linearGradient id="SVGID_49_" gradientUnits="userSpaceOnUse" x1="465.9296" y1="-289.75" x2="603.6013" y2="-289.75" gradientTransform="matrix(1 0 0 1 0 576)">
			<stop  offset="0" style="stop-color:#0E6A00"/>
			<stop  offset="6.880000e-02" style="stop-color:#127A02"/>
			<stop  offset="0.2891" style="stop-color:#1FA909"/>
			<stop  offset="0.4992" style="stop-color:#29CF0E"/>
			<stop  offset="0.6935" style="stop-color:#30E912"/>
			<stop  offset="0.8663" style="stop-color:#34F914"/>
			<stop  offset="1" style="stop-color:#36FF15"/>
		</linearGradient>
		<path class="st60" d="M533,366.7c-24.7,0-40.3-4.6-50.4-15.1c-12.6-13-17.7-35.8-16.5-74c1.9-61.4,20.6-71.8,61.6-71.8
			c7.9,0,16.8,0.4,26.1,0.8l8,0.3c13.4,0.5,23.7,5.5,30.7,14.7c19.6,25.9,7.3,77.5,7.2,77.9c-0.2,0.7-15.1,63.8-45.6,66.1
			C546.2,366.4,539.3,366.7,533,366.7z"/>
	</g>
	
		<ellipse transform="matrix(0.9239 -0.3827 0.3827 0.9239 -167.0975 240.5443)" class="st58" cx="521.1" cy="540.3" rx="24.6" ry="24.6"/>
	
		<ellipse transform="matrix(0.1934 -0.9811 0.9811 0.1934 367.519 554.6517)" class="st58" cx="521.1" cy="53.8" rx="24.6" ry="24.6"/>
	
		<ellipse transform="matrix(0.9951 -9.853759e-02 9.853759e-02 0.9951 -52.0607 26.5051)" class="st58" cx="242.3" cy="540.3" rx="24.6" ry="24.6"/>
	
		<ellipse transform="matrix(0.2425 -0.9701 0.9701 0.2425 131.34 275.8171)" class="st58" cx="242.3" cy="53.8" rx="24.6" ry="24.6"/>
</g>
</svg>
