<?xml version="1.0" encoding="utf-8"?>
<!-- Generator: Adobe Illustrator 24.0.2, SVG Export Plug-In . SVG Version: 6.00 Build 0)  -->
<svg version="1.1" id="Слой_1" xmlns="http://www.w3.org/2000/svg" xmlns:xlink="http://www.w3.org/1999/xlink" x="0px" y="0px"
	 viewBox="0 0 800 600" style="enable-background:new 0 0 800 600;" xml:space="preserve">
<style type="text/css">
	.st0{fill:url(#SVGID_1_);}
	.st1{display:none;}
	.st2{display:inline;fill:#FFFFFF;stroke:#000000;stroke-width:3;stroke-linejoin:round;stroke-miterlimit:10;}
	.st3{display:inline;}
	.st4{fill:#FFFFFF;}
	.st5{display:inline;fill:url(#SVGID_2_);stroke:#000000;stroke-miterlimit:10;}
	.st6{display:inline;fill:url(#SVGID_3_);stroke:#000000;stroke-width:0.5;stroke-miterlimit:10;}
	.st7{display:inline;fill:url(#SVGID_4_);stroke:#000000;stroke-width:0.5;stroke-miterlimit:10;}
	.st8{display:inline;fill:url(#SVGID_5_);stroke:#000000;stroke-width:0.5;stroke-miterlimit:10;}
	.st9{display:inline;fill:url(#SVGID_6_);stroke:#000000;stroke-width:0.5;stroke-miterlimit:10;}
	.st10{fill:url(#SVGID_7_);}
	.st11{display:inline;fill:url(#SVGID_8_);stroke:#000000;stroke-width:0.5;stroke-miterlimit:10;}
	.st12{display:inline;fill:url(#SVGID_9_);stroke:#000000;stroke-width:0.5;stroke-miterlimit:10;}
	.st13{display:inline;fill:url(#SVGID_10_);stroke:#000000;stroke-width:0.5;stroke-miterlimit:10;}
	.st14{display:inline;fill:url(#SVGID_11_);stroke:#000000;stroke-width:0.5;stroke-miterlimit:10;}
	.st15{display:inline;fill:url(#SVGID_12_);}
	.st16{display:inline;fill:url(#SVGID_13_);}
	.st17{display:inline;fill:url(#SVGID_14_);}
	.st18{display:inline;fill:url(#SVGID_15_);}
	.st19{display:inline;fill:url(#SVGID_16_);}
	.st20{display:inline;fill:url(#SVGID_17_);}
	.st21{display:inline;fill:url(#SVGID_18_);}
	.st22{display:inline;fill:url(#SVGID_19_);}
	.st23{display:inline;fill:url(#SVGID_20_);}
	.st24{display:inline;fill:url(#SVGID_21_);}
	.st25{display:inline;fill:url(#SVGID_22_);}
	.st26{display:inline;fill:url(#SVGID_23_);}
	.st27{display:inline;fill:url(#SVGID_24_);}
	.st28{display:inline;fill:url(#SVGID_25_);}
	.st29{display:inline;fill:url(#SVGID_26_);}
	.st30{display:inline;fill:url(#SVGID_27_);}
	.st31{display:inline;fill:url(#SVGID_28_);}
	.st32{display:inline;fill:url(#SVGID_29_);}
	.st33{display:inline;fill:url(#SVGID_30_);}
	.st34{display:inline;fill:url(#SVGID_31_);}
	.st35{display:inline;fill:url(#SVGID_32_);}
	.st36{display:inline;fill:url(#SVGID_33_);}
	.st37{display:inline;fill:url(#SVGID_34_);}
	.st38{display:inline;fill:url(#SVGID_35_);}
	.st39{display:inline;fill:url(#SVGID_36_);}
	.st40{display:inline;fill:url(#SVGID_37_);}
	.st41{display:inline;fill:url(#SVGID_38_);}
	.st42{display:inline;fill:#F7931E;stroke:#000000;stroke-miterlimit:10;}
	.st43{display:inline;fill:none;stroke:#FFFF00;stroke-miterlimit:10;}
	.st44{fill:#DDFF00;stroke:#000000;stroke-width:5.000000e-02;stroke-miterlimit:10;}
	.st45{fill:url(#SVGID_39_);stroke:#000000;stroke-width:5.000000e-02;stroke-miterlimit:10;}
	.st46{fill:url(#SVGID_40_);stroke:#000000;stroke-width:5.000000e-02;stroke-miterlimit:10;}
	.st47{fill:url(#SVGID_41_);stroke:#000000;stroke-width:5.000000e-02;stroke-miterlimit:10;}
	.st48{fill:url(#SVGID_42_);stroke:#000000;stroke-width:5.000000e-02;stroke-miterlimit:10;}
	.st49{fill:url(#SVGID_43_);stroke:#000000;stroke-width:5.000000e-02;stroke-miterlimit:10;}
	.st50{fill:url(#SVGID_44_);stroke:#000000;stroke-width:5.000000e-02;stroke-miterlimit:10;}
	.st51{fill:url(#SVGID_45_);stroke:#000000;stroke-width:5.000000e-02;stroke-miterlimit:10;}
	.st52{fill:#FFFF00;}
	.st53{fill:#FCEE21;}
	.st54{fill:url(#SVGID_46_);stroke:#000000;stroke-width:5.000000e-02;stroke-miterlimit:10;}
	.st55{fill:none;stroke:#00FFFF;stroke-width:0.25;stroke-miterlimit:10;}
</style>
<g id="Слой_4">
	<g>
		
			<linearGradient id="SVGID_1_" gradientUnits="userSpaceOnUse" x1="747.847" y1="301.4157" x2="95.905" y2="304.8835" gradientTransform="matrix(1 0 0 -1 0 600)">
			<stop  offset="0" style="stop-color:#0E6A00"/>
			<stop  offset="6.880000e-02" style="stop-color:#127A02"/>
			<stop  offset="0.2891" style="stop-color:#1FA909"/>
			<stop  offset="0.4992" style="stop-color:#29CF0E"/>
			<stop  offset="0.6935" style="stop-color:#30E912"/>
			<stop  offset="0.8663" style="stop-color:#34F914"/>
			<stop  offset="1" style="stop-color:#36FF15"/>
		</linearGradient>
		<polygon class="st0" points="81.2,299.1 242.1,15.7 568.1,13.3 733.1,294.3 572.2,577.9 246.3,580.3 		"/>
		<path d="M566.5,16L730,294.4L570.6,575.2l-322.9,2.4L84.3,299.1L243.7,18.4L566.5,16 M569.6,10.5l-329.1,2.4L78,299.2L244.7,583
			l329.1-2.4l162.5-286.3L569.6,10.5L569.6,10.5z"/>
	</g>
</g>
<g id="Слой_3" class="st1">
	<rect x="31.5" y="45" class="st2" width="81" height="41.5"/>
</g>
<g id="Слой_1_1_" class="st1">
	<g class="st3">
		<path class="st4" d="M31.5,86.5V44.1c0,0,0,0,0,0c0.2-0.2,0.4-0.3,0.6-0.6h79.9c0.1,0.2,0.2,0.3,0.3,0.4c0,0,0.1,0.1,0.1,0.1v42.4
			H31.5z"/>
		<path d="M111.8,44c0.1,0.1,0.1,0.1,0.2,0.2c0,0,0,0,0,0V86H32V44.3c0.1-0.1,0.2-0.2,0.4-0.3H111.8 M112.3,43H31.8c0,0,0,0.1,0,0.1
			c-0.1,0.2-0.4,0.4-0.6,0.6c-0.1,0.1-0.1,0.2-0.2,0.2V87h82V43.8c0,0-0.1,0-0.1,0c-0.1,0-0.1-0.1-0.1-0.1
			C112.6,43.4,112.5,43.2,112.3,43L112.3,43z"/>
	</g>
	
		<linearGradient id="SVGID_2_" gradientUnits="userSpaceOnUse" x1="72" y1="565.5691" x2="72" y2="548.7001" gradientTransform="matrix(1 0 0 -1 0 600)">
		<stop  offset="0" style="stop-color:#F7931E"/>
		<stop  offset="0.1022" style="stop-color:#DB821B"/>
		<stop  offset="0.3235" style="stop-color:#935812"/>
		<stop  offset="0.6446" style="stop-color:#221404"/>
		<stop  offset="0.7363" style="stop-color:#000000"/>
	</linearGradient>
	<path class="st5" d="M113,44.5c-44.5-30.4-82,0-82,0H113z"/>
	
		<linearGradient id="SVGID_3_" gradientUnits="userSpaceOnUse" x1="31.5" y1="550" x2="112.5" y2="550" gradientTransform="matrix(1 0 0 -1 0 600)">
		<stop  offset="0.2426" style="stop-color:#F15A24"/>
		<stop  offset="0.4315" style="stop-color:#EF5924"/>
		<stop  offset="0.537" style="stop-color:#E75622"/>
		<stop  offset="0.6221" style="stop-color:#D95120"/>
		<stop  offset="0.6962" style="stop-color:#C54A1D"/>
		<stop  offset="0.7632" style="stop-color:#AC401A"/>
		<stop  offset="0.825" style="stop-color:#8C3415"/>
		<stop  offset="0.883" style="stop-color:#67260F"/>
		<stop  offset="0.9378" style="stop-color:#3C1609"/>
		<stop  offset="0.9883" style="stop-color:#0C0502"/>
		<stop  offset="1" style="stop-color:#000000"/>
	</linearGradient>
	<rect x="31.5" y="48.5" class="st6" width="81" height="3"/>
	
		<linearGradient id="SVGID_4_" gradientUnits="userSpaceOnUse" x1="31.5" y1="538.5" x2="112.5" y2="538.5" gradientTransform="matrix(1 0 0 -1 0 600)">
		<stop  offset="0.2426" style="stop-color:#F15A24"/>
		<stop  offset="0.3261" style="stop-color:#EC5823"/>
		<stop  offset="0.4229" style="stop-color:#DE5321"/>
		<stop  offset="0.5261" style="stop-color:#C74A1E"/>
		<stop  offset="0.634" style="stop-color:#A63E19"/>
		<stop  offset="0.7455" style="stop-color:#7D2F13"/>
		<stop  offset="0.86" style="stop-color:#491B0B"/>
		<stop  offset="0.9749" style="stop-color:#0E0502"/>
		<stop  offset="1" style="stop-color:#000000"/>
	</linearGradient>
	<rect x="31.5" y="59.5" class="st7" width="81" height="4"/>
	
		<linearGradient id="SVGID_5_" gradientUnits="userSpaceOnUse" x1="31.5" y1="527.5" x2="112.5" y2="527.5" gradientTransform="matrix(1 0 0 -1 0 600)">
		<stop  offset="0.2426" style="stop-color:#F15A24"/>
		<stop  offset="0.4582" style="stop-color:#9D3B17"/>
		<stop  offset="0.6505" style="stop-color:#5A220D"/>
		<stop  offset="0.8103" style="stop-color:#290F06"/>
		<stop  offset="0.9315" style="stop-color:#0B0402"/>
		<stop  offset="1" style="stop-color:#000000"/>
	</linearGradient>
	<rect x="31.5" y="70.5" class="st8" width="81" height="4"/>
	
		<linearGradient id="SVGID_6_" gradientUnits="userSpaceOnUse" x1="31.5" y1="517" x2="112.5" y2="517" gradientTransform="matrix(1 0 0 -1 0 600)">
		<stop  offset="0.2426" style="stop-color:#F15A24"/>
		<stop  offset="0.3068" style="stop-color:#CB4C1E"/>
		<stop  offset="0.407" style="stop-color:#963816"/>
		<stop  offset="0.5086" style="stop-color:#682710"/>
		<stop  offset="0.6095" style="stop-color:#42190A"/>
		<stop  offset="0.7095" style="stop-color:#250E06"/>
		<stop  offset="0.8085" style="stop-color:#110602"/>
		<stop  offset="0.9059" style="stop-color:#040201"/>
		<stop  offset="1" style="stop-color:#000000"/>
	</linearGradient>
	<rect x="31.5" y="81.5" class="st9" width="81" height="3"/>
	<g class="st3">
		
			<linearGradient id="SVGID_7_" gradientUnits="userSpaceOnUse" x1="31.25" y1="553.5" x2="112.75" y2="553.5" gradientTransform="matrix(1 0 0 -1 0 600)">
			<stop  offset="0.6157" style="stop-color:#F7931E"/>
			<stop  offset="0.6527" style="stop-color:#CB7919"/>
			<stop  offset="0.7029" style="stop-color:#965912"/>
			<stop  offset="0.7538" style="stop-color:#683E0D"/>
			<stop  offset="0.8044" style="stop-color:#422808"/>
			<stop  offset="0.8545" style="stop-color:#251605"/>
			<stop  offset="0.904" style="stop-color:#110A02"/>
			<stop  offset="0.9529" style="stop-color:#040201"/>
			<stop  offset="1" style="stop-color:#000000"/>
		</linearGradient>
		<rect x="31.3" y="44.3" class="st10" width="81.5" height="4.5"/>
		<path d="M112.5,44.5v4h-81v-4H112.5 M113,44H31v5h82V44L113,44z"/>
	</g>
	
		<linearGradient id="SVGID_8_" gradientUnits="userSpaceOnUse" x1="31.5" y1="544.5" x2="112.5" y2="544.5" gradientTransform="matrix(1 0 0 -1 0 600)">
		<stop  offset="0.3792" style="stop-color:#F7931E"/>
		<stop  offset="0.4457" style="stop-color:#F2901D"/>
		<stop  offset="0.5238" style="stop-color:#E4881C"/>
		<stop  offset="0.6079" style="stop-color:#CC7919"/>
		<stop  offset="0.6962" style="stop-color:#AB6615"/>
		<stop  offset="0.7877" style="stop-color:#804C10"/>
		<stop  offset="0.882" style="stop-color:#4C2D09"/>
		<stop  offset="0.9768" style="stop-color:#100A02"/>
		<stop  offset="1" style="stop-color:#000000"/>
	</linearGradient>
	<rect x="31.5" y="51.5" class="st11" width="81" height="8"/>
	
		<linearGradient id="SVGID_9_" gradientUnits="userSpaceOnUse" x1="31.5" y1="533" x2="112.5" y2="533" gradientTransform="matrix(1 0 0 -1 0 600)">
		<stop  offset="0.3792" style="stop-color:#F7931E"/>
		<stop  offset="0.4457" style="stop-color:#F2901D"/>
		<stop  offset="0.5238" style="stop-color:#E4881C"/>
		<stop  offset="0.6079" style="stop-color:#CC7919"/>
		<stop  offset="0.6962" style="stop-color:#AB6615"/>
		<stop  offset="0.7877" style="stop-color:#804C10"/>
		<stop  offset="0.882" style="stop-color:#4C2D09"/>
		<stop  offset="0.9768" style="stop-color:#100A02"/>
		<stop  offset="1" style="stop-color:#000000"/>
	</linearGradient>
	<rect x="31.5" y="63.5" class="st12" width="81" height="7"/>
	
		<linearGradient id="SVGID_10_" gradientUnits="userSpaceOnUse" x1="31.5" y1="522" x2="112.5" y2="522" gradientTransform="matrix(1 0 0 -1 0 600)">
		<stop  offset="0.3792" style="stop-color:#F7931E"/>
		<stop  offset="0.4457" style="stop-color:#F2901D"/>
		<stop  offset="0.5238" style="stop-color:#E4881C"/>
		<stop  offset="0.6079" style="stop-color:#CC7919"/>
		<stop  offset="0.6962" style="stop-color:#AB6615"/>
		<stop  offset="0.7877" style="stop-color:#804C10"/>
		<stop  offset="0.882" style="stop-color:#4C2D09"/>
		<stop  offset="0.9768" style="stop-color:#100A02"/>
		<stop  offset="1" style="stop-color:#000000"/>
	</linearGradient>
	<rect x="31.5" y="74.5" class="st13" width="81" height="7"/>
	
		<linearGradient id="SVGID_11_" gradientUnits="userSpaceOnUse" x1="31.5" y1="514.5" x2="112.5" y2="514.5" gradientTransform="matrix(1 0 0 -1 0 600)">
		<stop  offset="0.3792" style="stop-color:#F7931E"/>
		<stop  offset="0.4457" style="stop-color:#F2901D"/>
		<stop  offset="0.5238" style="stop-color:#E4881C"/>
		<stop  offset="0.6079" style="stop-color:#CC7919"/>
		<stop  offset="0.6962" style="stop-color:#AB6615"/>
		<stop  offset="0.7877" style="stop-color:#804C10"/>
		<stop  offset="0.882" style="stop-color:#4C2D09"/>
		<stop  offset="0.9768" style="stop-color:#100A02"/>
		<stop  offset="1" style="stop-color:#000000"/>
	</linearGradient>
	<rect x="31.5" y="84.5" class="st14" width="81" height="2"/>
	
		<linearGradient id="SVGID_12_" gradientUnits="userSpaceOnUse" x1="34.3333" y1="554.6555" x2="34.3854" y2="551.9261" gradientTransform="matrix(1 0 0 -1 0 600)">
		<stop  offset="0" style="stop-color:#F2F2F2"/>
		<stop  offset="6.781822e-03" style="stop-color:#F1F1F1"/>
		<stop  offset="0.2196" style="stop-color:#DDDDDD"/>
		<stop  offset="0.4298" style="stop-color:#D0D0D0"/>
		<stop  offset="0.6328" style="stop-color:#CCCCCC"/>
	</linearGradient>
	<circle class="st15" cx="34.3" cy="46.2" r="1.2"/>
	
		<linearGradient id="SVGID_13_" gradientUnits="userSpaceOnUse" x1="34.3629" y1="547.7059" x2="34.4163" y2="544.9109" gradientTransform="matrix(1 0 0 -1 0 600)">
		<stop  offset="0" style="stop-color:#F2F2F2"/>
		<stop  offset="6.781822e-03" style="stop-color:#F1F1F1"/>
		<stop  offset="0.2196" style="stop-color:#DDDDDD"/>
		<stop  offset="0.4298" style="stop-color:#D0D0D0"/>
		<stop  offset="0.6328" style="stop-color:#CCCCCC"/>
	</linearGradient>
	<circle class="st16" cx="34.4" cy="53.2" r="1.3"/>
	
		<linearGradient id="SVGID_14_" gradientUnits="userSpaceOnUse" x1="34.3629" y1="543.7059" x2="34.4163" y2="540.9109" gradientTransform="matrix(1 0 0 -1 0 600)">
		<stop  offset="0" style="stop-color:#F2F2F2"/>
		<stop  offset="6.781822e-03" style="stop-color:#F1F1F1"/>
		<stop  offset="0.2196" style="stop-color:#DDDDDD"/>
		<stop  offset="0.4298" style="stop-color:#D0D0D0"/>
		<stop  offset="0.6328" style="stop-color:#CCCCCC"/>
	</linearGradient>
	<circle class="st17" cx="34.4" cy="57.2" r="1.3"/>
	
		<linearGradient id="SVGID_15_" gradientUnits="userSpaceOnUse" x1="34.3629" y1="535.7059" x2="34.4163" y2="532.9109" gradientTransform="matrix(1 0 0 -1 0 600)">
		<stop  offset="0" style="stop-color:#F2F2F2"/>
		<stop  offset="6.781822e-03" style="stop-color:#F1F1F1"/>
		<stop  offset="0.2196" style="stop-color:#DDDDDD"/>
		<stop  offset="0.4298" style="stop-color:#D0D0D0"/>
		<stop  offset="0.6328" style="stop-color:#CCCCCC"/>
	</linearGradient>
	<circle class="st18" cx="34.4" cy="65.2" r="1.3"/>
	
		<linearGradient id="SVGID_16_" gradientUnits="userSpaceOnUse" x1="34.3629" y1="531.7059" x2="34.4163" y2="528.9109" gradientTransform="matrix(1 0 0 -1 0 600)">
		<stop  offset="0" style="stop-color:#F2F2F2"/>
		<stop  offset="6.781822e-03" style="stop-color:#F1F1F1"/>
		<stop  offset="0.2196" style="stop-color:#DDDDDD"/>
		<stop  offset="0.4298" style="stop-color:#D0D0D0"/>
		<stop  offset="0.6328" style="stop-color:#CCCCCC"/>
	</linearGradient>
	<circle class="st19" cx="34.4" cy="69.2" r="1.3"/>
	
		<linearGradient id="SVGID_17_" gradientUnits="userSpaceOnUse" x1="34.3629" y1="524.7059" x2="34.4163" y2="521.9109" gradientTransform="matrix(1 0 0 -1 0 600)">
		<stop  offset="0" style="stop-color:#F2F2F2"/>
		<stop  offset="6.781822e-03" style="stop-color:#F1F1F1"/>
		<stop  offset="0.2196" style="stop-color:#DDDDDD"/>
		<stop  offset="0.4298" style="stop-color:#D0D0D0"/>
		<stop  offset="0.6328" style="stop-color:#CCCCCC"/>
	</linearGradient>
	<circle class="st20" cx="34.4" cy="76.2" r="1.3"/>
	
		<linearGradient id="SVGID_18_" gradientUnits="userSpaceOnUse" x1="34.3629" y1="520.7059" x2="34.4163" y2="517.9109" gradientTransform="matrix(1 0 0 -1 0 600)">
		<stop  offset="0" style="stop-color:#F2F2F2"/>
		<stop  offset="6.781822e-03" style="stop-color:#F1F1F1"/>
		<stop  offset="0.2196" style="stop-color:#DDDDDD"/>
		<stop  offset="0.4298" style="stop-color:#D0D0D0"/>
		<stop  offset="0.6328" style="stop-color:#CCCCCC"/>
	</linearGradient>
	<circle class="st21" cx="34.4" cy="80.2" r="1.3"/>
	
		<linearGradient id="SVGID_19_" gradientUnits="userSpaceOnUse" x1="108.2001" y1="553.7905" x2="110.7217" y2="553.7711" gradientTransform="matrix(1 0 0 -1 0 600)">
		<stop  offset="0" style="stop-color:#F2F2F2"/>
		<stop  offset="6.740000e-02" style="stop-color:#D9D9D9"/>
		<stop  offset="0.2575" style="stop-color:#989898"/>
		<stop  offset="0.4385" style="stop-color:#626262"/>
		<stop  offset="0.6056" style="stop-color:#373737"/>
		<stop  offset="0.7557" style="stop-color:#191919"/>
		<stop  offset="0.8836" style="stop-color:#070707"/>
		<stop  offset="0.9741" style="stop-color:#000000"/>
	</linearGradient>
	<circle class="st22" cx="109.6" cy="46.2" r="1.2"/>
	
		<linearGradient id="SVGID_20_" gradientUnits="userSpaceOnUse" x1="108.0166" y1="546.8205" x2="110.5382" y2="546.8011" gradientTransform="matrix(1 0 0 -1 0 600)">
		<stop  offset="0" style="stop-color:#F2F2F2"/>
		<stop  offset="6.740000e-02" style="stop-color:#D9D9D9"/>
		<stop  offset="0.2575" style="stop-color:#989898"/>
		<stop  offset="0.4385" style="stop-color:#626262"/>
		<stop  offset="0.6056" style="stop-color:#373737"/>
		<stop  offset="0.7557" style="stop-color:#191919"/>
		<stop  offset="0.8836" style="stop-color:#070707"/>
		<stop  offset="0.9741" style="stop-color:#000000"/>
	</linearGradient>
	<circle class="st23" cx="109.4" cy="53.2" r="1.2"/>
	
		<linearGradient id="SVGID_21_" gradientUnits="userSpaceOnUse" x1="108.0166" y1="542.8205" x2="110.5382" y2="542.8011" gradientTransform="matrix(1 0 0 -1 0 600)">
		<stop  offset="0" style="stop-color:#F2F2F2"/>
		<stop  offset="6.740000e-02" style="stop-color:#D9D9D9"/>
		<stop  offset="0.2575" style="stop-color:#989898"/>
		<stop  offset="0.4385" style="stop-color:#626262"/>
		<stop  offset="0.6056" style="stop-color:#373737"/>
		<stop  offset="0.7557" style="stop-color:#191919"/>
		<stop  offset="0.8836" style="stop-color:#070707"/>
		<stop  offset="0.9741" style="stop-color:#000000"/>
	</linearGradient>
	<circle class="st24" cx="109.4" cy="57.2" r="1.2"/>
	
		<linearGradient id="SVGID_22_" gradientUnits="userSpaceOnUse" x1="108.0166" y1="534.8205" x2="110.5382" y2="534.8011" gradientTransform="matrix(1 0 0 -1 0 600)">
		<stop  offset="0" style="stop-color:#F2F2F2"/>
		<stop  offset="6.740000e-02" style="stop-color:#D9D9D9"/>
		<stop  offset="0.2575" style="stop-color:#989898"/>
		<stop  offset="0.4385" style="stop-color:#626262"/>
		<stop  offset="0.6056" style="stop-color:#373737"/>
		<stop  offset="0.7557" style="stop-color:#191919"/>
		<stop  offset="0.8836" style="stop-color:#070707"/>
		<stop  offset="0.9741" style="stop-color:#000000"/>
	</linearGradient>
	<circle class="st25" cx="109.4" cy="65.2" r="1.2"/>
	
		<linearGradient id="SVGID_23_" gradientUnits="userSpaceOnUse" x1="108.0166" y1="530.8205" x2="110.5382" y2="530.8011" gradientTransform="matrix(1 0 0 -1 0 600)">
		<stop  offset="0" style="stop-color:#F2F2F2"/>
		<stop  offset="6.740000e-02" style="stop-color:#D9D9D9"/>
		<stop  offset="0.2575" style="stop-color:#989898"/>
		<stop  offset="0.4385" style="stop-color:#626262"/>
		<stop  offset="0.6056" style="stop-color:#373737"/>
		<stop  offset="0.7557" style="stop-color:#191919"/>
		<stop  offset="0.8836" style="stop-color:#070707"/>
		<stop  offset="0.9741" style="stop-color:#000000"/>
	</linearGradient>
	<circle class="st26" cx="109.4" cy="69.2" r="1.2"/>
	
		<linearGradient id="SVGID_24_" gradientUnits="userSpaceOnUse" x1="108.0166" y1="523.8205" x2="110.5382" y2="523.8011" gradientTransform="matrix(1 0 0 -1 0 600)">
		<stop  offset="0" style="stop-color:#F2F2F2"/>
		<stop  offset="6.740000e-02" style="stop-color:#D9D9D9"/>
		<stop  offset="0.2575" style="stop-color:#989898"/>
		<stop  offset="0.4385" style="stop-color:#626262"/>
		<stop  offset="0.6056" style="stop-color:#373737"/>
		<stop  offset="0.7557" style="stop-color:#191919"/>
		<stop  offset="0.8836" style="stop-color:#070707"/>
		<stop  offset="0.9741" style="stop-color:#000000"/>
	</linearGradient>
	<circle class="st27" cx="109.4" cy="76.2" r="1.2"/>
	
		<linearGradient id="SVGID_25_" gradientUnits="userSpaceOnUse" x1="108.0166" y1="519.8205" x2="110.5382" y2="519.8011" gradientTransform="matrix(1 0 0 -1 0 600)">
		<stop  offset="0" style="stop-color:#F2F2F2"/>
		<stop  offset="6.740000e-02" style="stop-color:#D9D9D9"/>
		<stop  offset="0.2575" style="stop-color:#989898"/>
		<stop  offset="0.4385" style="stop-color:#626262"/>
		<stop  offset="0.6056" style="stop-color:#373737"/>
		<stop  offset="0.7557" style="stop-color:#191919"/>
		<stop  offset="0.8836" style="stop-color:#070707"/>
		<stop  offset="0.9741" style="stop-color:#000000"/>
	</linearGradient>
	<circle class="st28" cx="109.4" cy="80.2" r="1.2"/>
	
		<linearGradient id="SVGID_26_" gradientUnits="userSpaceOnUse" x1="38.6433" y1="558.8052" x2="38.6954" y2="556.0762" gradientTransform="matrix(1 0 0 -1 0 600)">
		<stop  offset="0" style="stop-color:#F2F2F2"/>
		<stop  offset="4.370000e-02" style="stop-color:#E8EDED"/>
		<stop  offset="0.194" style="stop-color:#CBDFDF"/>
		<stop  offset="0.3435" style="stop-color:#B7D4D4"/>
		<stop  offset="0.4907" style="stop-color:#AACECE"/>
		<stop  offset="0.6328" style="stop-color:#A6CCCC"/>
	</linearGradient>
	<circle class="st29" cx="38.7" cy="42.1" r="1.2"/>
	
		<linearGradient id="SVGID_27_" gradientUnits="userSpaceOnUse" x1="45.5532" y1="561.7271" x2="45.6054" y2="558.9983" gradientTransform="matrix(1 0 0 -1 0 600)">
		<stop  offset="0" style="stop-color:#F2F2F2"/>
		<stop  offset="4.370000e-02" style="stop-color:#E8EDED"/>
		<stop  offset="0.194" style="stop-color:#CBDFDF"/>
		<stop  offset="0.3435" style="stop-color:#B7D4D4"/>
		<stop  offset="0.4907" style="stop-color:#AACECE"/>
		<stop  offset="0.6328" style="stop-color:#A6CCCC"/>
	</linearGradient>
	<circle class="st30" cx="45.6" cy="39.2" r="1.2"/>
	
		<linearGradient id="SVGID_28_" gradientUnits="userSpaceOnUse" x1="51.5532" y1="563.7271" x2="51.6054" y2="560.9983" gradientTransform="matrix(1 0 0 -1 0 600)">
		<stop  offset="0" style="stop-color:#F2F2F2"/>
		<stop  offset="4.370000e-02" style="stop-color:#E8EDED"/>
		<stop  offset="0.194" style="stop-color:#CBDFDF"/>
		<stop  offset="0.3435" style="stop-color:#B7D4D4"/>
		<stop  offset="0.4907" style="stop-color:#AACECE"/>
		<stop  offset="0.6328" style="stop-color:#A6CCCC"/>
	</linearGradient>
	<circle class="st31" cx="51.6" cy="37.2" r="1.2"/>
	
		<linearGradient id="SVGID_29_" gradientUnits="userSpaceOnUse" x1="57.5532" y1="565.7271" x2="57.6054" y2="562.9983" gradientTransform="matrix(1 0 0 -1 0 600)">
		<stop  offset="0" style="stop-color:#F2F2F2"/>
		<stop  offset="4.370000e-02" style="stop-color:#E8EDED"/>
		<stop  offset="0.194" style="stop-color:#CBDFDF"/>
		<stop  offset="0.3435" style="stop-color:#B7D4D4"/>
		<stop  offset="0.4907" style="stop-color:#AACECE"/>
		<stop  offset="0.6328" style="stop-color:#A6CCCC"/>
	</linearGradient>
	<circle class="st32" cx="57.6" cy="35.2" r="1.2"/>
	
		<linearGradient id="SVGID_30_" gradientUnits="userSpaceOnUse" x1="63.5532" y1="566.7271" x2="63.6054" y2="563.9983" gradientTransform="matrix(1 0 0 -1 0 600)">
		<stop  offset="0" style="stop-color:#F2F2F2"/>
		<stop  offset="4.370000e-02" style="stop-color:#E8EDED"/>
		<stop  offset="0.194" style="stop-color:#CBDFDF"/>
		<stop  offset="0.3435" style="stop-color:#B7D4D4"/>
		<stop  offset="0.4907" style="stop-color:#AACECE"/>
		<stop  offset="0.6328" style="stop-color:#A6CCCC"/>
	</linearGradient>
	<circle class="st33" cx="63.6" cy="34.2" r="1.2"/>
	
		<linearGradient id="SVGID_31_" gradientUnits="userSpaceOnUse" x1="69.5532" y1="567.7271" x2="69.6054" y2="564.9983" gradientTransform="matrix(1 0 0 -1 0 600)">
		<stop  offset="0" style="stop-color:#F2F2F2"/>
		<stop  offset="4.370000e-02" style="stop-color:#E8EDED"/>
		<stop  offset="0.194" style="stop-color:#CBDFDF"/>
		<stop  offset="0.3435" style="stop-color:#B7D4D4"/>
		<stop  offset="0.4907" style="stop-color:#AACECE"/>
		<stop  offset="0.6328" style="stop-color:#A6CCCC"/>
	</linearGradient>
	<circle class="st34" cx="69.6" cy="33.2" r="1.2"/>
	
		<linearGradient id="SVGID_32_" gradientUnits="userSpaceOnUse" x1="74.9966" y1="566.8687" x2="77.7245" y2="566.7798" gradientTransform="matrix(1 0 0 -1 0 600)">
		<stop  offset="0" style="stop-color:#F2F2F2"/>
		<stop  offset="0.1193" style="stop-color:#EEEEEE"/>
		<stop  offset="0.2472" style="stop-color:#E1E1E1"/>
		<stop  offset="0.3792" style="stop-color:#CBCBCB"/>
		<stop  offset="0.5139" style="stop-color:#ADADAD"/>
		<stop  offset="0.6508" style="stop-color:#878787"/>
		<stop  offset="0.7895" style="stop-color:#575757"/>
		<stop  offset="0.9271" style="stop-color:#202020"/>
		<stop  offset="1" style="stop-color:#000000"/>
	</linearGradient>
	<circle class="st35" cx="75.6" cy="33.2" r="1.2"/>
	
		<linearGradient id="SVGID_33_" gradientUnits="userSpaceOnUse" x1="79.5599" y1="565.8731" x2="82.2886" y2="565.8106" gradientTransform="matrix(1 0 0 -1 0 600)">
		<stop  offset="0" style="stop-color:#F2F2F2"/>
		<stop  offset="8.820000e-02" style="stop-color:#E9E9E9"/>
		<stop  offset="0.2339" style="stop-color:#D0D0D0"/>
		<stop  offset="0.419" style="stop-color:#A7A7A7"/>
		<stop  offset="0.6363" style="stop-color:#6E6E6E"/>
		<stop  offset="0.878" style="stop-color:#272727"/>
		<stop  offset="1" style="stop-color:#000000"/>
	</linearGradient>
	<circle class="st36" cx="80.6" cy="34.2" r="1.2"/>
	
		<linearGradient id="SVGID_34_" gradientUnits="userSpaceOnUse" x1="84.1413" y1="564.8354" x2="86.8705" y2="564.8632" gradientTransform="matrix(1 0 0 -1 0 600)">
		<stop  offset="0" style="stop-color:#F2F2F2"/>
		<stop  offset="0.2284" style="stop-color:#EFEFEF"/>
		<stop  offset="0.3669" style="stop-color:#E7E7E7"/>
		<stop  offset="0.4813" style="stop-color:#D9D9D9"/>
		<stop  offset="0.5827" style="stop-color:#C4C4C4"/>
		<stop  offset="0.6755" style="stop-color:#AAAAAA"/>
		<stop  offset="0.762" style="stop-color:#898989"/>
		<stop  offset="0.8436" style="stop-color:#636363"/>
		<stop  offset="0.9214" style="stop-color:#363636"/>
		<stop  offset="0.9935" style="stop-color:#050505"/>
		<stop  offset="1" style="stop-color:#000000"/>
	</linearGradient>
	<circle class="st37" cx="85.6" cy="35.2" r="1.2"/>
	
		<linearGradient id="SVGID_35_" gradientUnits="userSpaceOnUse" x1="88.8406" y1="563.8778" x2="91.5696" y2="563.8339" gradientTransform="matrix(1 0 0 -1 0 600)">
		<stop  offset="0" style="stop-color:#F2F2F2"/>
		<stop  offset="0.2055" style="stop-color:#EFEFEF"/>
		<stop  offset="0.3425" style="stop-color:#E6E6E6"/>
		<stop  offset="0.4596" style="stop-color:#D7D7D7"/>
		<stop  offset="0.5654" style="stop-color:#C2C2C2"/>
		<stop  offset="0.6637" style="stop-color:#A6A6A6"/>
		<stop  offset="0.7565" style="stop-color:#848484"/>
		<stop  offset="0.8449" style="stop-color:#5C5C5C"/>
		<stop  offset="0.9276" style="stop-color:#2E2E2E"/>
		<stop  offset="1" style="stop-color:#000000"/>
	</linearGradient>
	<circle class="st38" cx="90.6" cy="36.2" r="1.2"/>
	
		<linearGradient id="SVGID_36_" gradientUnits="userSpaceOnUse" x1="93.9042" y1="561.8372" x2="96.6335" y2="561.8582" gradientTransform="matrix(1 0 0 -1 0 600)">
		<stop  offset="0" style="stop-color:#F2F2F2"/>
		<stop  offset="0.1528" style="stop-color:#EFEFEF"/>
		<stop  offset="0.2846" style="stop-color:#E4E4E4"/>
		<stop  offset="0.4086" style="stop-color:#D2D2D2"/>
		<stop  offset="0.5279" style="stop-color:#B9B9B9"/>
		<stop  offset="0.6438" style="stop-color:#999999"/>
		<stop  offset="0.7571" style="stop-color:#717171"/>
		<stop  offset="0.8684" style="stop-color:#424242"/>
		<stop  offset="0.9755" style="stop-color:#0D0D0D"/>
		<stop  offset="1" style="stop-color:#000000"/>
	</linearGradient>
	<circle class="st39" cx="95.6" cy="38.2" r="1.2"/>
	
		<linearGradient id="SVGID_37_" gradientUnits="userSpaceOnUse" x1="97.9673" y1="559.9091" x2="100.6948" y2="559.8085" gradientTransform="matrix(1 0 0 -1 0 600)">
		<stop  offset="0" style="stop-color:#F2F2F2"/>
		<stop  offset="9.010001e-02" style="stop-color:#E7E7E7"/>
		<stop  offset="0.2497" style="stop-color:#C9C9C9"/>
		<stop  offset="0.4601" style="stop-color:#989898"/>
		<stop  offset="0.7133" style="stop-color:#555555"/>
		<stop  offset="1" style="stop-color:#000000"/>
	</linearGradient>
	<circle class="st40" cx="99.6" cy="40.2" r="1.2"/>
	
		<linearGradient id="SVGID_38_" gradientUnits="userSpaceOnUse" x1="102.9762" y1="557.8823" x2="105.705" y2="557.827" gradientTransform="matrix(1 0 0 -1 0 600)">
		<stop  offset="0" style="stop-color:#F2F2F2"/>
		<stop  offset="4.349649e-03" style="stop-color:#F1F1F1"/>
		<stop  offset="0.2895" style="stop-color:#9C9C9C"/>
		<stop  offset="0.5415" style="stop-color:#595959"/>
		<stop  offset="0.7509" style="stop-color:#292929"/>
		<stop  offset="0.91" style="stop-color:#0B0B0B"/>
		<stop  offset="1" style="stop-color:#000000"/>
	</linearGradient>
	<circle class="st41" cx="104.6" cy="42.2" r="1.2"/>
</g>
<g id="Слой_2_1_" class="st1">
	<path class="st42" d="M71,75.7"/>
	<path class="st42" d="M71,75.7c-6.1,0-11-4.9-11-11s4.9-11,11-11s11,4.9,11,11S77.1,75.7,71,75.7"/>
	<path class="st43" d="M66,70.4c1.8,2.1,4.3,2.8,6.1,1.9c1.2-0.6,2.5-1.9,2.4-3.4c-0.1-2.1-3-3.3-3.3-3.4c-1.9-0.8-3,0-3.8-1
		c-0.8-0.9-0.4-2.6,0-3.4c0.1-0.3,0.7-1.4,1.9-2c1.3-0.6,2.5-0.1,2.8,0c1.1,0.4,1.7,1.1,1.9,1.5"/>
	<line class="st43" x1="72.6" y1="56.2" x2="71.2" y2="74.2"/>
	<line class="st43" x1="70.3" y1="56.2" x2="68.4" y2="74.2"/>
</g>
<g id="Слой_5">
	<polygon class="st44" points="566.2,53.4 541.1,79.1 548,114.4 515.7,98.5 484.3,116 489.5,80.4 463.2,55.9 498.6,49.9 513.7,17.2 
		530.5,49.1 	"/>
	<polygon class="st44" points="340,54 314.8,79.7 321.8,115 289.6,99.1 258.1,116.6 263.3,81 237,56.5 272.4,50.5 287.6,17.8 
		304.3,49.7 	"/>
	<polygon class="st44" points="457.3,53.7 432.1,79.5 439.1,114.8 406.9,98.8 375.4,116.3 380.7,80.8 354.2,56.2 389.7,50.2 
		404.8,17.6 421.6,49.4 	"/>
</g>
<g id="Слой_7">
	
		<linearGradient id="SVGID_39_" gradientUnits="userSpaceOnUse" x1="727.4514" y1="311.9729" x2="734.3047" y2="311.9729" gradientTransform="matrix(0.671 -0.7414 -0.7414 -0.671 293.6832 999.2367)">
		<stop  offset="1" style="stop-color:#FFFF00"/>
		<stop  offset="1" style="stop-color:#FDFF00"/>
		<stop  offset="1" style="stop-color:#F6FF01"/>
		<stop  offset="1" style="stop-color:#EBFF02"/>
		<stop  offset="1" style="stop-color:#DAFF04"/>
		<stop  offset="1" style="stop-color:#C4FF06"/>
		<stop  offset="1" style="stop-color:#A8FF09"/>
		<stop  offset="1" style="stop-color:#88FF0C"/>
		<stop  offset="1" style="stop-color:#63FF10"/>
		<stop  offset="1" style="stop-color:#3AFF15"/>
		<stop  offset="1" style="stop-color:#36FF15"/>
	</linearGradient>
	<polygon class="st45" points="565.8,264.3 570.4,259.3 539.9,231.6 535.3,236.7 	"/>
	
		<linearGradient id="SVGID_40_" gradientUnits="userSpaceOnUse" x1="720.1919" y1="317.3665" x2="727.045" y2="317.3665" gradientTransform="matrix(0.671 -0.7414 -0.7414 -0.671 293.6832 999.2367)">
		<stop  offset="1" style="stop-color:#FFFF00"/>
		<stop  offset="1" style="stop-color:#FDFF00"/>
		<stop  offset="1" style="stop-color:#F6FF01"/>
		<stop  offset="1" style="stop-color:#EBFF02"/>
		<stop  offset="1" style="stop-color:#DAFF04"/>
		<stop  offset="1" style="stop-color:#C4FF06"/>
		<stop  offset="1" style="stop-color:#A8FF09"/>
		<stop  offset="1" style="stop-color:#88FF0C"/>
		<stop  offset="1" style="stop-color:#63FF10"/>
		<stop  offset="1" style="stop-color:#3AFF15"/>
		<stop  offset="1" style="stop-color:#36FF15"/>
	</linearGradient>
	<polygon class="st46" points="556.9,266.1 561.5,261 531.1,233.4 526.4,238.5 	"/>
	
		<linearGradient id="SVGID_41_" gradientUnits="userSpaceOnUse" x1="712.8984" y1="312.7347" x2="719.7517" y2="312.7347" gradientTransform="matrix(0.671 -0.7414 -0.7414 -0.671 293.6832 999.2367)">
		<stop  offset="1" style="stop-color:#FFFF00"/>
		<stop  offset="1" style="stop-color:#FDFF00"/>
		<stop  offset="1" style="stop-color:#F6FF01"/>
		<stop  offset="1" style="stop-color:#EBFF02"/>
		<stop  offset="1" style="stop-color:#DAFF04"/>
		<stop  offset="1" style="stop-color:#C4FF06"/>
		<stop  offset="1" style="stop-color:#A8FF09"/>
		<stop  offset="1" style="stop-color:#88FF0C"/>
		<stop  offset="1" style="stop-color:#63FF10"/>
		<stop  offset="1" style="stop-color:#3AFF15"/>
		<stop  offset="1" style="stop-color:#36FF15"/>
	</linearGradient>
	<polygon class="st47" points="555.5,274.6 560,269.5 529.6,241.9 525,247 	"/>
	
		<linearGradient id="SVGID_42_" gradientUnits="userSpaceOnUse" x1="705.6389" y1="318.1317" x2="712.4921" y2="318.1317" gradientTransform="matrix(0.671 -0.7414 -0.7414 -0.671 293.6832 999.2367)">
		<stop  offset="1" style="stop-color:#FFFF00"/>
		<stop  offset="1" style="stop-color:#FDFF00"/>
		<stop  offset="1" style="stop-color:#F6FF01"/>
		<stop  offset="1" style="stop-color:#EBFF02"/>
		<stop  offset="1" style="stop-color:#DAFF04"/>
		<stop  offset="1" style="stop-color:#C4FF06"/>
		<stop  offset="1" style="stop-color:#A8FF09"/>
		<stop  offset="1" style="stop-color:#88FF0C"/>
		<stop  offset="1" style="stop-color:#63FF10"/>
		<stop  offset="1" style="stop-color:#3AFF15"/>
		<stop  offset="1" style="stop-color:#36FF15"/>
	</linearGradient>
	<polygon class="st48" points="546.6,276.4 551.2,271.3 520.7,243.7 516.1,248.8 	"/>
	
		<linearGradient id="SVGID_43_" gradientUnits="userSpaceOnUse" x1="699.0684" y1="313.8532" x2="705.9216" y2="313.8532" gradientTransform="matrix(0.671 -0.7414 -0.7414 -0.671 293.6832 999.2367)">
		<stop  offset="1" style="stop-color:#FFFF00"/>
		<stop  offset="1" style="stop-color:#FDFF00"/>
		<stop  offset="1" style="stop-color:#F6FF01"/>
		<stop  offset="1" style="stop-color:#EBFF02"/>
		<stop  offset="1" style="stop-color:#DAFF04"/>
		<stop  offset="1" style="stop-color:#C4FF06"/>
		<stop  offset="1" style="stop-color:#A8FF09"/>
		<stop  offset="1" style="stop-color:#88FF0C"/>
		<stop  offset="1" style="stop-color:#63FF10"/>
		<stop  offset="1" style="stop-color:#3AFF15"/>
		<stop  offset="1" style="stop-color:#36FF15"/>
	</linearGradient>
	<polygon class="st49" points="545.3,284.1 550,279 519.4,251.4 514.9,256.5 	"/>
	
		<linearGradient id="SVGID_44_" gradientUnits="userSpaceOnUse" x1="691.8087" y1="319.2453" x2="698.662" y2="319.2453" gradientTransform="matrix(0.671 -0.7414 -0.7414 -0.671 293.6832 999.2367)">
		<stop  offset="1" style="stop-color:#FFFF00"/>
		<stop  offset="1" style="stop-color:#FDFF00"/>
		<stop  offset="1" style="stop-color:#F6FF01"/>
		<stop  offset="1" style="stop-color:#EBFF02"/>
		<stop  offset="1" style="stop-color:#DAFF04"/>
		<stop  offset="1" style="stop-color:#C4FF06"/>
		<stop  offset="1" style="stop-color:#A8FF09"/>
		<stop  offset="1" style="stop-color:#88FF0C"/>
		<stop  offset="1" style="stop-color:#63FF10"/>
		<stop  offset="1" style="stop-color:#3AFF15"/>
		<stop  offset="1" style="stop-color:#36FF15"/>
	</linearGradient>
	<polygon class="st50" points="536.5,285.9 541.1,280.8 510.6,253.2 506,258.3 	"/>
</g>
<g id="Слой_8">
	
		<linearGradient id="SVGID_45_" gradientUnits="userSpaceOnUse" x1="464.3118" y1="284.7675" x2="896.0947" y2="284.7675" gradientTransform="matrix(0.4089 -0.4003 -1.1493 -1.174 505.0538 884.7177)">
		<stop  offset="1" style="stop-color:#FFFF00"/>
		<stop  offset="1" style="stop-color:#FDFF00"/>
		<stop  offset="1" style="stop-color:#F6FF01"/>
		<stop  offset="1" style="stop-color:#EBFF02"/>
		<stop  offset="1" style="stop-color:#DAFF04"/>
		<stop  offset="1" style="stop-color:#C4FF06"/>
		<stop  offset="1" style="stop-color:#A8FF09"/>
		<stop  offset="1" style="stop-color:#88FF0C"/>
		<stop  offset="1" style="stop-color:#63FF10"/>
		<stop  offset="1" style="stop-color:#3AFF15"/>
		<stop  offset="1" style="stop-color:#36FF15"/>
	</linearGradient>
	<path class="st51" d="M547.9,227.5L403.3,369c-8.8,8.7-23,8.5-31.6-0.3l-8.1-8.2c-8.7-8.8-8.5-23,0.3-31.6l144.6-141.5
		c8.8-8.7,23-8.5,31.6,0.3l8.1,8.2C556.9,204.6,556.7,218.8,547.9,227.5z"/>
	<g>
		<g>
			<path class="st52" d="M509.9,204.1c3.5,0,3.5-5.4,0-5.4S506.4,204.1,509.9,204.1L509.9,204.1z"/>
		</g>
	</g>
	<g>
		<g>
			<path class="st53" d="M376.4,336.3c36.3-34.2,72.6-68.4,108.8-102.6c10.3-9.8,20.7-19.5,31-29.3c2.6-2.4-1.3-6.3-3.9-3.9
				c-36.3,34.2-72.6,68.4-108.8,102.6c-10.3,9.8-20.7,19.5-31,29.3C370,334.9,373.8,338.7,376.4,336.3L376.4,336.3z"/>
		</g>
	</g>
</g>
<g id="Слой_6">
	
		<linearGradient id="SVGID_46_" gradientUnits="userSpaceOnUse" x1="275.7921" y1="196.9158" x2="426.5584" y2="196.9158" gradientTransform="matrix(0.9925 0.1222 0.1222 -0.9925 -27.0065 541.9286)">
		<stop  offset="1" style="stop-color:#FFFF00"/>
		<stop  offset="1" style="stop-color:#FDFF00"/>
		<stop  offset="1" style="stop-color:#F6FF01"/>
		<stop  offset="1" style="stop-color:#EBFF02"/>
		<stop  offset="1" style="stop-color:#DAFF04"/>
		<stop  offset="1" style="stop-color:#C4FF06"/>
		<stop  offset="1" style="stop-color:#A8FF09"/>
		<stop  offset="1" style="stop-color:#88FF0C"/>
		<stop  offset="1" style="stop-color:#63FF10"/>
		<stop  offset="1" style="stop-color:#3AFF15"/>
		<stop  offset="1" style="stop-color:#36FF15"/>
	</linearGradient>
	<path class="st54" d="M411.2,358.4c-3.7,7.5-11.2,13-22.1,11.7c-0.2,0-0.3-0.1-0.5-0.1c-0.5,0.1-1,0.2-1.5,0.2
		c11.1,29.4-7.2,70.7-47.9,65.6c-60.1-7.4-48.5-100.7,11.5-93.3c4.8,0.6,9.2,1.9,13.1,3.4c0.1-1,0.4-1.9,0.5-2.9
		c-0.4-6,1.2-12.2,4.8-16.9c-4.9-1.6-10-2.9-15.4-3.5c-41.3-5.1-78.5,20.7-83,57.6c-4.5,36.9,25.3,70.9,66.6,76s78.5-20.7,83-57.6
		C422.2,384.2,418.6,370.3,411.2,358.4z"/>
</g>
<g id="Слой_9">
	<polygon class="st55" points="336.9,339 333,336.8 329,338.8 329.8,334.4 326.7,331.2 331.1,330.7 333.2,326.7 335.1,330.7 
		339.5,331.5 336.3,334.5 	"/>
	<polygon class="st55" points="314.8,350.1 310.9,347.9 306.9,349.9 307.8,345.5 304.6,342.3 309.1,341.8 311.1,337.8 313,341.8 
		317.4,342.6 314.2,345.6 	"/>
	<polygon class="st55" points="298.7,368.8 294.8,366.6 290.8,368.6 291.6,364.2 288.5,361.1 293,360.5 295,356.5 296.9,360.6 
		301.3,361.3 298.1,364.3 	"/>
	<polygon class="st55" points="289.4,388.4 285.5,386.2 281.5,388.2 282.3,383.8 279.2,380.6 283.6,380.1 285.7,376.1 287.6,380.1 
		292,380.9 288.8,384 	"/>
	<polygon class="st55" points="293.7,409.6 289.8,407.4 285.8,409.4 286.6,405 283.5,401.9 287.9,401.3 290,397.4 291.9,401.4 
		296.3,402.1 293,405.2 	"/>
	<polygon class="st55" points="304.8,431.7 300.8,429.5 296.9,431.5 297.7,427.2 294.6,423.9 299,423.4 301.1,419.4 303,423.4 
		307.4,424.2 304.1,427.3 	"/>
	<polygon class="st55" points="323.5,447.8 319.6,445.6 315.6,447.6 316.4,443.2 313.3,440.1 317.7,439.5 319.8,435.5 321.7,439.6 
		326.1,440.3 322.9,443.4 	"/>
	<polygon class="st55" points="350.7,451.1 346.8,449 342.8,451 343.7,446.6 340.5,443.4 345,442.8 347,438.9 348.9,443 
		353.3,443.7 350,446.7 	"/>
	<polygon class="st55" points="394.1,435.8 390.1,433.6 386.2,435.6 387,431.2 383.8,428 388.3,427.5 390.3,423.5 392.3,427.5 
		396.7,428.3 393.4,431.3 	"/>
	<polygon class="st55" points="403.4,416.2 399.4,414 395.5,416 396.3,411.6 393.1,408.5 397.6,407.9 399.7,403.9 401.6,408 
		406,408.7 402.7,411.8 	"/>
	<polygon class="st55" points="405.9,395.8 402,393.7 398,395.6 398.8,391.3 395.6,388 400.1,387.5 402.2,383.5 404.1,387.6 
		408.5,388.3 405.2,391.4 	"/>
	<polygon class="st55" points="425.9,341.5 421.6,342.9 420.4,347.2 417.7,343.6 413.2,343.8 415.8,340.2 414.3,336 418.6,337.3 
		422.1,334.5 422.2,339 	"/>
	<polygon class="st55" points="439.5,328.8 435.2,330 433.7,334.2 431.3,330.5 426.8,330.4 429.6,326.9 428.4,322.6 432.5,324.2 
		436.2,321.6 436,326.1 	"/>
	<polygon class="st55" points="372,446.9 368.1,444.7 364,446.7 364.9,442.3 361.7,439.1 366.2,438.5 368.2,434.6 370.1,438.6 
		374.6,439.4 371.3,442.4 	"/>
	<polygon class="st55" points="452.8,314.8 448.6,316.2 447.4,320.5 444.7,317 440.2,317.1 442.8,313.5 441.3,309.2 445.6,310.6 
		449.1,307.9 449.1,312.3 	"/>
	<polygon class="st55" points="466.5,302.1 462.2,303.3 460.7,307.5 458.3,303.8 453.8,303.7 456.6,300.2 455.3,295.9 459.5,297.5 
		463.2,294.9 463,299.4 	"/>
</g>
</svg>
